%TF.GenerationSoftware,KiCad,Pcbnew,10.0.5*%
%TF.CreationDate,2026-09-02T07:59:46+02:00*%
%TF.ProjectId,garage-console,67617261-6765-42d6-936f-6e736f6c652e,rev?*%
%TF.SameCoordinates,Original*%
%TF.FileFunction,Soldermask,Top*%
%TF.FilePolarity,Negative*%
%FSLAX46Y46*%
G04 Gerber Fmt 4.6, Leading zero omitted, Abs format (unit mm)*
G04 Created by KiCad (PCBNEW 10.0.5) date 2026-09-02 07:59:46*
%MOMM*%
%LPD*%
G01*
G04 APERTURE LIST*
G04 Aperture macros list*
%AMRoundRect*
0 Rectangle with rounded corners*
0 $1 Rounding radius*
0 $2 $3 $4 $5 $6 $7 $8 $9 X,Y pos of 4 corners*
0 Add a 4 corners polygon primitive as box body*
4,1,4,$2,$3,$4,$5,$6,$7,$8,$9,$2,$3,0*
0 Add four circle primitives for the rounded corners*
1,1,$1+$1,$2,$3*
1,1,$1+$1,$4,$5*
1,1,$1+$1,$6,$7*
1,1,$1+$1,$8,$9*
0 Add four rect primitives between the rounded corners*
20,1,$1+$1,$2,$3,$4,$5,0*
20,1,$1+$1,$4,$5,$6,$7,0*
20,1,$1+$1,$6,$7,$8,$9,0*
20,1,$1+$1,$8,$9,$2,$3,0*%
G04 Aperture macros list end*
%ADD10RoundRect,0.300000X-0.250000X-0.475000X0.250000X-0.475000X0.250000X0.475000X-0.250000X0.475000X0*%
%ADD11RoundRect,0.300000X-0.475000X0.250000X-0.475000X-0.250000X0.475000X-0.250000X0.475000X0.250000X0*%
%ADD12RoundRect,0.300000X-0.600000X-0.750000X0.600000X-0.750000X0.600000X0.750000X-0.600000X0.750000X0*%
%ADD13O,1.800000X2.100000*%
%ADD14RoundRect,0.300000X0.262500X0.450000X-0.262500X0.450000X-0.262500X-0.450000X0.262500X-0.450000X0*%
%ADD15C,3.800000*%
%ADD16RoundRect,0.150000X-0.850000X-0.100000X0.850000X-0.100000X0.850000X0.100000X-0.850000X0.100000X0*%
%ADD17RoundRect,0.202400X-1.063600X-0.609600X1.063600X-0.609600X1.063600X0.609600X-1.063600X0.609600X0*%
%ADD18C,1.624000*%
%ADD19RoundRect,0.202400X1.063600X0.609600X-1.063600X0.609600X-1.063600X-0.609600X1.063600X-0.609600X0*%
%ADD20RoundRect,0.300000X0.475000X-0.250000X0.475000X0.250000X-0.475000X0.250000X-0.475000X-0.250000X0*%
G04 APERTURE END LIST*
D10*
%TO.C,C2*%
X31050000Y-73500000D03*
X32950000Y-73500000D03*
%TD*%
D11*
%TO.C,C3*%
X9000000Y-9050000D03*
X9000000Y-10950000D03*
%TD*%
D12*
%TO.C,J13*%
X72000000Y-10000000D03*
D13*
X74500000Y-10000000D03*
%TD*%
D14*
%TO.C,R2*%
X58912500Y-68370000D03*
X57087500Y-68370000D03*
%TD*%
D15*
%TO.C,H2*%
X85500000Y-4500000D03*
%TD*%
D14*
%TO.C,R1*%
X58912500Y-70910000D03*
X57087500Y-70910000D03*
%TD*%
D16*
%TO.C,U2*%
X41499999Y-51425000D03*
X41499999Y-52075000D03*
X41499999Y-52725000D03*
X41499999Y-53375000D03*
X41499999Y-54025000D03*
X41499999Y-54675000D03*
X41499999Y-55325000D03*
X41499999Y-55975000D03*
X41499999Y-56625000D03*
X41499999Y-57275000D03*
X41499999Y-57925000D03*
X41499999Y-58575000D03*
X48500000Y-58575000D03*
X48500000Y-57925000D03*
X48500000Y-57275000D03*
X48500000Y-56625000D03*
X48500000Y-55975000D03*
X48500000Y-55325000D03*
X48500000Y-54675000D03*
X48500000Y-54025000D03*
X48500000Y-53375000D03*
X48500000Y-52725000D03*
X48500000Y-52075000D03*
X48500000Y-51425000D03*
%TD*%
D11*
%TO.C,C8*%
X28000000Y-21050000D03*
X28000000Y-22950000D03*
%TD*%
%TO.C,C13*%
X47000000Y-33050000D03*
X47000000Y-34950000D03*
%TD*%
D12*
%TO.C,J5*%
X34000000Y-10000000D03*
D13*
X36500000Y-10000000D03*
%TD*%
D15*
%TO.C,H1*%
X4500000Y-4500000D03*
%TD*%
D12*
%TO.C,J15*%
X72000000Y-34000000D03*
D13*
X74500000Y-34000000D03*
%TD*%
D12*
%TO.C,J10*%
X53000000Y-22000000D03*
D13*
X55500000Y-22000000D03*
%TD*%
D11*
%TO.C,C17*%
X66000000Y-33050000D03*
X66000000Y-34950000D03*
%TD*%
D14*
%TO.C,R3*%
X58912500Y-75990000D03*
X57087500Y-75990000D03*
%TD*%
D11*
%TO.C,C6*%
X9000000Y-45050000D03*
X9000000Y-46950000D03*
%TD*%
D12*
%TO.C,J8*%
X34000000Y-46000000D03*
D13*
X36500000Y-46000000D03*
%TD*%
D12*
%TO.C,J11*%
X53000000Y-34000000D03*
D13*
X55500000Y-34000000D03*
%TD*%
D11*
%TO.C,C7*%
X28000000Y-9050000D03*
X28000000Y-10950000D03*
%TD*%
D12*
%TO.C,J2*%
X15000000Y-22000000D03*
D13*
X17500000Y-22000000D03*
%TD*%
D11*
%TO.C,C10*%
X28000000Y-45050000D03*
X28000000Y-46950000D03*
%TD*%
%TO.C,C12*%
X47000000Y-21050000D03*
X47000000Y-22950000D03*
%TD*%
D12*
%TO.C,J16*%
X72000000Y-46000000D03*
D13*
X74500000Y-46000000D03*
%TD*%
D12*
%TO.C,J7*%
X34000000Y-34000000D03*
D13*
X36500000Y-34000000D03*
%TD*%
D17*
%TO.C,U1*%
X53455000Y-81070000D03*
D18*
X52620000Y-81070000D03*
D17*
X53455000Y-78529999D03*
D18*
X52620000Y-78529999D03*
D17*
X53455000Y-75990000D03*
D18*
X52620000Y-75990000D03*
D17*
X53455000Y-73450000D03*
D18*
X52620000Y-73450000D03*
D17*
X53455000Y-70910000D03*
D18*
X52620000Y-70910000D03*
D17*
X53455000Y-68370000D03*
D18*
X52620000Y-68370000D03*
D17*
X53455000Y-65829999D03*
D18*
X52620000Y-65829999D03*
X37380000Y-65829999D03*
D19*
X36545000Y-65829999D03*
D18*
X37380000Y-68370000D03*
D19*
X36545000Y-68370000D03*
D18*
X37380000Y-70910000D03*
D19*
X36545000Y-70910000D03*
D18*
X37380000Y-73450000D03*
D19*
X36545000Y-73450000D03*
D18*
X37380000Y-75990000D03*
D19*
X36545000Y-75990000D03*
D18*
X37380000Y-78529999D03*
D19*
X36545000Y-78529999D03*
D18*
X37380000Y-81070000D03*
D19*
X36545000Y-81070000D03*
%TD*%
D11*
%TO.C,C11*%
X47000000Y-9050000D03*
X47000000Y-10950000D03*
%TD*%
%TO.C,C18*%
X66000000Y-45050000D03*
X66000000Y-46950000D03*
%TD*%
%TO.C,C5*%
X9000000Y-33050000D03*
X9000000Y-34950000D03*
%TD*%
D15*
%TO.C,H3*%
X4500000Y-79500000D03*
%TD*%
D12*
%TO.C,J12*%
X53000000Y-46000000D03*
D13*
X55500000Y-46000000D03*
%TD*%
D12*
%TO.C,J14*%
X72000000Y-22000000D03*
D13*
X74500000Y-22000000D03*
%TD*%
D12*
%TO.C,J1*%
X15000000Y-10000000D03*
D13*
X17500000Y-10000000D03*
%TD*%
D15*
%TO.C,H4*%
X85500000Y-79500000D03*
%TD*%
D11*
%TO.C,C16*%
X66000000Y-21050000D03*
X66000000Y-22950000D03*
%TD*%
D20*
%TO.C,C1*%
X52500000Y-58450000D03*
X52500000Y-56550000D03*
%TD*%
D12*
%TO.C,J9*%
X53000000Y-10000000D03*
D13*
X55500000Y-10000000D03*
%TD*%
D12*
%TO.C,J4*%
X15000000Y-46000000D03*
D13*
X17500000Y-46000000D03*
%TD*%
D11*
%TO.C,C4*%
X9000000Y-21050000D03*
X9000000Y-22950000D03*
%TD*%
D12*
%TO.C,J3*%
X15000000Y-34000000D03*
D13*
X17500000Y-34000000D03*
%TD*%
D11*
%TO.C,C9*%
X28000000Y-33050000D03*
X28000000Y-34950000D03*
%TD*%
%TO.C,C14*%
X47000000Y-45050000D03*
X47000000Y-46950000D03*
%TD*%
%TO.C,C15*%
X66000000Y-9050000D03*
X66000000Y-10950000D03*
%TD*%
D12*
%TO.C,J6*%
X34000000Y-22000000D03*
D13*
X36500000Y-22000000D03*
%TD*%
M02*
