M48
; DRILL file KiCad 10.0.5 date 2026-09-02T07:59:47
; FORMAT={-:-/ absolute / metric / decimal}
; #@! TF.CreationDate,2026-09-02T07:59:47+02:00
; #@! TF.GenerationSoftware,Kicad,Pcbnew,10.0.5
; #@! TF.FileFunction,Plated,1,2,PTH
FMAT,2
METRIC
; #@! TA.AperFunction,Plated,PTH,ViaDrill
T1C0.300
; #@! TA.AperFunction,Plated,PTH,ViaDrill
T2C0.400
; #@! TA.AperFunction,Plated,PTH,ComponentDrill
T3C0.889
; #@! TA.AperFunction,Plated,PTH,ComponentDrill
T4C1.000
%
G90
G05
T1
X24.633Y-56.517
X27.542Y-50.71
X33.362Y-51.536
X38.207Y-56.104
X39.057Y-57.274
X39.874Y-56.093
X41.494Y-50.341
X42.264Y-47.633
X44.212Y-50.71
X44.88Y-56.949
X45.298Y-53.613
X46.952Y-55.344
X50.744Y-52.732
X51.836Y-51.014
X52.006Y-55.439
T2
X48.5Y-50.0
X48.5Y-60.5
T3
X37.38Y-65.83
X37.38Y-68.37
X37.38Y-70.91
X37.38Y-73.45
X37.38Y-75.99
X37.38Y-78.53
X37.38Y-81.07
X52.62Y-65.83
X52.62Y-68.37
X52.62Y-70.91
X52.62Y-73.45
X52.62Y-75.99
X52.62Y-78.53
X52.62Y-81.07
T4
X15.0Y-10.0
X15.0Y-22.0
X15.0Y-34.0
X15.0Y-46.0
X17.5Y-10.0
X17.5Y-22.0
X17.5Y-34.0
X17.5Y-46.0
X34.0Y-10.0
X34.0Y-22.0
X34.0Y-34.0
X34.0Y-46.0
X36.5Y-10.0
X36.5Y-22.0
X36.5Y-34.0
X36.5Y-46.0
X53.0Y-10.0
X53.0Y-22.0
X53.0Y-34.0
X53.0Y-46.0
X55.5Y-10.0
X55.5Y-22.0
X55.5Y-34.0
X55.5Y-46.0
X72.0Y-10.0
X72.0Y-22.0
X72.0Y-34.0
X72.0Y-46.0
X74.5Y-10.0
X74.5Y-22.0
X74.5Y-34.0
X74.5Y-46.0
M30
