%TF.GenerationSoftware,KiCad,Pcbnew,10.0.5*%
%TF.CreationDate,2026-09-02T07:59:46+02:00*%
%TF.ProjectId,garage-console,67617261-6765-42d6-936f-6e736f6c652e,rev?*%
%TF.SameCoordinates,Original*%
%TF.FileFunction,Legend,Top*%
%TF.FilePolarity,Positive*%
%FSLAX46Y46*%
G04 Gerber Fmt 4.6, Leading zero omitted, Abs format (unit mm)*
G04 Created by KiCad (PCBNEW 10.0.5) date 2026-09-02 07:59:46*
%MOMM*%
%LPD*%
G01*
G04 APERTURE LIST*
%ADD10C,0.125000*%
%ADD11C,0.150000*%
%ADD12C,0.120000*%
%ADD13C,0.127000*%
%ADD14C,0.100000*%
%ADD15C,0.504000*%
G04 APERTURE END LIST*
D10*
X31833333Y-72180880D02*
X31785714Y-72228500D01*
X31785714Y-72228500D02*
X31642857Y-72276119D01*
X31642857Y-72276119D02*
X31547619Y-72276119D01*
X31547619Y-72276119D02*
X31404762Y-72228500D01*
X31404762Y-72228500D02*
X31309524Y-72133261D01*
X31309524Y-72133261D02*
X31261905Y-72038023D01*
X31261905Y-72038023D02*
X31214286Y-71847547D01*
X31214286Y-71847547D02*
X31214286Y-71704690D01*
X31214286Y-71704690D02*
X31261905Y-71514214D01*
X31261905Y-71514214D02*
X31309524Y-71418976D01*
X31309524Y-71418976D02*
X31404762Y-71323738D01*
X31404762Y-71323738D02*
X31547619Y-71276119D01*
X31547619Y-71276119D02*
X31642857Y-71276119D01*
X31642857Y-71276119D02*
X31785714Y-71323738D01*
X31785714Y-71323738D02*
X31833333Y-71371357D01*
X32214286Y-71371357D02*
X32261905Y-71323738D01*
X32261905Y-71323738D02*
X32357143Y-71276119D01*
X32357143Y-71276119D02*
X32595238Y-71276119D01*
X32595238Y-71276119D02*
X32690476Y-71323738D01*
X32690476Y-71323738D02*
X32738095Y-71371357D01*
X32738095Y-71371357D02*
X32785714Y-71466595D01*
X32785714Y-71466595D02*
X32785714Y-71561833D01*
X32785714Y-71561833D02*
X32738095Y-71704690D01*
X32738095Y-71704690D02*
X32166667Y-72276119D01*
X32166667Y-72276119D02*
X32785714Y-72276119D01*
D11*
X6633333Y-10359580D02*
X6585714Y-10407200D01*
X6585714Y-10407200D02*
X6442857Y-10454819D01*
X6442857Y-10454819D02*
X6347619Y-10454819D01*
X6347619Y-10454819D02*
X6204762Y-10407200D01*
X6204762Y-10407200D02*
X6109524Y-10311961D01*
X6109524Y-10311961D02*
X6061905Y-10216723D01*
X6061905Y-10216723D02*
X6014286Y-10026247D01*
X6014286Y-10026247D02*
X6014286Y-9883390D01*
X6014286Y-9883390D02*
X6061905Y-9692914D01*
X6061905Y-9692914D02*
X6109524Y-9597676D01*
X6109524Y-9597676D02*
X6204762Y-9502438D01*
X6204762Y-9502438D02*
X6347619Y-9454819D01*
X6347619Y-9454819D02*
X6442857Y-9454819D01*
X6442857Y-9454819D02*
X6585714Y-9502438D01*
X6585714Y-9502438D02*
X6633333Y-9550057D01*
X6966667Y-9454819D02*
X7585714Y-9454819D01*
X7585714Y-9454819D02*
X7252381Y-9835771D01*
X7252381Y-9835771D02*
X7395238Y-9835771D01*
X7395238Y-9835771D02*
X7490476Y-9883390D01*
X7490476Y-9883390D02*
X7538095Y-9931009D01*
X7538095Y-9931009D02*
X7585714Y-10026247D01*
X7585714Y-10026247D02*
X7585714Y-10264342D01*
X7585714Y-10264342D02*
X7538095Y-10359580D01*
X7538095Y-10359580D02*
X7490476Y-10407200D01*
X7490476Y-10407200D02*
X7395238Y-10454819D01*
X7395238Y-10454819D02*
X7109524Y-10454819D01*
X7109524Y-10454819D02*
X7014286Y-10407200D01*
X7014286Y-10407200D02*
X6966667Y-10359580D01*
D10*
X72440476Y-5906119D02*
X72440476Y-6620404D01*
X72440476Y-6620404D02*
X72392857Y-6763261D01*
X72392857Y-6763261D02*
X72297619Y-6858500D01*
X72297619Y-6858500D02*
X72154762Y-6906119D01*
X72154762Y-6906119D02*
X72059524Y-6906119D01*
X73440476Y-6906119D02*
X72869048Y-6906119D01*
X73154762Y-6906119D02*
X73154762Y-5906119D01*
X73154762Y-5906119D02*
X73059524Y-6048976D01*
X73059524Y-6048976D02*
X72964286Y-6144214D01*
X72964286Y-6144214D02*
X72869048Y-6191833D01*
X73773810Y-5906119D02*
X74392857Y-5906119D01*
X74392857Y-5906119D02*
X74059524Y-6287071D01*
X74059524Y-6287071D02*
X74202381Y-6287071D01*
X74202381Y-6287071D02*
X74297619Y-6334690D01*
X74297619Y-6334690D02*
X74345238Y-6382309D01*
X74345238Y-6382309D02*
X74392857Y-6477547D01*
X74392857Y-6477547D02*
X74392857Y-6715642D01*
X74392857Y-6715642D02*
X74345238Y-6810880D01*
X74345238Y-6810880D02*
X74297619Y-6858500D01*
X74297619Y-6858500D02*
X74202381Y-6906119D01*
X74202381Y-6906119D02*
X73916667Y-6906119D01*
X73916667Y-6906119D02*
X73821429Y-6858500D01*
X73821429Y-6858500D02*
X73773810Y-6810880D01*
D11*
X61833333Y-68824819D02*
X61500000Y-68348628D01*
X61261905Y-68824819D02*
X61261905Y-67824819D01*
X61261905Y-67824819D02*
X61642857Y-67824819D01*
X61642857Y-67824819D02*
X61738095Y-67872438D01*
X61738095Y-67872438D02*
X61785714Y-67920057D01*
X61785714Y-67920057D02*
X61833333Y-68015295D01*
X61833333Y-68015295D02*
X61833333Y-68158152D01*
X61833333Y-68158152D02*
X61785714Y-68253390D01*
X61785714Y-68253390D02*
X61738095Y-68301009D01*
X61738095Y-68301009D02*
X61642857Y-68348628D01*
X61642857Y-68348628D02*
X61261905Y-68348628D01*
X62214286Y-67920057D02*
X62261905Y-67872438D01*
X62261905Y-67872438D02*
X62357143Y-67824819D01*
X62357143Y-67824819D02*
X62595238Y-67824819D01*
X62595238Y-67824819D02*
X62690476Y-67872438D01*
X62690476Y-67872438D02*
X62738095Y-67920057D01*
X62738095Y-67920057D02*
X62785714Y-68015295D01*
X62785714Y-68015295D02*
X62785714Y-68110533D01*
X62785714Y-68110533D02*
X62738095Y-68253390D01*
X62738095Y-68253390D02*
X62166667Y-68824819D01*
X62166667Y-68824819D02*
X62785714Y-68824819D01*
D10*
X84738095Y-9656119D02*
X84738095Y-8656119D01*
X84738095Y-9132309D02*
X85309523Y-9132309D01*
X85309523Y-9656119D02*
X85309523Y-8656119D01*
X85738095Y-8751357D02*
X85785714Y-8703738D01*
X85785714Y-8703738D02*
X85880952Y-8656119D01*
X85880952Y-8656119D02*
X86119047Y-8656119D01*
X86119047Y-8656119D02*
X86214285Y-8703738D01*
X86214285Y-8703738D02*
X86261904Y-8751357D01*
X86261904Y-8751357D02*
X86309523Y-8846595D01*
X86309523Y-8846595D02*
X86309523Y-8941833D01*
X86309523Y-8941833D02*
X86261904Y-9084690D01*
X86261904Y-9084690D02*
X85690476Y-9656119D01*
X85690476Y-9656119D02*
X86309523Y-9656119D01*
D11*
X61833333Y-71364819D02*
X61500000Y-70888628D01*
X61261905Y-71364819D02*
X61261905Y-70364819D01*
X61261905Y-70364819D02*
X61642857Y-70364819D01*
X61642857Y-70364819D02*
X61738095Y-70412438D01*
X61738095Y-70412438D02*
X61785714Y-70460057D01*
X61785714Y-70460057D02*
X61833333Y-70555295D01*
X61833333Y-70555295D02*
X61833333Y-70698152D01*
X61833333Y-70698152D02*
X61785714Y-70793390D01*
X61785714Y-70793390D02*
X61738095Y-70841009D01*
X61738095Y-70841009D02*
X61642857Y-70888628D01*
X61642857Y-70888628D02*
X61261905Y-70888628D01*
X62785714Y-71364819D02*
X62214286Y-71364819D01*
X62500000Y-71364819D02*
X62500000Y-70364819D01*
X62500000Y-70364819D02*
X62404762Y-70507676D01*
X62404762Y-70507676D02*
X62309524Y-70602914D01*
X62309524Y-70602914D02*
X62214286Y-70650533D01*
D10*
X44238095Y-49406119D02*
X44238095Y-50215642D01*
X44238095Y-50215642D02*
X44285714Y-50310880D01*
X44285714Y-50310880D02*
X44333333Y-50358500D01*
X44333333Y-50358500D02*
X44428571Y-50406119D01*
X44428571Y-50406119D02*
X44619047Y-50406119D01*
X44619047Y-50406119D02*
X44714285Y-50358500D01*
X44714285Y-50358500D02*
X44761904Y-50310880D01*
X44761904Y-50310880D02*
X44809523Y-50215642D01*
X44809523Y-50215642D02*
X44809523Y-49406119D01*
X45238095Y-49501357D02*
X45285714Y-49453738D01*
X45285714Y-49453738D02*
X45380952Y-49406119D01*
X45380952Y-49406119D02*
X45619047Y-49406119D01*
X45619047Y-49406119D02*
X45714285Y-49453738D01*
X45714285Y-49453738D02*
X45761904Y-49501357D01*
X45761904Y-49501357D02*
X45809523Y-49596595D01*
X45809523Y-49596595D02*
X45809523Y-49691833D01*
X45809523Y-49691833D02*
X45761904Y-49834690D01*
X45761904Y-49834690D02*
X45190476Y-50406119D01*
X45190476Y-50406119D02*
X45809523Y-50406119D01*
D11*
X25633333Y-22359580D02*
X25585714Y-22407200D01*
X25585714Y-22407200D02*
X25442857Y-22454819D01*
X25442857Y-22454819D02*
X25347619Y-22454819D01*
X25347619Y-22454819D02*
X25204762Y-22407200D01*
X25204762Y-22407200D02*
X25109524Y-22311961D01*
X25109524Y-22311961D02*
X25061905Y-22216723D01*
X25061905Y-22216723D02*
X25014286Y-22026247D01*
X25014286Y-22026247D02*
X25014286Y-21883390D01*
X25014286Y-21883390D02*
X25061905Y-21692914D01*
X25061905Y-21692914D02*
X25109524Y-21597676D01*
X25109524Y-21597676D02*
X25204762Y-21502438D01*
X25204762Y-21502438D02*
X25347619Y-21454819D01*
X25347619Y-21454819D02*
X25442857Y-21454819D01*
X25442857Y-21454819D02*
X25585714Y-21502438D01*
X25585714Y-21502438D02*
X25633333Y-21550057D01*
X26204762Y-21883390D02*
X26109524Y-21835771D01*
X26109524Y-21835771D02*
X26061905Y-21788152D01*
X26061905Y-21788152D02*
X26014286Y-21692914D01*
X26014286Y-21692914D02*
X26014286Y-21645295D01*
X26014286Y-21645295D02*
X26061905Y-21550057D01*
X26061905Y-21550057D02*
X26109524Y-21502438D01*
X26109524Y-21502438D02*
X26204762Y-21454819D01*
X26204762Y-21454819D02*
X26395238Y-21454819D01*
X26395238Y-21454819D02*
X26490476Y-21502438D01*
X26490476Y-21502438D02*
X26538095Y-21550057D01*
X26538095Y-21550057D02*
X26585714Y-21645295D01*
X26585714Y-21645295D02*
X26585714Y-21692914D01*
X26585714Y-21692914D02*
X26538095Y-21788152D01*
X26538095Y-21788152D02*
X26490476Y-21835771D01*
X26490476Y-21835771D02*
X26395238Y-21883390D01*
X26395238Y-21883390D02*
X26204762Y-21883390D01*
X26204762Y-21883390D02*
X26109524Y-21931009D01*
X26109524Y-21931009D02*
X26061905Y-21978628D01*
X26061905Y-21978628D02*
X26014286Y-22073866D01*
X26014286Y-22073866D02*
X26014286Y-22264342D01*
X26014286Y-22264342D02*
X26061905Y-22359580D01*
X26061905Y-22359580D02*
X26109524Y-22407200D01*
X26109524Y-22407200D02*
X26204762Y-22454819D01*
X26204762Y-22454819D02*
X26395238Y-22454819D01*
X26395238Y-22454819D02*
X26490476Y-22407200D01*
X26490476Y-22407200D02*
X26538095Y-22359580D01*
X26538095Y-22359580D02*
X26585714Y-22264342D01*
X26585714Y-22264342D02*
X26585714Y-22073866D01*
X26585714Y-22073866D02*
X26538095Y-21978628D01*
X26538095Y-21978628D02*
X26490476Y-21931009D01*
X26490476Y-21931009D02*
X26395238Y-21883390D01*
X44157142Y-34359580D02*
X44109523Y-34407200D01*
X44109523Y-34407200D02*
X43966666Y-34454819D01*
X43966666Y-34454819D02*
X43871428Y-34454819D01*
X43871428Y-34454819D02*
X43728571Y-34407200D01*
X43728571Y-34407200D02*
X43633333Y-34311961D01*
X43633333Y-34311961D02*
X43585714Y-34216723D01*
X43585714Y-34216723D02*
X43538095Y-34026247D01*
X43538095Y-34026247D02*
X43538095Y-33883390D01*
X43538095Y-33883390D02*
X43585714Y-33692914D01*
X43585714Y-33692914D02*
X43633333Y-33597676D01*
X43633333Y-33597676D02*
X43728571Y-33502438D01*
X43728571Y-33502438D02*
X43871428Y-33454819D01*
X43871428Y-33454819D02*
X43966666Y-33454819D01*
X43966666Y-33454819D02*
X44109523Y-33502438D01*
X44109523Y-33502438D02*
X44157142Y-33550057D01*
X45109523Y-34454819D02*
X44538095Y-34454819D01*
X44823809Y-34454819D02*
X44823809Y-33454819D01*
X44823809Y-33454819D02*
X44728571Y-33597676D01*
X44728571Y-33597676D02*
X44633333Y-33692914D01*
X44633333Y-33692914D02*
X44538095Y-33740533D01*
X45442857Y-33454819D02*
X46061904Y-33454819D01*
X46061904Y-33454819D02*
X45728571Y-33835771D01*
X45728571Y-33835771D02*
X45871428Y-33835771D01*
X45871428Y-33835771D02*
X45966666Y-33883390D01*
X45966666Y-33883390D02*
X46014285Y-33931009D01*
X46014285Y-33931009D02*
X46061904Y-34026247D01*
X46061904Y-34026247D02*
X46061904Y-34264342D01*
X46061904Y-34264342D02*
X46014285Y-34359580D01*
X46014285Y-34359580D02*
X45966666Y-34407200D01*
X45966666Y-34407200D02*
X45871428Y-34454819D01*
X45871428Y-34454819D02*
X45585714Y-34454819D01*
X45585714Y-34454819D02*
X45490476Y-34407200D01*
X45490476Y-34407200D02*
X45442857Y-34359580D01*
D10*
X34916666Y-5906119D02*
X34916666Y-6620404D01*
X34916666Y-6620404D02*
X34869047Y-6763261D01*
X34869047Y-6763261D02*
X34773809Y-6858500D01*
X34773809Y-6858500D02*
X34630952Y-6906119D01*
X34630952Y-6906119D02*
X34535714Y-6906119D01*
X35869047Y-5906119D02*
X35392857Y-5906119D01*
X35392857Y-5906119D02*
X35345238Y-6382309D01*
X35345238Y-6382309D02*
X35392857Y-6334690D01*
X35392857Y-6334690D02*
X35488095Y-6287071D01*
X35488095Y-6287071D02*
X35726190Y-6287071D01*
X35726190Y-6287071D02*
X35821428Y-6334690D01*
X35821428Y-6334690D02*
X35869047Y-6382309D01*
X35869047Y-6382309D02*
X35916666Y-6477547D01*
X35916666Y-6477547D02*
X35916666Y-6715642D01*
X35916666Y-6715642D02*
X35869047Y-6810880D01*
X35869047Y-6810880D02*
X35821428Y-6858500D01*
X35821428Y-6858500D02*
X35726190Y-6906119D01*
X35726190Y-6906119D02*
X35488095Y-6906119D01*
X35488095Y-6906119D02*
X35392857Y-6858500D01*
X35392857Y-6858500D02*
X35345238Y-6810880D01*
X3738095Y-9656119D02*
X3738095Y-8656119D01*
X3738095Y-9132309D02*
X4309523Y-9132309D01*
X4309523Y-9656119D02*
X4309523Y-8656119D01*
X5309523Y-9656119D02*
X4738095Y-9656119D01*
X5023809Y-9656119D02*
X5023809Y-8656119D01*
X5023809Y-8656119D02*
X4928571Y-8798976D01*
X4928571Y-8798976D02*
X4833333Y-8894214D01*
X4833333Y-8894214D02*
X4738095Y-8941833D01*
X72440476Y-29906119D02*
X72440476Y-30620404D01*
X72440476Y-30620404D02*
X72392857Y-30763261D01*
X72392857Y-30763261D02*
X72297619Y-30858500D01*
X72297619Y-30858500D02*
X72154762Y-30906119D01*
X72154762Y-30906119D02*
X72059524Y-30906119D01*
X73440476Y-30906119D02*
X72869048Y-30906119D01*
X73154762Y-30906119D02*
X73154762Y-29906119D01*
X73154762Y-29906119D02*
X73059524Y-30048976D01*
X73059524Y-30048976D02*
X72964286Y-30144214D01*
X72964286Y-30144214D02*
X72869048Y-30191833D01*
X74345238Y-29906119D02*
X73869048Y-29906119D01*
X73869048Y-29906119D02*
X73821429Y-30382309D01*
X73821429Y-30382309D02*
X73869048Y-30334690D01*
X73869048Y-30334690D02*
X73964286Y-30287071D01*
X73964286Y-30287071D02*
X74202381Y-30287071D01*
X74202381Y-30287071D02*
X74297619Y-30334690D01*
X74297619Y-30334690D02*
X74345238Y-30382309D01*
X74345238Y-30382309D02*
X74392857Y-30477547D01*
X74392857Y-30477547D02*
X74392857Y-30715642D01*
X74392857Y-30715642D02*
X74345238Y-30810880D01*
X74345238Y-30810880D02*
X74297619Y-30858500D01*
X74297619Y-30858500D02*
X74202381Y-30906119D01*
X74202381Y-30906119D02*
X73964286Y-30906119D01*
X73964286Y-30906119D02*
X73869048Y-30858500D01*
X73869048Y-30858500D02*
X73821429Y-30810880D01*
X53440476Y-17906119D02*
X53440476Y-18620404D01*
X53440476Y-18620404D02*
X53392857Y-18763261D01*
X53392857Y-18763261D02*
X53297619Y-18858500D01*
X53297619Y-18858500D02*
X53154762Y-18906119D01*
X53154762Y-18906119D02*
X53059524Y-18906119D01*
X54440476Y-18906119D02*
X53869048Y-18906119D01*
X54154762Y-18906119D02*
X54154762Y-17906119D01*
X54154762Y-17906119D02*
X54059524Y-18048976D01*
X54059524Y-18048976D02*
X53964286Y-18144214D01*
X53964286Y-18144214D02*
X53869048Y-18191833D01*
X55059524Y-17906119D02*
X55154762Y-17906119D01*
X55154762Y-17906119D02*
X55250000Y-17953738D01*
X55250000Y-17953738D02*
X55297619Y-18001357D01*
X55297619Y-18001357D02*
X55345238Y-18096595D01*
X55345238Y-18096595D02*
X55392857Y-18287071D01*
X55392857Y-18287071D02*
X55392857Y-18525166D01*
X55392857Y-18525166D02*
X55345238Y-18715642D01*
X55345238Y-18715642D02*
X55297619Y-18810880D01*
X55297619Y-18810880D02*
X55250000Y-18858500D01*
X55250000Y-18858500D02*
X55154762Y-18906119D01*
X55154762Y-18906119D02*
X55059524Y-18906119D01*
X55059524Y-18906119D02*
X54964286Y-18858500D01*
X54964286Y-18858500D02*
X54916667Y-18810880D01*
X54916667Y-18810880D02*
X54869048Y-18715642D01*
X54869048Y-18715642D02*
X54821429Y-18525166D01*
X54821429Y-18525166D02*
X54821429Y-18287071D01*
X54821429Y-18287071D02*
X54869048Y-18096595D01*
X54869048Y-18096595D02*
X54916667Y-18001357D01*
X54916667Y-18001357D02*
X54964286Y-17953738D01*
X54964286Y-17953738D02*
X55059524Y-17906119D01*
D11*
X63157142Y-34359580D02*
X63109523Y-34407200D01*
X63109523Y-34407200D02*
X62966666Y-34454819D01*
X62966666Y-34454819D02*
X62871428Y-34454819D01*
X62871428Y-34454819D02*
X62728571Y-34407200D01*
X62728571Y-34407200D02*
X62633333Y-34311961D01*
X62633333Y-34311961D02*
X62585714Y-34216723D01*
X62585714Y-34216723D02*
X62538095Y-34026247D01*
X62538095Y-34026247D02*
X62538095Y-33883390D01*
X62538095Y-33883390D02*
X62585714Y-33692914D01*
X62585714Y-33692914D02*
X62633333Y-33597676D01*
X62633333Y-33597676D02*
X62728571Y-33502438D01*
X62728571Y-33502438D02*
X62871428Y-33454819D01*
X62871428Y-33454819D02*
X62966666Y-33454819D01*
X62966666Y-33454819D02*
X63109523Y-33502438D01*
X63109523Y-33502438D02*
X63157142Y-33550057D01*
X64109523Y-34454819D02*
X63538095Y-34454819D01*
X63823809Y-34454819D02*
X63823809Y-33454819D01*
X63823809Y-33454819D02*
X63728571Y-33597676D01*
X63728571Y-33597676D02*
X63633333Y-33692914D01*
X63633333Y-33692914D02*
X63538095Y-33740533D01*
X64442857Y-33454819D02*
X65109523Y-33454819D01*
X65109523Y-33454819D02*
X64680952Y-34454819D01*
X61833333Y-76444819D02*
X61500000Y-75968628D01*
X61261905Y-76444819D02*
X61261905Y-75444819D01*
X61261905Y-75444819D02*
X61642857Y-75444819D01*
X61642857Y-75444819D02*
X61738095Y-75492438D01*
X61738095Y-75492438D02*
X61785714Y-75540057D01*
X61785714Y-75540057D02*
X61833333Y-75635295D01*
X61833333Y-75635295D02*
X61833333Y-75778152D01*
X61833333Y-75778152D02*
X61785714Y-75873390D01*
X61785714Y-75873390D02*
X61738095Y-75921009D01*
X61738095Y-75921009D02*
X61642857Y-75968628D01*
X61642857Y-75968628D02*
X61261905Y-75968628D01*
X62166667Y-75444819D02*
X62785714Y-75444819D01*
X62785714Y-75444819D02*
X62452381Y-75825771D01*
X62452381Y-75825771D02*
X62595238Y-75825771D01*
X62595238Y-75825771D02*
X62690476Y-75873390D01*
X62690476Y-75873390D02*
X62738095Y-75921009D01*
X62738095Y-75921009D02*
X62785714Y-76016247D01*
X62785714Y-76016247D02*
X62785714Y-76254342D01*
X62785714Y-76254342D02*
X62738095Y-76349580D01*
X62738095Y-76349580D02*
X62690476Y-76397200D01*
X62690476Y-76397200D02*
X62595238Y-76444819D01*
X62595238Y-76444819D02*
X62309524Y-76444819D01*
X62309524Y-76444819D02*
X62214286Y-76397200D01*
X62214286Y-76397200D02*
X62166667Y-76349580D01*
X6633333Y-46359580D02*
X6585714Y-46407200D01*
X6585714Y-46407200D02*
X6442857Y-46454819D01*
X6442857Y-46454819D02*
X6347619Y-46454819D01*
X6347619Y-46454819D02*
X6204762Y-46407200D01*
X6204762Y-46407200D02*
X6109524Y-46311961D01*
X6109524Y-46311961D02*
X6061905Y-46216723D01*
X6061905Y-46216723D02*
X6014286Y-46026247D01*
X6014286Y-46026247D02*
X6014286Y-45883390D01*
X6014286Y-45883390D02*
X6061905Y-45692914D01*
X6061905Y-45692914D02*
X6109524Y-45597676D01*
X6109524Y-45597676D02*
X6204762Y-45502438D01*
X6204762Y-45502438D02*
X6347619Y-45454819D01*
X6347619Y-45454819D02*
X6442857Y-45454819D01*
X6442857Y-45454819D02*
X6585714Y-45502438D01*
X6585714Y-45502438D02*
X6633333Y-45550057D01*
X7490476Y-45454819D02*
X7300000Y-45454819D01*
X7300000Y-45454819D02*
X7204762Y-45502438D01*
X7204762Y-45502438D02*
X7157143Y-45550057D01*
X7157143Y-45550057D02*
X7061905Y-45692914D01*
X7061905Y-45692914D02*
X7014286Y-45883390D01*
X7014286Y-45883390D02*
X7014286Y-46264342D01*
X7014286Y-46264342D02*
X7061905Y-46359580D01*
X7061905Y-46359580D02*
X7109524Y-46407200D01*
X7109524Y-46407200D02*
X7204762Y-46454819D01*
X7204762Y-46454819D02*
X7395238Y-46454819D01*
X7395238Y-46454819D02*
X7490476Y-46407200D01*
X7490476Y-46407200D02*
X7538095Y-46359580D01*
X7538095Y-46359580D02*
X7585714Y-46264342D01*
X7585714Y-46264342D02*
X7585714Y-46026247D01*
X7585714Y-46026247D02*
X7538095Y-45931009D01*
X7538095Y-45931009D02*
X7490476Y-45883390D01*
X7490476Y-45883390D02*
X7395238Y-45835771D01*
X7395238Y-45835771D02*
X7204762Y-45835771D01*
X7204762Y-45835771D02*
X7109524Y-45883390D01*
X7109524Y-45883390D02*
X7061905Y-45931009D01*
X7061905Y-45931009D02*
X7014286Y-46026247D01*
D10*
X34916666Y-41906119D02*
X34916666Y-42620404D01*
X34916666Y-42620404D02*
X34869047Y-42763261D01*
X34869047Y-42763261D02*
X34773809Y-42858500D01*
X34773809Y-42858500D02*
X34630952Y-42906119D01*
X34630952Y-42906119D02*
X34535714Y-42906119D01*
X35535714Y-42334690D02*
X35440476Y-42287071D01*
X35440476Y-42287071D02*
X35392857Y-42239452D01*
X35392857Y-42239452D02*
X35345238Y-42144214D01*
X35345238Y-42144214D02*
X35345238Y-42096595D01*
X35345238Y-42096595D02*
X35392857Y-42001357D01*
X35392857Y-42001357D02*
X35440476Y-41953738D01*
X35440476Y-41953738D02*
X35535714Y-41906119D01*
X35535714Y-41906119D02*
X35726190Y-41906119D01*
X35726190Y-41906119D02*
X35821428Y-41953738D01*
X35821428Y-41953738D02*
X35869047Y-42001357D01*
X35869047Y-42001357D02*
X35916666Y-42096595D01*
X35916666Y-42096595D02*
X35916666Y-42144214D01*
X35916666Y-42144214D02*
X35869047Y-42239452D01*
X35869047Y-42239452D02*
X35821428Y-42287071D01*
X35821428Y-42287071D02*
X35726190Y-42334690D01*
X35726190Y-42334690D02*
X35535714Y-42334690D01*
X35535714Y-42334690D02*
X35440476Y-42382309D01*
X35440476Y-42382309D02*
X35392857Y-42429928D01*
X35392857Y-42429928D02*
X35345238Y-42525166D01*
X35345238Y-42525166D02*
X35345238Y-42715642D01*
X35345238Y-42715642D02*
X35392857Y-42810880D01*
X35392857Y-42810880D02*
X35440476Y-42858500D01*
X35440476Y-42858500D02*
X35535714Y-42906119D01*
X35535714Y-42906119D02*
X35726190Y-42906119D01*
X35726190Y-42906119D02*
X35821428Y-42858500D01*
X35821428Y-42858500D02*
X35869047Y-42810880D01*
X35869047Y-42810880D02*
X35916666Y-42715642D01*
X35916666Y-42715642D02*
X35916666Y-42525166D01*
X35916666Y-42525166D02*
X35869047Y-42429928D01*
X35869047Y-42429928D02*
X35821428Y-42382309D01*
X35821428Y-42382309D02*
X35726190Y-42334690D01*
X53440476Y-29906119D02*
X53440476Y-30620404D01*
X53440476Y-30620404D02*
X53392857Y-30763261D01*
X53392857Y-30763261D02*
X53297619Y-30858500D01*
X53297619Y-30858500D02*
X53154762Y-30906119D01*
X53154762Y-30906119D02*
X53059524Y-30906119D01*
X54440476Y-30906119D02*
X53869048Y-30906119D01*
X54154762Y-30906119D02*
X54154762Y-29906119D01*
X54154762Y-29906119D02*
X54059524Y-30048976D01*
X54059524Y-30048976D02*
X53964286Y-30144214D01*
X53964286Y-30144214D02*
X53869048Y-30191833D01*
X55392857Y-30906119D02*
X54821429Y-30906119D01*
X55107143Y-30906119D02*
X55107143Y-29906119D01*
X55107143Y-29906119D02*
X55011905Y-30048976D01*
X55011905Y-30048976D02*
X54916667Y-30144214D01*
X54916667Y-30144214D02*
X54821429Y-30191833D01*
D11*
X25633333Y-10359580D02*
X25585714Y-10407200D01*
X25585714Y-10407200D02*
X25442857Y-10454819D01*
X25442857Y-10454819D02*
X25347619Y-10454819D01*
X25347619Y-10454819D02*
X25204762Y-10407200D01*
X25204762Y-10407200D02*
X25109524Y-10311961D01*
X25109524Y-10311961D02*
X25061905Y-10216723D01*
X25061905Y-10216723D02*
X25014286Y-10026247D01*
X25014286Y-10026247D02*
X25014286Y-9883390D01*
X25014286Y-9883390D02*
X25061905Y-9692914D01*
X25061905Y-9692914D02*
X25109524Y-9597676D01*
X25109524Y-9597676D02*
X25204762Y-9502438D01*
X25204762Y-9502438D02*
X25347619Y-9454819D01*
X25347619Y-9454819D02*
X25442857Y-9454819D01*
X25442857Y-9454819D02*
X25585714Y-9502438D01*
X25585714Y-9502438D02*
X25633333Y-9550057D01*
X25966667Y-9454819D02*
X26633333Y-9454819D01*
X26633333Y-9454819D02*
X26204762Y-10454819D01*
D10*
X15916666Y-17906119D02*
X15916666Y-18620404D01*
X15916666Y-18620404D02*
X15869047Y-18763261D01*
X15869047Y-18763261D02*
X15773809Y-18858500D01*
X15773809Y-18858500D02*
X15630952Y-18906119D01*
X15630952Y-18906119D02*
X15535714Y-18906119D01*
X16345238Y-18001357D02*
X16392857Y-17953738D01*
X16392857Y-17953738D02*
X16488095Y-17906119D01*
X16488095Y-17906119D02*
X16726190Y-17906119D01*
X16726190Y-17906119D02*
X16821428Y-17953738D01*
X16821428Y-17953738D02*
X16869047Y-18001357D01*
X16869047Y-18001357D02*
X16916666Y-18096595D01*
X16916666Y-18096595D02*
X16916666Y-18191833D01*
X16916666Y-18191833D02*
X16869047Y-18334690D01*
X16869047Y-18334690D02*
X16297619Y-18906119D01*
X16297619Y-18906119D02*
X16916666Y-18906119D01*
D11*
X25157142Y-46359580D02*
X25109523Y-46407200D01*
X25109523Y-46407200D02*
X24966666Y-46454819D01*
X24966666Y-46454819D02*
X24871428Y-46454819D01*
X24871428Y-46454819D02*
X24728571Y-46407200D01*
X24728571Y-46407200D02*
X24633333Y-46311961D01*
X24633333Y-46311961D02*
X24585714Y-46216723D01*
X24585714Y-46216723D02*
X24538095Y-46026247D01*
X24538095Y-46026247D02*
X24538095Y-45883390D01*
X24538095Y-45883390D02*
X24585714Y-45692914D01*
X24585714Y-45692914D02*
X24633333Y-45597676D01*
X24633333Y-45597676D02*
X24728571Y-45502438D01*
X24728571Y-45502438D02*
X24871428Y-45454819D01*
X24871428Y-45454819D02*
X24966666Y-45454819D01*
X24966666Y-45454819D02*
X25109523Y-45502438D01*
X25109523Y-45502438D02*
X25157142Y-45550057D01*
X26109523Y-46454819D02*
X25538095Y-46454819D01*
X25823809Y-46454819D02*
X25823809Y-45454819D01*
X25823809Y-45454819D02*
X25728571Y-45597676D01*
X25728571Y-45597676D02*
X25633333Y-45692914D01*
X25633333Y-45692914D02*
X25538095Y-45740533D01*
X26728571Y-45454819D02*
X26823809Y-45454819D01*
X26823809Y-45454819D02*
X26919047Y-45502438D01*
X26919047Y-45502438D02*
X26966666Y-45550057D01*
X26966666Y-45550057D02*
X27014285Y-45645295D01*
X27014285Y-45645295D02*
X27061904Y-45835771D01*
X27061904Y-45835771D02*
X27061904Y-46073866D01*
X27061904Y-46073866D02*
X27014285Y-46264342D01*
X27014285Y-46264342D02*
X26966666Y-46359580D01*
X26966666Y-46359580D02*
X26919047Y-46407200D01*
X26919047Y-46407200D02*
X26823809Y-46454819D01*
X26823809Y-46454819D02*
X26728571Y-46454819D01*
X26728571Y-46454819D02*
X26633333Y-46407200D01*
X26633333Y-46407200D02*
X26585714Y-46359580D01*
X26585714Y-46359580D02*
X26538095Y-46264342D01*
X26538095Y-46264342D02*
X26490476Y-46073866D01*
X26490476Y-46073866D02*
X26490476Y-45835771D01*
X26490476Y-45835771D02*
X26538095Y-45645295D01*
X26538095Y-45645295D02*
X26585714Y-45550057D01*
X26585714Y-45550057D02*
X26633333Y-45502438D01*
X26633333Y-45502438D02*
X26728571Y-45454819D01*
X44157142Y-22359580D02*
X44109523Y-22407200D01*
X44109523Y-22407200D02*
X43966666Y-22454819D01*
X43966666Y-22454819D02*
X43871428Y-22454819D01*
X43871428Y-22454819D02*
X43728571Y-22407200D01*
X43728571Y-22407200D02*
X43633333Y-22311961D01*
X43633333Y-22311961D02*
X43585714Y-22216723D01*
X43585714Y-22216723D02*
X43538095Y-22026247D01*
X43538095Y-22026247D02*
X43538095Y-21883390D01*
X43538095Y-21883390D02*
X43585714Y-21692914D01*
X43585714Y-21692914D02*
X43633333Y-21597676D01*
X43633333Y-21597676D02*
X43728571Y-21502438D01*
X43728571Y-21502438D02*
X43871428Y-21454819D01*
X43871428Y-21454819D02*
X43966666Y-21454819D01*
X43966666Y-21454819D02*
X44109523Y-21502438D01*
X44109523Y-21502438D02*
X44157142Y-21550057D01*
X45109523Y-22454819D02*
X44538095Y-22454819D01*
X44823809Y-22454819D02*
X44823809Y-21454819D01*
X44823809Y-21454819D02*
X44728571Y-21597676D01*
X44728571Y-21597676D02*
X44633333Y-21692914D01*
X44633333Y-21692914D02*
X44538095Y-21740533D01*
X45490476Y-21550057D02*
X45538095Y-21502438D01*
X45538095Y-21502438D02*
X45633333Y-21454819D01*
X45633333Y-21454819D02*
X45871428Y-21454819D01*
X45871428Y-21454819D02*
X45966666Y-21502438D01*
X45966666Y-21502438D02*
X46014285Y-21550057D01*
X46014285Y-21550057D02*
X46061904Y-21645295D01*
X46061904Y-21645295D02*
X46061904Y-21740533D01*
X46061904Y-21740533D02*
X46014285Y-21883390D01*
X46014285Y-21883390D02*
X45442857Y-22454819D01*
X45442857Y-22454819D02*
X46061904Y-22454819D01*
D10*
X72440476Y-41906119D02*
X72440476Y-42620404D01*
X72440476Y-42620404D02*
X72392857Y-42763261D01*
X72392857Y-42763261D02*
X72297619Y-42858500D01*
X72297619Y-42858500D02*
X72154762Y-42906119D01*
X72154762Y-42906119D02*
X72059524Y-42906119D01*
X73440476Y-42906119D02*
X72869048Y-42906119D01*
X73154762Y-42906119D02*
X73154762Y-41906119D01*
X73154762Y-41906119D02*
X73059524Y-42048976D01*
X73059524Y-42048976D02*
X72964286Y-42144214D01*
X72964286Y-42144214D02*
X72869048Y-42191833D01*
X74297619Y-41906119D02*
X74107143Y-41906119D01*
X74107143Y-41906119D02*
X74011905Y-41953738D01*
X74011905Y-41953738D02*
X73964286Y-42001357D01*
X73964286Y-42001357D02*
X73869048Y-42144214D01*
X73869048Y-42144214D02*
X73821429Y-42334690D01*
X73821429Y-42334690D02*
X73821429Y-42715642D01*
X73821429Y-42715642D02*
X73869048Y-42810880D01*
X73869048Y-42810880D02*
X73916667Y-42858500D01*
X73916667Y-42858500D02*
X74011905Y-42906119D01*
X74011905Y-42906119D02*
X74202381Y-42906119D01*
X74202381Y-42906119D02*
X74297619Y-42858500D01*
X74297619Y-42858500D02*
X74345238Y-42810880D01*
X74345238Y-42810880D02*
X74392857Y-42715642D01*
X74392857Y-42715642D02*
X74392857Y-42477547D01*
X74392857Y-42477547D02*
X74345238Y-42382309D01*
X74345238Y-42382309D02*
X74297619Y-42334690D01*
X74297619Y-42334690D02*
X74202381Y-42287071D01*
X74202381Y-42287071D02*
X74011905Y-42287071D01*
X74011905Y-42287071D02*
X73916667Y-42334690D01*
X73916667Y-42334690D02*
X73869048Y-42382309D01*
X73869048Y-42382309D02*
X73821429Y-42477547D01*
X34916666Y-29906119D02*
X34916666Y-30620404D01*
X34916666Y-30620404D02*
X34869047Y-30763261D01*
X34869047Y-30763261D02*
X34773809Y-30858500D01*
X34773809Y-30858500D02*
X34630952Y-30906119D01*
X34630952Y-30906119D02*
X34535714Y-30906119D01*
X35297619Y-29906119D02*
X35964285Y-29906119D01*
X35964285Y-29906119D02*
X35535714Y-30906119D01*
X57738095Y-78456119D02*
X57738095Y-79265642D01*
X57738095Y-79265642D02*
X57785714Y-79360880D01*
X57785714Y-79360880D02*
X57833333Y-79408500D01*
X57833333Y-79408500D02*
X57928571Y-79456119D01*
X57928571Y-79456119D02*
X58119047Y-79456119D01*
X58119047Y-79456119D02*
X58214285Y-79408500D01*
X58214285Y-79408500D02*
X58261904Y-79360880D01*
X58261904Y-79360880D02*
X58309523Y-79265642D01*
X58309523Y-79265642D02*
X58309523Y-78456119D01*
X59309523Y-79456119D02*
X58738095Y-79456119D01*
X59023809Y-79456119D02*
X59023809Y-78456119D01*
X59023809Y-78456119D02*
X58928571Y-78598976D01*
X58928571Y-78598976D02*
X58833333Y-78694214D01*
X58833333Y-78694214D02*
X58738095Y-78741833D01*
D11*
X44157142Y-10359580D02*
X44109523Y-10407200D01*
X44109523Y-10407200D02*
X43966666Y-10454819D01*
X43966666Y-10454819D02*
X43871428Y-10454819D01*
X43871428Y-10454819D02*
X43728571Y-10407200D01*
X43728571Y-10407200D02*
X43633333Y-10311961D01*
X43633333Y-10311961D02*
X43585714Y-10216723D01*
X43585714Y-10216723D02*
X43538095Y-10026247D01*
X43538095Y-10026247D02*
X43538095Y-9883390D01*
X43538095Y-9883390D02*
X43585714Y-9692914D01*
X43585714Y-9692914D02*
X43633333Y-9597676D01*
X43633333Y-9597676D02*
X43728571Y-9502438D01*
X43728571Y-9502438D02*
X43871428Y-9454819D01*
X43871428Y-9454819D02*
X43966666Y-9454819D01*
X43966666Y-9454819D02*
X44109523Y-9502438D01*
X44109523Y-9502438D02*
X44157142Y-9550057D01*
X45109523Y-10454819D02*
X44538095Y-10454819D01*
X44823809Y-10454819D02*
X44823809Y-9454819D01*
X44823809Y-9454819D02*
X44728571Y-9597676D01*
X44728571Y-9597676D02*
X44633333Y-9692914D01*
X44633333Y-9692914D02*
X44538095Y-9740533D01*
X46061904Y-10454819D02*
X45490476Y-10454819D01*
X45776190Y-10454819D02*
X45776190Y-9454819D01*
X45776190Y-9454819D02*
X45680952Y-9597676D01*
X45680952Y-9597676D02*
X45585714Y-9692914D01*
X45585714Y-9692914D02*
X45490476Y-9740533D01*
X63157142Y-46359580D02*
X63109523Y-46407200D01*
X63109523Y-46407200D02*
X62966666Y-46454819D01*
X62966666Y-46454819D02*
X62871428Y-46454819D01*
X62871428Y-46454819D02*
X62728571Y-46407200D01*
X62728571Y-46407200D02*
X62633333Y-46311961D01*
X62633333Y-46311961D02*
X62585714Y-46216723D01*
X62585714Y-46216723D02*
X62538095Y-46026247D01*
X62538095Y-46026247D02*
X62538095Y-45883390D01*
X62538095Y-45883390D02*
X62585714Y-45692914D01*
X62585714Y-45692914D02*
X62633333Y-45597676D01*
X62633333Y-45597676D02*
X62728571Y-45502438D01*
X62728571Y-45502438D02*
X62871428Y-45454819D01*
X62871428Y-45454819D02*
X62966666Y-45454819D01*
X62966666Y-45454819D02*
X63109523Y-45502438D01*
X63109523Y-45502438D02*
X63157142Y-45550057D01*
X64109523Y-46454819D02*
X63538095Y-46454819D01*
X63823809Y-46454819D02*
X63823809Y-45454819D01*
X63823809Y-45454819D02*
X63728571Y-45597676D01*
X63728571Y-45597676D02*
X63633333Y-45692914D01*
X63633333Y-45692914D02*
X63538095Y-45740533D01*
X64680952Y-45883390D02*
X64585714Y-45835771D01*
X64585714Y-45835771D02*
X64538095Y-45788152D01*
X64538095Y-45788152D02*
X64490476Y-45692914D01*
X64490476Y-45692914D02*
X64490476Y-45645295D01*
X64490476Y-45645295D02*
X64538095Y-45550057D01*
X64538095Y-45550057D02*
X64585714Y-45502438D01*
X64585714Y-45502438D02*
X64680952Y-45454819D01*
X64680952Y-45454819D02*
X64871428Y-45454819D01*
X64871428Y-45454819D02*
X64966666Y-45502438D01*
X64966666Y-45502438D02*
X65014285Y-45550057D01*
X65014285Y-45550057D02*
X65061904Y-45645295D01*
X65061904Y-45645295D02*
X65061904Y-45692914D01*
X65061904Y-45692914D02*
X65014285Y-45788152D01*
X65014285Y-45788152D02*
X64966666Y-45835771D01*
X64966666Y-45835771D02*
X64871428Y-45883390D01*
X64871428Y-45883390D02*
X64680952Y-45883390D01*
X64680952Y-45883390D02*
X64585714Y-45931009D01*
X64585714Y-45931009D02*
X64538095Y-45978628D01*
X64538095Y-45978628D02*
X64490476Y-46073866D01*
X64490476Y-46073866D02*
X64490476Y-46264342D01*
X64490476Y-46264342D02*
X64538095Y-46359580D01*
X64538095Y-46359580D02*
X64585714Y-46407200D01*
X64585714Y-46407200D02*
X64680952Y-46454819D01*
X64680952Y-46454819D02*
X64871428Y-46454819D01*
X64871428Y-46454819D02*
X64966666Y-46407200D01*
X64966666Y-46407200D02*
X65014285Y-46359580D01*
X65014285Y-46359580D02*
X65061904Y-46264342D01*
X65061904Y-46264342D02*
X65061904Y-46073866D01*
X65061904Y-46073866D02*
X65014285Y-45978628D01*
X65014285Y-45978628D02*
X64966666Y-45931009D01*
X64966666Y-45931009D02*
X64871428Y-45883390D01*
X6633333Y-34359580D02*
X6585714Y-34407200D01*
X6585714Y-34407200D02*
X6442857Y-34454819D01*
X6442857Y-34454819D02*
X6347619Y-34454819D01*
X6347619Y-34454819D02*
X6204762Y-34407200D01*
X6204762Y-34407200D02*
X6109524Y-34311961D01*
X6109524Y-34311961D02*
X6061905Y-34216723D01*
X6061905Y-34216723D02*
X6014286Y-34026247D01*
X6014286Y-34026247D02*
X6014286Y-33883390D01*
X6014286Y-33883390D02*
X6061905Y-33692914D01*
X6061905Y-33692914D02*
X6109524Y-33597676D01*
X6109524Y-33597676D02*
X6204762Y-33502438D01*
X6204762Y-33502438D02*
X6347619Y-33454819D01*
X6347619Y-33454819D02*
X6442857Y-33454819D01*
X6442857Y-33454819D02*
X6585714Y-33502438D01*
X6585714Y-33502438D02*
X6633333Y-33550057D01*
X7538095Y-33454819D02*
X7061905Y-33454819D01*
X7061905Y-33454819D02*
X7014286Y-33931009D01*
X7014286Y-33931009D02*
X7061905Y-33883390D01*
X7061905Y-33883390D02*
X7157143Y-33835771D01*
X7157143Y-33835771D02*
X7395238Y-33835771D01*
X7395238Y-33835771D02*
X7490476Y-33883390D01*
X7490476Y-33883390D02*
X7538095Y-33931009D01*
X7538095Y-33931009D02*
X7585714Y-34026247D01*
X7585714Y-34026247D02*
X7585714Y-34264342D01*
X7585714Y-34264342D02*
X7538095Y-34359580D01*
X7538095Y-34359580D02*
X7490476Y-34407200D01*
X7490476Y-34407200D02*
X7395238Y-34454819D01*
X7395238Y-34454819D02*
X7157143Y-34454819D01*
X7157143Y-34454819D02*
X7061905Y-34407200D01*
X7061905Y-34407200D02*
X7014286Y-34359580D01*
D10*
X3738095Y-84656119D02*
X3738095Y-83656119D01*
X3738095Y-84132309D02*
X4309523Y-84132309D01*
X4309523Y-84656119D02*
X4309523Y-83656119D01*
X4690476Y-83656119D02*
X5309523Y-83656119D01*
X5309523Y-83656119D02*
X4976190Y-84037071D01*
X4976190Y-84037071D02*
X5119047Y-84037071D01*
X5119047Y-84037071D02*
X5214285Y-84084690D01*
X5214285Y-84084690D02*
X5261904Y-84132309D01*
X5261904Y-84132309D02*
X5309523Y-84227547D01*
X5309523Y-84227547D02*
X5309523Y-84465642D01*
X5309523Y-84465642D02*
X5261904Y-84560880D01*
X5261904Y-84560880D02*
X5214285Y-84608500D01*
X5214285Y-84608500D02*
X5119047Y-84656119D01*
X5119047Y-84656119D02*
X4833333Y-84656119D01*
X4833333Y-84656119D02*
X4738095Y-84608500D01*
X4738095Y-84608500D02*
X4690476Y-84560880D01*
X53440476Y-41906119D02*
X53440476Y-42620404D01*
X53440476Y-42620404D02*
X53392857Y-42763261D01*
X53392857Y-42763261D02*
X53297619Y-42858500D01*
X53297619Y-42858500D02*
X53154762Y-42906119D01*
X53154762Y-42906119D02*
X53059524Y-42906119D01*
X54440476Y-42906119D02*
X53869048Y-42906119D01*
X54154762Y-42906119D02*
X54154762Y-41906119D01*
X54154762Y-41906119D02*
X54059524Y-42048976D01*
X54059524Y-42048976D02*
X53964286Y-42144214D01*
X53964286Y-42144214D02*
X53869048Y-42191833D01*
X54821429Y-42001357D02*
X54869048Y-41953738D01*
X54869048Y-41953738D02*
X54964286Y-41906119D01*
X54964286Y-41906119D02*
X55202381Y-41906119D01*
X55202381Y-41906119D02*
X55297619Y-41953738D01*
X55297619Y-41953738D02*
X55345238Y-42001357D01*
X55345238Y-42001357D02*
X55392857Y-42096595D01*
X55392857Y-42096595D02*
X55392857Y-42191833D01*
X55392857Y-42191833D02*
X55345238Y-42334690D01*
X55345238Y-42334690D02*
X54773810Y-42906119D01*
X54773810Y-42906119D02*
X55392857Y-42906119D01*
X72440476Y-17906119D02*
X72440476Y-18620404D01*
X72440476Y-18620404D02*
X72392857Y-18763261D01*
X72392857Y-18763261D02*
X72297619Y-18858500D01*
X72297619Y-18858500D02*
X72154762Y-18906119D01*
X72154762Y-18906119D02*
X72059524Y-18906119D01*
X73440476Y-18906119D02*
X72869048Y-18906119D01*
X73154762Y-18906119D02*
X73154762Y-17906119D01*
X73154762Y-17906119D02*
X73059524Y-18048976D01*
X73059524Y-18048976D02*
X72964286Y-18144214D01*
X72964286Y-18144214D02*
X72869048Y-18191833D01*
X74297619Y-18239452D02*
X74297619Y-18906119D01*
X74059524Y-17858500D02*
X73821429Y-18572785D01*
X73821429Y-18572785D02*
X74440476Y-18572785D01*
X15916666Y-5906119D02*
X15916666Y-6620404D01*
X15916666Y-6620404D02*
X15869047Y-6763261D01*
X15869047Y-6763261D02*
X15773809Y-6858500D01*
X15773809Y-6858500D02*
X15630952Y-6906119D01*
X15630952Y-6906119D02*
X15535714Y-6906119D01*
X16916666Y-6906119D02*
X16345238Y-6906119D01*
X16630952Y-6906119D02*
X16630952Y-5906119D01*
X16630952Y-5906119D02*
X16535714Y-6048976D01*
X16535714Y-6048976D02*
X16440476Y-6144214D01*
X16440476Y-6144214D02*
X16345238Y-6191833D01*
X84738095Y-84656119D02*
X84738095Y-83656119D01*
X84738095Y-84132309D02*
X85309523Y-84132309D01*
X85309523Y-84656119D02*
X85309523Y-83656119D01*
X86214285Y-83989452D02*
X86214285Y-84656119D01*
X85976190Y-83608500D02*
X85738095Y-84322785D01*
X85738095Y-84322785D02*
X86357142Y-84322785D01*
D11*
X63157142Y-22359580D02*
X63109523Y-22407200D01*
X63109523Y-22407200D02*
X62966666Y-22454819D01*
X62966666Y-22454819D02*
X62871428Y-22454819D01*
X62871428Y-22454819D02*
X62728571Y-22407200D01*
X62728571Y-22407200D02*
X62633333Y-22311961D01*
X62633333Y-22311961D02*
X62585714Y-22216723D01*
X62585714Y-22216723D02*
X62538095Y-22026247D01*
X62538095Y-22026247D02*
X62538095Y-21883390D01*
X62538095Y-21883390D02*
X62585714Y-21692914D01*
X62585714Y-21692914D02*
X62633333Y-21597676D01*
X62633333Y-21597676D02*
X62728571Y-21502438D01*
X62728571Y-21502438D02*
X62871428Y-21454819D01*
X62871428Y-21454819D02*
X62966666Y-21454819D01*
X62966666Y-21454819D02*
X63109523Y-21502438D01*
X63109523Y-21502438D02*
X63157142Y-21550057D01*
X64109523Y-22454819D02*
X63538095Y-22454819D01*
X63823809Y-22454819D02*
X63823809Y-21454819D01*
X63823809Y-21454819D02*
X63728571Y-21597676D01*
X63728571Y-21597676D02*
X63633333Y-21692914D01*
X63633333Y-21692914D02*
X63538095Y-21740533D01*
X64966666Y-21454819D02*
X64776190Y-21454819D01*
X64776190Y-21454819D02*
X64680952Y-21502438D01*
X64680952Y-21502438D02*
X64633333Y-21550057D01*
X64633333Y-21550057D02*
X64538095Y-21692914D01*
X64538095Y-21692914D02*
X64490476Y-21883390D01*
X64490476Y-21883390D02*
X64490476Y-22264342D01*
X64490476Y-22264342D02*
X64538095Y-22359580D01*
X64538095Y-22359580D02*
X64585714Y-22407200D01*
X64585714Y-22407200D02*
X64680952Y-22454819D01*
X64680952Y-22454819D02*
X64871428Y-22454819D01*
X64871428Y-22454819D02*
X64966666Y-22407200D01*
X64966666Y-22407200D02*
X65014285Y-22359580D01*
X65014285Y-22359580D02*
X65061904Y-22264342D01*
X65061904Y-22264342D02*
X65061904Y-22026247D01*
X65061904Y-22026247D02*
X65014285Y-21931009D01*
X65014285Y-21931009D02*
X64966666Y-21883390D01*
X64966666Y-21883390D02*
X64871428Y-21835771D01*
X64871428Y-21835771D02*
X64680952Y-21835771D01*
X64680952Y-21835771D02*
X64585714Y-21883390D01*
X64585714Y-21883390D02*
X64538095Y-21931009D01*
X64538095Y-21931009D02*
X64490476Y-22026247D01*
X50653333Y-57859580D02*
X50605714Y-57907200D01*
X50605714Y-57907200D02*
X50462857Y-57954819D01*
X50462857Y-57954819D02*
X50367619Y-57954819D01*
X50367619Y-57954819D02*
X50224762Y-57907200D01*
X50224762Y-57907200D02*
X50129524Y-57811961D01*
X50129524Y-57811961D02*
X50081905Y-57716723D01*
X50081905Y-57716723D02*
X50034286Y-57526247D01*
X50034286Y-57526247D02*
X50034286Y-57383390D01*
X50034286Y-57383390D02*
X50081905Y-57192914D01*
X50081905Y-57192914D02*
X50129524Y-57097676D01*
X50129524Y-57097676D02*
X50224762Y-57002438D01*
X50224762Y-57002438D02*
X50367619Y-56954819D01*
X50367619Y-56954819D02*
X50462857Y-56954819D01*
X50462857Y-56954819D02*
X50605714Y-57002438D01*
X50605714Y-57002438D02*
X50653333Y-57050057D01*
X51605714Y-57954819D02*
X51034286Y-57954819D01*
X51320000Y-57954819D02*
X51320000Y-56954819D01*
X51320000Y-56954819D02*
X51224762Y-57097676D01*
X51224762Y-57097676D02*
X51129524Y-57192914D01*
X51129524Y-57192914D02*
X51034286Y-57240533D01*
D10*
X53916666Y-5906119D02*
X53916666Y-6620404D01*
X53916666Y-6620404D02*
X53869047Y-6763261D01*
X53869047Y-6763261D02*
X53773809Y-6858500D01*
X53773809Y-6858500D02*
X53630952Y-6906119D01*
X53630952Y-6906119D02*
X53535714Y-6906119D01*
X54440476Y-6906119D02*
X54630952Y-6906119D01*
X54630952Y-6906119D02*
X54726190Y-6858500D01*
X54726190Y-6858500D02*
X54773809Y-6810880D01*
X54773809Y-6810880D02*
X54869047Y-6668023D01*
X54869047Y-6668023D02*
X54916666Y-6477547D01*
X54916666Y-6477547D02*
X54916666Y-6096595D01*
X54916666Y-6096595D02*
X54869047Y-6001357D01*
X54869047Y-6001357D02*
X54821428Y-5953738D01*
X54821428Y-5953738D02*
X54726190Y-5906119D01*
X54726190Y-5906119D02*
X54535714Y-5906119D01*
X54535714Y-5906119D02*
X54440476Y-5953738D01*
X54440476Y-5953738D02*
X54392857Y-6001357D01*
X54392857Y-6001357D02*
X54345238Y-6096595D01*
X54345238Y-6096595D02*
X54345238Y-6334690D01*
X54345238Y-6334690D02*
X54392857Y-6429928D01*
X54392857Y-6429928D02*
X54440476Y-6477547D01*
X54440476Y-6477547D02*
X54535714Y-6525166D01*
X54535714Y-6525166D02*
X54726190Y-6525166D01*
X54726190Y-6525166D02*
X54821428Y-6477547D01*
X54821428Y-6477547D02*
X54869047Y-6429928D01*
X54869047Y-6429928D02*
X54916666Y-6334690D01*
X15916666Y-41906119D02*
X15916666Y-42620404D01*
X15916666Y-42620404D02*
X15869047Y-42763261D01*
X15869047Y-42763261D02*
X15773809Y-42858500D01*
X15773809Y-42858500D02*
X15630952Y-42906119D01*
X15630952Y-42906119D02*
X15535714Y-42906119D01*
X16821428Y-42239452D02*
X16821428Y-42906119D01*
X16583333Y-41858500D02*
X16345238Y-42572785D01*
X16345238Y-42572785D02*
X16964285Y-42572785D01*
D11*
X6633333Y-22359580D02*
X6585714Y-22407200D01*
X6585714Y-22407200D02*
X6442857Y-22454819D01*
X6442857Y-22454819D02*
X6347619Y-22454819D01*
X6347619Y-22454819D02*
X6204762Y-22407200D01*
X6204762Y-22407200D02*
X6109524Y-22311961D01*
X6109524Y-22311961D02*
X6061905Y-22216723D01*
X6061905Y-22216723D02*
X6014286Y-22026247D01*
X6014286Y-22026247D02*
X6014286Y-21883390D01*
X6014286Y-21883390D02*
X6061905Y-21692914D01*
X6061905Y-21692914D02*
X6109524Y-21597676D01*
X6109524Y-21597676D02*
X6204762Y-21502438D01*
X6204762Y-21502438D02*
X6347619Y-21454819D01*
X6347619Y-21454819D02*
X6442857Y-21454819D01*
X6442857Y-21454819D02*
X6585714Y-21502438D01*
X6585714Y-21502438D02*
X6633333Y-21550057D01*
X7490476Y-21788152D02*
X7490476Y-22454819D01*
X7252381Y-21407200D02*
X7014286Y-22121485D01*
X7014286Y-22121485D02*
X7633333Y-22121485D01*
D10*
X15916666Y-29906119D02*
X15916666Y-30620404D01*
X15916666Y-30620404D02*
X15869047Y-30763261D01*
X15869047Y-30763261D02*
X15773809Y-30858500D01*
X15773809Y-30858500D02*
X15630952Y-30906119D01*
X15630952Y-30906119D02*
X15535714Y-30906119D01*
X16297619Y-29906119D02*
X16916666Y-29906119D01*
X16916666Y-29906119D02*
X16583333Y-30287071D01*
X16583333Y-30287071D02*
X16726190Y-30287071D01*
X16726190Y-30287071D02*
X16821428Y-30334690D01*
X16821428Y-30334690D02*
X16869047Y-30382309D01*
X16869047Y-30382309D02*
X16916666Y-30477547D01*
X16916666Y-30477547D02*
X16916666Y-30715642D01*
X16916666Y-30715642D02*
X16869047Y-30810880D01*
X16869047Y-30810880D02*
X16821428Y-30858500D01*
X16821428Y-30858500D02*
X16726190Y-30906119D01*
X16726190Y-30906119D02*
X16440476Y-30906119D01*
X16440476Y-30906119D02*
X16345238Y-30858500D01*
X16345238Y-30858500D02*
X16297619Y-30810880D01*
D11*
X25633333Y-34359580D02*
X25585714Y-34407200D01*
X25585714Y-34407200D02*
X25442857Y-34454819D01*
X25442857Y-34454819D02*
X25347619Y-34454819D01*
X25347619Y-34454819D02*
X25204762Y-34407200D01*
X25204762Y-34407200D02*
X25109524Y-34311961D01*
X25109524Y-34311961D02*
X25061905Y-34216723D01*
X25061905Y-34216723D02*
X25014286Y-34026247D01*
X25014286Y-34026247D02*
X25014286Y-33883390D01*
X25014286Y-33883390D02*
X25061905Y-33692914D01*
X25061905Y-33692914D02*
X25109524Y-33597676D01*
X25109524Y-33597676D02*
X25204762Y-33502438D01*
X25204762Y-33502438D02*
X25347619Y-33454819D01*
X25347619Y-33454819D02*
X25442857Y-33454819D01*
X25442857Y-33454819D02*
X25585714Y-33502438D01*
X25585714Y-33502438D02*
X25633333Y-33550057D01*
X26109524Y-34454819D02*
X26300000Y-34454819D01*
X26300000Y-34454819D02*
X26395238Y-34407200D01*
X26395238Y-34407200D02*
X26442857Y-34359580D01*
X26442857Y-34359580D02*
X26538095Y-34216723D01*
X26538095Y-34216723D02*
X26585714Y-34026247D01*
X26585714Y-34026247D02*
X26585714Y-33645295D01*
X26585714Y-33645295D02*
X26538095Y-33550057D01*
X26538095Y-33550057D02*
X26490476Y-33502438D01*
X26490476Y-33502438D02*
X26395238Y-33454819D01*
X26395238Y-33454819D02*
X26204762Y-33454819D01*
X26204762Y-33454819D02*
X26109524Y-33502438D01*
X26109524Y-33502438D02*
X26061905Y-33550057D01*
X26061905Y-33550057D02*
X26014286Y-33645295D01*
X26014286Y-33645295D02*
X26014286Y-33883390D01*
X26014286Y-33883390D02*
X26061905Y-33978628D01*
X26061905Y-33978628D02*
X26109524Y-34026247D01*
X26109524Y-34026247D02*
X26204762Y-34073866D01*
X26204762Y-34073866D02*
X26395238Y-34073866D01*
X26395238Y-34073866D02*
X26490476Y-34026247D01*
X26490476Y-34026247D02*
X26538095Y-33978628D01*
X26538095Y-33978628D02*
X26585714Y-33883390D01*
X44157142Y-46359580D02*
X44109523Y-46407200D01*
X44109523Y-46407200D02*
X43966666Y-46454819D01*
X43966666Y-46454819D02*
X43871428Y-46454819D01*
X43871428Y-46454819D02*
X43728571Y-46407200D01*
X43728571Y-46407200D02*
X43633333Y-46311961D01*
X43633333Y-46311961D02*
X43585714Y-46216723D01*
X43585714Y-46216723D02*
X43538095Y-46026247D01*
X43538095Y-46026247D02*
X43538095Y-45883390D01*
X43538095Y-45883390D02*
X43585714Y-45692914D01*
X43585714Y-45692914D02*
X43633333Y-45597676D01*
X43633333Y-45597676D02*
X43728571Y-45502438D01*
X43728571Y-45502438D02*
X43871428Y-45454819D01*
X43871428Y-45454819D02*
X43966666Y-45454819D01*
X43966666Y-45454819D02*
X44109523Y-45502438D01*
X44109523Y-45502438D02*
X44157142Y-45550057D01*
X45109523Y-46454819D02*
X44538095Y-46454819D01*
X44823809Y-46454819D02*
X44823809Y-45454819D01*
X44823809Y-45454819D02*
X44728571Y-45597676D01*
X44728571Y-45597676D02*
X44633333Y-45692914D01*
X44633333Y-45692914D02*
X44538095Y-45740533D01*
X45966666Y-45788152D02*
X45966666Y-46454819D01*
X45728571Y-45407200D02*
X45490476Y-46121485D01*
X45490476Y-46121485D02*
X46109523Y-46121485D01*
X63157142Y-10359580D02*
X63109523Y-10407200D01*
X63109523Y-10407200D02*
X62966666Y-10454819D01*
X62966666Y-10454819D02*
X62871428Y-10454819D01*
X62871428Y-10454819D02*
X62728571Y-10407200D01*
X62728571Y-10407200D02*
X62633333Y-10311961D01*
X62633333Y-10311961D02*
X62585714Y-10216723D01*
X62585714Y-10216723D02*
X62538095Y-10026247D01*
X62538095Y-10026247D02*
X62538095Y-9883390D01*
X62538095Y-9883390D02*
X62585714Y-9692914D01*
X62585714Y-9692914D02*
X62633333Y-9597676D01*
X62633333Y-9597676D02*
X62728571Y-9502438D01*
X62728571Y-9502438D02*
X62871428Y-9454819D01*
X62871428Y-9454819D02*
X62966666Y-9454819D01*
X62966666Y-9454819D02*
X63109523Y-9502438D01*
X63109523Y-9502438D02*
X63157142Y-9550057D01*
X64109523Y-10454819D02*
X63538095Y-10454819D01*
X63823809Y-10454819D02*
X63823809Y-9454819D01*
X63823809Y-9454819D02*
X63728571Y-9597676D01*
X63728571Y-9597676D02*
X63633333Y-9692914D01*
X63633333Y-9692914D02*
X63538095Y-9740533D01*
X65014285Y-9454819D02*
X64538095Y-9454819D01*
X64538095Y-9454819D02*
X64490476Y-9931009D01*
X64490476Y-9931009D02*
X64538095Y-9883390D01*
X64538095Y-9883390D02*
X64633333Y-9835771D01*
X64633333Y-9835771D02*
X64871428Y-9835771D01*
X64871428Y-9835771D02*
X64966666Y-9883390D01*
X64966666Y-9883390D02*
X65014285Y-9931009D01*
X65014285Y-9931009D02*
X65061904Y-10026247D01*
X65061904Y-10026247D02*
X65061904Y-10264342D01*
X65061904Y-10264342D02*
X65014285Y-10359580D01*
X65014285Y-10359580D02*
X64966666Y-10407200D01*
X64966666Y-10407200D02*
X64871428Y-10454819D01*
X64871428Y-10454819D02*
X64633333Y-10454819D01*
X64633333Y-10454819D02*
X64538095Y-10407200D01*
X64538095Y-10407200D02*
X64490476Y-10359580D01*
D10*
X34916666Y-17906119D02*
X34916666Y-18620404D01*
X34916666Y-18620404D02*
X34869047Y-18763261D01*
X34869047Y-18763261D02*
X34773809Y-18858500D01*
X34773809Y-18858500D02*
X34630952Y-18906119D01*
X34630952Y-18906119D02*
X34535714Y-18906119D01*
X35821428Y-17906119D02*
X35630952Y-17906119D01*
X35630952Y-17906119D02*
X35535714Y-17953738D01*
X35535714Y-17953738D02*
X35488095Y-18001357D01*
X35488095Y-18001357D02*
X35392857Y-18144214D01*
X35392857Y-18144214D02*
X35345238Y-18334690D01*
X35345238Y-18334690D02*
X35345238Y-18715642D01*
X35345238Y-18715642D02*
X35392857Y-18810880D01*
X35392857Y-18810880D02*
X35440476Y-18858500D01*
X35440476Y-18858500D02*
X35535714Y-18906119D01*
X35535714Y-18906119D02*
X35726190Y-18906119D01*
X35726190Y-18906119D02*
X35821428Y-18858500D01*
X35821428Y-18858500D02*
X35869047Y-18810880D01*
X35869047Y-18810880D02*
X35916666Y-18715642D01*
X35916666Y-18715642D02*
X35916666Y-18477547D01*
X35916666Y-18477547D02*
X35869047Y-18382309D01*
X35869047Y-18382309D02*
X35821428Y-18334690D01*
X35821428Y-18334690D02*
X35726190Y-18287071D01*
X35726190Y-18287071D02*
X35535714Y-18287071D01*
X35535714Y-18287071D02*
X35440476Y-18334690D01*
X35440476Y-18334690D02*
X35392857Y-18382309D01*
X35392857Y-18382309D02*
X35345238Y-18477547D01*
%TO.C,C2*%
D12*
X31738748Y-72765000D02*
X32261252Y-72765000D01*
X31738748Y-74235000D02*
X32261252Y-74235000D01*
%TO.C,C3*%
X8265000Y-9738748D02*
X8265000Y-10261252D01*
X9735000Y-9738748D02*
X9735000Y-10261252D01*
%TO.C,J13*%
X69150000Y-7250000D02*
X69150000Y-8500000D01*
X69449999Y-9800000D02*
X70199999Y-9800000D01*
X70199999Y-9800000D02*
X70199999Y-12750000D01*
X70199999Y-12750000D02*
X73250000Y-12750000D01*
X70400000Y-7250000D02*
X69150000Y-7250000D01*
X76300000Y-9800000D02*
X76300000Y-12750000D01*
X76300000Y-12750000D02*
X73250000Y-12750000D01*
X77050000Y-9800000D02*
X76300000Y-9800000D01*
X69439999Y-7540000D02*
X77059999Y-7540000D01*
X77059999Y-13510000D01*
X69439999Y-13510000D01*
X69439999Y-7540000D01*
X69449999Y-7550000D02*
X71250000Y-7550000D01*
X71250000Y-8300000D01*
X69449999Y-8300000D01*
X69449999Y-7550000D01*
X72750000Y-7550000D02*
X73750000Y-7550000D01*
X73750000Y-8300000D01*
X72750000Y-8300000D01*
X72750000Y-7550000D01*
X75250000Y-7550000D02*
X77050000Y-7550000D01*
X77050000Y-8300000D01*
X75250000Y-8300000D01*
X75250000Y-7550000D01*
%TO.C,R2*%
X58227064Y-67635000D02*
X57772936Y-67635000D01*
X58227064Y-69105000D02*
X57772936Y-69105000D01*
%TO.C,R1*%
X58227064Y-70175000D02*
X57772936Y-70175000D01*
X58227064Y-71645000D02*
X57772936Y-71645000D01*
%TO.C,U2*%
X42239999Y-50790000D02*
X47760000Y-50790000D01*
X42239999Y-50965000D02*
X42239999Y-50790000D01*
X42239999Y-59210000D02*
X42239999Y-59035000D01*
X47760000Y-50790000D02*
X47760000Y-50965000D01*
X47760000Y-59035000D02*
X47760000Y-59210000D01*
X47760000Y-59210000D02*
X42239999Y-59210000D01*
X41499999Y-50960000D02*
X41159999Y-50490000D01*
X41839999Y-50490000D01*
X41499999Y-50960000D01*
G36*
X41499999Y-50960000D02*
G01*
X41159999Y-50490000D01*
X41839999Y-50490000D01*
X41499999Y-50960000D01*
G37*
%TO.C,C8*%
X27265000Y-21738748D02*
X27265000Y-22261252D01*
X28735000Y-21738748D02*
X28735000Y-22261252D01*
%TO.C,C13*%
X46265000Y-33738748D02*
X46265000Y-34261252D01*
X47735000Y-33738748D02*
X47735000Y-34261252D01*
%TO.C,J5*%
X31150000Y-7250000D02*
X31150000Y-8500000D01*
X31449999Y-9800000D02*
X32199999Y-9800000D01*
X32199999Y-9800000D02*
X32199999Y-12750000D01*
X32199999Y-12750000D02*
X35250000Y-12750000D01*
X32400000Y-7250000D02*
X31150000Y-7250000D01*
X38300000Y-9800000D02*
X38300000Y-12750000D01*
X38300000Y-12750000D02*
X35250000Y-12750000D01*
X39050000Y-9800000D02*
X38300000Y-9800000D01*
X31439999Y-7540000D02*
X39059999Y-7540000D01*
X39059999Y-13510000D01*
X31439999Y-13510000D01*
X31439999Y-7540000D01*
X31449999Y-7550000D02*
X33250000Y-7550000D01*
X33250000Y-8300000D01*
X31449999Y-8300000D01*
X31449999Y-7550000D01*
X34750000Y-7550000D02*
X35750000Y-7550000D01*
X35750000Y-8300000D01*
X34750000Y-8300000D01*
X34750000Y-7550000D01*
X37250000Y-7550000D02*
X39050000Y-7550000D01*
X39050000Y-8300000D01*
X37250000Y-8300000D01*
X37250000Y-7550000D01*
%TO.C,J15*%
X69150000Y-31250000D02*
X69150000Y-32500000D01*
X69449999Y-33800000D02*
X70199999Y-33800000D01*
X70199999Y-33800000D02*
X70199999Y-36750000D01*
X70199999Y-36750000D02*
X73250000Y-36750000D01*
X70400000Y-31250000D02*
X69150000Y-31250000D01*
X76300000Y-33800000D02*
X76300000Y-36750000D01*
X76300000Y-36750000D02*
X73250000Y-36750000D01*
X77050000Y-33800000D02*
X76300000Y-33800000D01*
X69439999Y-31540000D02*
X77059999Y-31540000D01*
X77059999Y-37510000D01*
X69439999Y-37510000D01*
X69439999Y-31540000D01*
X69449999Y-31550000D02*
X71250000Y-31550000D01*
X71250000Y-32300000D01*
X69449999Y-32300000D01*
X69449999Y-31550000D01*
X72750000Y-31550000D02*
X73750000Y-31550000D01*
X73750000Y-32300000D01*
X72750000Y-32300000D01*
X72750000Y-31550000D01*
X75250000Y-31550000D02*
X77050000Y-31550000D01*
X77050000Y-32300000D01*
X75250000Y-32300000D01*
X75250000Y-31550000D01*
%TO.C,J10*%
X50150000Y-19250000D02*
X50150000Y-20500000D01*
X50449999Y-21800000D02*
X51199999Y-21800000D01*
X51199999Y-21800000D02*
X51199999Y-24750000D01*
X51199999Y-24750000D02*
X54250000Y-24750000D01*
X51400000Y-19250000D02*
X50150000Y-19250000D01*
X57300000Y-21800000D02*
X57300000Y-24750000D01*
X57300000Y-24750000D02*
X54250000Y-24750000D01*
X58050000Y-21800000D02*
X57300000Y-21800000D01*
X50439999Y-19540000D02*
X58059999Y-19540000D01*
X58059999Y-25510000D01*
X50439999Y-25510000D01*
X50439999Y-19540000D01*
X50449999Y-19550000D02*
X52250000Y-19550000D01*
X52250000Y-20300000D01*
X50449999Y-20300000D01*
X50449999Y-19550000D01*
X53750000Y-19550000D02*
X54750000Y-19550000D01*
X54750000Y-20300000D01*
X53750000Y-20300000D01*
X53750000Y-19550000D01*
X56250000Y-19550000D02*
X58050000Y-19550000D01*
X58050000Y-20300000D01*
X56250000Y-20300000D01*
X56250000Y-19550000D01*
%TO.C,C17*%
X65265000Y-33738748D02*
X65265000Y-34261252D01*
X66735000Y-33738748D02*
X66735000Y-34261252D01*
%TO.C,R3*%
X58227064Y-75255000D02*
X57772936Y-75255000D01*
X58227064Y-76725000D02*
X57772936Y-76725000D01*
%TO.C,C6*%
X8265000Y-45738748D02*
X8265000Y-46261252D01*
X9735000Y-45738748D02*
X9735000Y-46261252D01*
%TO.C,J8*%
X31150000Y-43250000D02*
X31150000Y-44500000D01*
X31449999Y-45800000D02*
X32199999Y-45800000D01*
X32199999Y-45800000D02*
X32199999Y-48750000D01*
X32199999Y-48750000D02*
X35250000Y-48750000D01*
X32400000Y-43250000D02*
X31150000Y-43250000D01*
X38300000Y-45800000D02*
X38300000Y-48750000D01*
X38300000Y-48750000D02*
X35250000Y-48750000D01*
X39050000Y-45800000D02*
X38300000Y-45800000D01*
X31439999Y-43540000D02*
X39059999Y-43540000D01*
X39059999Y-49510000D01*
X31439999Y-49510000D01*
X31439999Y-43540000D01*
X31449999Y-43550000D02*
X33250000Y-43550000D01*
X33250000Y-44300000D01*
X31449999Y-44300000D01*
X31449999Y-43550000D01*
X34750000Y-43550000D02*
X35750000Y-43550000D01*
X35750000Y-44300000D01*
X34750000Y-44300000D01*
X34750000Y-43550000D01*
X37250000Y-43550000D02*
X39050000Y-43550000D01*
X39050000Y-44300000D01*
X37250000Y-44300000D01*
X37250000Y-43550000D01*
%TO.C,J11*%
X50150000Y-31250000D02*
X50150000Y-32500000D01*
X50449999Y-33800000D02*
X51199999Y-33800000D01*
X51199999Y-33800000D02*
X51199999Y-36750000D01*
X51199999Y-36750000D02*
X54250000Y-36750000D01*
X51400000Y-31250000D02*
X50150000Y-31250000D01*
X57300000Y-33800000D02*
X57300000Y-36750000D01*
X57300000Y-36750000D02*
X54250000Y-36750000D01*
X58050000Y-33800000D02*
X57300000Y-33800000D01*
X50439999Y-31540000D02*
X58059999Y-31540000D01*
X58059999Y-37510000D01*
X50439999Y-37510000D01*
X50439999Y-31540000D01*
X50449999Y-31550000D02*
X52250000Y-31550000D01*
X52250000Y-32300000D01*
X50449999Y-32300000D01*
X50449999Y-31550000D01*
X53750000Y-31550000D02*
X54750000Y-31550000D01*
X54750000Y-32300000D01*
X53750000Y-32300000D01*
X53750000Y-31550000D01*
X56250000Y-31550000D02*
X58050000Y-31550000D01*
X58050000Y-32300000D01*
X56250000Y-32300000D01*
X56250000Y-31550000D01*
%TO.C,C7*%
X27265000Y-9738748D02*
X27265000Y-10261252D01*
X28735000Y-9738748D02*
X28735000Y-10261252D01*
%TO.C,J2*%
X12150000Y-19250000D02*
X12150000Y-20500000D01*
X12449999Y-21800000D02*
X13199999Y-21800000D01*
X13199999Y-21800000D02*
X13199999Y-24750000D01*
X13199999Y-24750000D02*
X16250000Y-24750000D01*
X13400000Y-19250000D02*
X12150000Y-19250000D01*
X19300000Y-21800000D02*
X19300000Y-24750000D01*
X19300000Y-24750000D02*
X16250000Y-24750000D01*
X20050000Y-21800000D02*
X19300000Y-21800000D01*
X12439999Y-19540000D02*
X20059999Y-19540000D01*
X20059999Y-25510000D01*
X12439999Y-25510000D01*
X12439999Y-19540000D01*
X12449999Y-19550000D02*
X14250000Y-19550000D01*
X14250000Y-20300000D01*
X12449999Y-20300000D01*
X12449999Y-19550000D01*
X15750000Y-19550000D02*
X16750000Y-19550000D01*
X16750000Y-20300000D01*
X15750000Y-20300000D01*
X15750000Y-19550000D01*
X18250000Y-19550000D02*
X20050000Y-19550000D01*
X20050000Y-20300000D01*
X18250000Y-20300000D01*
X18250000Y-19550000D01*
%TO.C,C10*%
X27265000Y-45738748D02*
X27265000Y-46261252D01*
X28735000Y-45738748D02*
X28735000Y-46261252D01*
%TO.C,C12*%
X46265000Y-21738748D02*
X46265000Y-22261252D01*
X47735000Y-21738748D02*
X47735000Y-22261252D01*
%TO.C,J16*%
X69150000Y-43250000D02*
X69150000Y-44500000D01*
X69449999Y-45800000D02*
X70199999Y-45800000D01*
X70199999Y-45800000D02*
X70199999Y-48750000D01*
X70199999Y-48750000D02*
X73250000Y-48750000D01*
X70400000Y-43250000D02*
X69150000Y-43250000D01*
X76300000Y-45800000D02*
X76300000Y-48750000D01*
X76300000Y-48750000D02*
X73250000Y-48750000D01*
X77050000Y-45800000D02*
X76300000Y-45800000D01*
X69439999Y-43540000D02*
X77059999Y-43540000D01*
X77059999Y-49510000D01*
X69439999Y-49510000D01*
X69439999Y-43540000D01*
X69449999Y-43550000D02*
X71250000Y-43550000D01*
X71250000Y-44300000D01*
X69449999Y-44300000D01*
X69449999Y-43550000D01*
X72750000Y-43550000D02*
X73750000Y-43550000D01*
X73750000Y-44300000D01*
X72750000Y-44300000D01*
X72750000Y-43550000D01*
X75250000Y-43550000D02*
X77050000Y-43550000D01*
X77050000Y-44300000D01*
X75250000Y-44300000D01*
X75250000Y-43550000D01*
%TO.C,J7*%
X31150000Y-31250000D02*
X31150000Y-32500000D01*
X31449999Y-33800000D02*
X32199999Y-33800000D01*
X32199999Y-33800000D02*
X32199999Y-36750000D01*
X32199999Y-36750000D02*
X35250000Y-36750000D01*
X32400000Y-31250000D02*
X31150000Y-31250000D01*
X38300000Y-33800000D02*
X38300000Y-36750000D01*
X38300000Y-36750000D02*
X35250000Y-36750000D01*
X39050000Y-33800000D02*
X38300000Y-33800000D01*
X31439999Y-31540000D02*
X39059999Y-31540000D01*
X39059999Y-37510000D01*
X31439999Y-37510000D01*
X31439999Y-31540000D01*
X31449999Y-31550000D02*
X33250000Y-31550000D01*
X33250000Y-32300000D01*
X31449999Y-32300000D01*
X31449999Y-31550000D01*
X34750000Y-31550000D02*
X35750000Y-31550000D01*
X35750000Y-32300000D01*
X34750000Y-32300000D01*
X34750000Y-31550000D01*
X37250000Y-31550000D02*
X39050000Y-31550000D01*
X39050000Y-32300000D01*
X37250000Y-32300000D01*
X37250000Y-31550000D01*
%TO.C,U1*%
D13*
X36110000Y-64940999D02*
X36110000Y-82086000D01*
D14*
X38015000Y-83991000D02*
X51985000Y-83991000D01*
D13*
X38015000Y-83991000D02*
X51985000Y-83991000D01*
X40496000Y-85001000D02*
X40496000Y-83991000D01*
X48991272Y-85501000D02*
X40996000Y-85501000D01*
X49495000Y-83991000D02*
X49491272Y-85001272D01*
X51985000Y-63036000D02*
X38015000Y-63036000D01*
X53890000Y-64940999D02*
X53890000Y-82086000D01*
X36110000Y-64940999D02*
G75*
G02*
X38015000Y-63036000I1905001J-2D01*
G01*
X38015000Y-83991000D02*
G75*
G02*
X36110000Y-82086000I0J1905000D01*
G01*
X40996000Y-85501000D02*
G75*
G02*
X40496000Y-85001000I0J500000D01*
G01*
X49491272Y-85001272D02*
G75*
G02*
X48991272Y-85500972I-499972J272D01*
G01*
X51985000Y-63036000D02*
G75*
G02*
X53890000Y-64940999I-1J-1905001D01*
G01*
X53890000Y-82086000D02*
G75*
G02*
X51985000Y-83991000I-1905000J0D01*
G01*
D15*
X53059000Y-82870000D02*
G75*
G02*
X52555000Y-82870000I-252000J0D01*
G01*
X52555000Y-82870000D02*
G75*
G02*
X53059000Y-82870000I252000J0D01*
G01*
X54202000Y-83750000D02*
G75*
G02*
X53698000Y-83750000I-252000J0D01*
G01*
X53698000Y-83750000D02*
G75*
G02*
X54202000Y-83750000I252000J0D01*
G01*
%TO.C,C11*%
D12*
X46265000Y-9738748D02*
X46265000Y-10261252D01*
X47735000Y-9738748D02*
X47735000Y-10261252D01*
%TO.C,C18*%
X65265000Y-45738748D02*
X65265000Y-46261252D01*
X66735000Y-45738748D02*
X66735000Y-46261252D01*
%TO.C,C5*%
X8265000Y-33738748D02*
X8265000Y-34261252D01*
X9735000Y-33738748D02*
X9735000Y-34261252D01*
%TO.C,J12*%
X50150000Y-43250000D02*
X50150000Y-44500000D01*
X50449999Y-45800000D02*
X51199999Y-45800000D01*
X51199999Y-45800000D02*
X51199999Y-48750000D01*
X51199999Y-48750000D02*
X54250000Y-48750000D01*
X51400000Y-43250000D02*
X50150000Y-43250000D01*
X57300000Y-45800000D02*
X57300000Y-48750000D01*
X57300000Y-48750000D02*
X54250000Y-48750000D01*
X58050000Y-45800000D02*
X57300000Y-45800000D01*
X50439999Y-43540000D02*
X58059999Y-43540000D01*
X58059999Y-49510000D01*
X50439999Y-49510000D01*
X50439999Y-43540000D01*
X50449999Y-43550000D02*
X52250000Y-43550000D01*
X52250000Y-44300000D01*
X50449999Y-44300000D01*
X50449999Y-43550000D01*
X53750000Y-43550000D02*
X54750000Y-43550000D01*
X54750000Y-44300000D01*
X53750000Y-44300000D01*
X53750000Y-43550000D01*
X56250000Y-43550000D02*
X58050000Y-43550000D01*
X58050000Y-44300000D01*
X56250000Y-44300000D01*
X56250000Y-43550000D01*
%TO.C,J14*%
X69150000Y-19250000D02*
X69150000Y-20500000D01*
X69449999Y-21800000D02*
X70199999Y-21800000D01*
X70199999Y-21800000D02*
X70199999Y-24750000D01*
X70199999Y-24750000D02*
X73250000Y-24750000D01*
X70400000Y-19250000D02*
X69150000Y-19250000D01*
X76300000Y-21800000D02*
X76300000Y-24750000D01*
X76300000Y-24750000D02*
X73250000Y-24750000D01*
X77050000Y-21800000D02*
X76300000Y-21800000D01*
X69439999Y-19540000D02*
X77059999Y-19540000D01*
X77059999Y-25510000D01*
X69439999Y-25510000D01*
X69439999Y-19540000D01*
X69449999Y-19550000D02*
X71250000Y-19550000D01*
X71250000Y-20300000D01*
X69449999Y-20300000D01*
X69449999Y-19550000D01*
X72750000Y-19550000D02*
X73750000Y-19550000D01*
X73750000Y-20300000D01*
X72750000Y-20300000D01*
X72750000Y-19550000D01*
X75250000Y-19550000D02*
X77050000Y-19550000D01*
X77050000Y-20300000D01*
X75250000Y-20300000D01*
X75250000Y-19550000D01*
%TO.C,J1*%
X12150000Y-7250000D02*
X12150000Y-8500000D01*
X12449999Y-9800000D02*
X13199999Y-9800000D01*
X13199999Y-9800000D02*
X13199999Y-12750000D01*
X13199999Y-12750000D02*
X16250000Y-12750000D01*
X13400000Y-7250000D02*
X12150000Y-7250000D01*
X19300000Y-9800000D02*
X19300000Y-12750000D01*
X19300000Y-12750000D02*
X16250000Y-12750000D01*
X20050000Y-9800000D02*
X19300000Y-9800000D01*
X12439999Y-7540000D02*
X20059999Y-7540000D01*
X20059999Y-13510000D01*
X12439999Y-13510000D01*
X12439999Y-7540000D01*
X12449999Y-7550000D02*
X14250000Y-7550000D01*
X14250000Y-8300000D01*
X12449999Y-8300000D01*
X12449999Y-7550000D01*
X15750000Y-7550000D02*
X16750000Y-7550000D01*
X16750000Y-8300000D01*
X15750000Y-8300000D01*
X15750000Y-7550000D01*
X18250000Y-7550000D02*
X20050000Y-7550000D01*
X20050000Y-8300000D01*
X18250000Y-8300000D01*
X18250000Y-7550000D01*
%TO.C,C16*%
X65265000Y-21738748D02*
X65265000Y-22261252D01*
X66735000Y-21738748D02*
X66735000Y-22261252D01*
%TO.C,C1*%
X51765000Y-57761252D02*
X51765000Y-57238748D01*
X53235000Y-57761252D02*
X53235000Y-57238748D01*
%TO.C,J9*%
X50150000Y-7250000D02*
X50150000Y-8500000D01*
X50449999Y-9800000D02*
X51199999Y-9800000D01*
X51199999Y-9800000D02*
X51199999Y-12750000D01*
X51199999Y-12750000D02*
X54250000Y-12750000D01*
X51400000Y-7250000D02*
X50150000Y-7250000D01*
X57300000Y-9800000D02*
X57300000Y-12750000D01*
X57300000Y-12750000D02*
X54250000Y-12750000D01*
X58050000Y-9800000D02*
X57300000Y-9800000D01*
X50439999Y-7540000D02*
X58059999Y-7540000D01*
X58059999Y-13510000D01*
X50439999Y-13510000D01*
X50439999Y-7540000D01*
X50449999Y-7550000D02*
X52250000Y-7550000D01*
X52250000Y-8300000D01*
X50449999Y-8300000D01*
X50449999Y-7550000D01*
X53750000Y-7550000D02*
X54750000Y-7550000D01*
X54750000Y-8300000D01*
X53750000Y-8300000D01*
X53750000Y-7550000D01*
X56250000Y-7550000D02*
X58050000Y-7550000D01*
X58050000Y-8300000D01*
X56250000Y-8300000D01*
X56250000Y-7550000D01*
%TO.C,J4*%
X12150000Y-43250000D02*
X12150000Y-44500000D01*
X12449999Y-45800000D02*
X13199999Y-45800000D01*
X13199999Y-45800000D02*
X13199999Y-48750000D01*
X13199999Y-48750000D02*
X16250000Y-48750000D01*
X13400000Y-43250000D02*
X12150000Y-43250000D01*
X19300000Y-45800000D02*
X19300000Y-48750000D01*
X19300000Y-48750000D02*
X16250000Y-48750000D01*
X20050000Y-45800000D02*
X19300000Y-45800000D01*
X12439999Y-43540000D02*
X20059999Y-43540000D01*
X20059999Y-49510000D01*
X12439999Y-49510000D01*
X12439999Y-43540000D01*
X12449999Y-43550000D02*
X14250000Y-43550000D01*
X14250000Y-44300000D01*
X12449999Y-44300000D01*
X12449999Y-43550000D01*
X15750000Y-43550000D02*
X16750000Y-43550000D01*
X16750000Y-44300000D01*
X15750000Y-44300000D01*
X15750000Y-43550000D01*
X18250000Y-43550000D02*
X20050000Y-43550000D01*
X20050000Y-44300000D01*
X18250000Y-44300000D01*
X18250000Y-43550000D01*
%TO.C,C4*%
X8265000Y-21738748D02*
X8265000Y-22261252D01*
X9735000Y-21738748D02*
X9735000Y-22261252D01*
%TO.C,J3*%
X12150000Y-31250000D02*
X12150000Y-32500000D01*
X12449999Y-33800000D02*
X13199999Y-33800000D01*
X13199999Y-33800000D02*
X13199999Y-36750000D01*
X13199999Y-36750000D02*
X16250000Y-36750000D01*
X13400000Y-31250000D02*
X12150000Y-31250000D01*
X19300000Y-33800000D02*
X19300000Y-36750000D01*
X19300000Y-36750000D02*
X16250000Y-36750000D01*
X20050000Y-33800000D02*
X19300000Y-33800000D01*
X12439999Y-31540000D02*
X20059999Y-31540000D01*
X20059999Y-37510000D01*
X12439999Y-37510000D01*
X12439999Y-31540000D01*
X12449999Y-31550000D02*
X14250000Y-31550000D01*
X14250000Y-32300000D01*
X12449999Y-32300000D01*
X12449999Y-31550000D01*
X15750000Y-31550000D02*
X16750000Y-31550000D01*
X16750000Y-32300000D01*
X15750000Y-32300000D01*
X15750000Y-31550000D01*
X18250000Y-31550000D02*
X20050000Y-31550000D01*
X20050000Y-32300000D01*
X18250000Y-32300000D01*
X18250000Y-31550000D01*
%TO.C,C9*%
X27265000Y-33738748D02*
X27265000Y-34261252D01*
X28735000Y-33738748D02*
X28735000Y-34261252D01*
%TO.C,C14*%
X46265000Y-45738748D02*
X46265000Y-46261252D01*
X47735000Y-45738748D02*
X47735000Y-46261252D01*
%TO.C,C15*%
X65265000Y-9738748D02*
X65265000Y-10261252D01*
X66735000Y-9738748D02*
X66735000Y-10261252D01*
%TO.C,J6*%
X31150000Y-19250000D02*
X31150000Y-20500000D01*
X31449999Y-21800000D02*
X32199999Y-21800000D01*
X32199999Y-21800000D02*
X32199999Y-24750000D01*
X32199999Y-24750000D02*
X35250000Y-24750000D01*
X32400000Y-19250000D02*
X31150000Y-19250000D01*
X38300000Y-21800000D02*
X38300000Y-24750000D01*
X38300000Y-24750000D02*
X35250000Y-24750000D01*
X39050000Y-21800000D02*
X38300000Y-21800000D01*
X31439999Y-19540000D02*
X39059999Y-19540000D01*
X39059999Y-25510000D01*
X31439999Y-25510000D01*
X31439999Y-19540000D01*
X31449999Y-19550000D02*
X33250000Y-19550000D01*
X33250000Y-20300000D01*
X31449999Y-20300000D01*
X31449999Y-19550000D01*
X34750000Y-19550000D02*
X35750000Y-19550000D01*
X35750000Y-20300000D01*
X34750000Y-20300000D01*
X34750000Y-19550000D01*
X37250000Y-19550000D02*
X39050000Y-19550000D01*
X39050000Y-20300000D01*
X37250000Y-20300000D01*
X37250000Y-19550000D01*
%TD*%
M02*
