%TF.GenerationSoftware,KiCad,Pcbnew,10.0.5*%
%TF.CreationDate,2026-09-02T07:59:46+02:00*%
%TF.ProjectId,garage-console,67617261-6765-42d6-936f-6e736f6c652e,rev?*%
%TF.SameCoordinates,Original*%
%TF.FileFunction,Copper,L2,Bot*%
%TF.FilePolarity,Positive*%
%FSLAX46Y46*%
G04 Gerber Fmt 4.6, Leading zero omitted, Abs format (unit mm)*
G04 Created by KiCad (PCBNEW 10.0.5) date 2026-09-02 07:59:46*
%MOMM*%
%LPD*%
G01*
G04 APERTURE LIST*
G04 Aperture macros list*
%AMRoundRect*
0 Rectangle with rounded corners*
0 $1 Rounding radius*
0 $2 $3 $4 $5 $6 $7 $8 $9 X,Y pos of 4 corners*
0 Add a 4 corners polygon primitive as box body*
4,1,4,$2,$3,$4,$5,$6,$7,$8,$9,$2,$3,0*
0 Add four circle primitives for the rounded corners*
1,1,$1+$1,$2,$3*
1,1,$1+$1,$4,$5*
1,1,$1+$1,$6,$7*
1,1,$1+$1,$8,$9*
0 Add four rect primitives between the rounded corners*
20,1,$1+$1,$2,$3,$4,$5,0*
20,1,$1+$1,$4,$5,$6,$7,0*
20,1,$1+$1,$6,$7,$8,$9,0*
20,1,$1+$1,$8,$9,$2,$3,0*%
G04 Aperture macros list end*
%TA.AperFunction,ComponentPad*%
%ADD10RoundRect,0.250000X-0.600000X-0.750000X0.600000X-0.750000X0.600000X0.750000X-0.600000X0.750000X0*%
%TD*%
%TA.AperFunction,ComponentPad*%
%ADD11O,1.700000X2.000000*%
%TD*%
%TA.AperFunction,WasherPad*%
%ADD12C,3.700000*%
%TD*%
%TA.AperFunction,ComponentPad*%
%ADD13C,1.524000*%
%TD*%
%TA.AperFunction,ViaPad*%
%ADD14C,0.800000*%
%TD*%
%TA.AperFunction,ViaPad*%
%ADD15C,0.600000*%
%TD*%
%TA.AperFunction,Conductor*%
%ADD16C,0.400000*%
%TD*%
%TA.AperFunction,Conductor*%
%ADD17C,0.200000*%
%TD*%
G04 APERTURE END LIST*
D10*
%TO.P,J13,1*%
%TO.N,/SW13*%
X72000000Y-10000000D03*
D11*
%TO.P,J13,2*%
%TO.N,/GND*%
X74500000Y-10000000D03*
%TD*%
D12*
%TO.P,H2,*%
%TO.N,*%
X85500000Y-4500000D03*
%TD*%
D10*
%TO.P,J5,1*%
%TO.N,/SW5*%
X34000000Y-10000000D03*
D11*
%TO.P,J5,2*%
%TO.N,/GND*%
X36500000Y-10000000D03*
%TD*%
D12*
%TO.P,H1,*%
%TO.N,*%
X4500000Y-4500000D03*
%TD*%
D10*
%TO.P,J15,1*%
%TO.N,/SW15*%
X72000000Y-34000000D03*
D11*
%TO.P,J15,2*%
%TO.N,/GND*%
X74500000Y-34000000D03*
%TD*%
D10*
%TO.P,J10,1*%
%TO.N,/SW10*%
X53000000Y-22000000D03*
D11*
%TO.P,J10,2*%
%TO.N,/GND*%
X55500000Y-22000000D03*
%TD*%
D10*
%TO.P,J8,1*%
%TO.N,/SW8*%
X34000000Y-46000000D03*
D11*
%TO.P,J8,2*%
%TO.N,/GND*%
X36500000Y-46000000D03*
%TD*%
D10*
%TO.P,J11,1*%
%TO.N,/SW11*%
X53000000Y-34000000D03*
D11*
%TO.P,J11,2*%
%TO.N,/GND*%
X55500000Y-34000000D03*
%TD*%
D10*
%TO.P,J2,1*%
%TO.N,/SW2*%
X15000000Y-22000000D03*
D11*
%TO.P,J2,2*%
%TO.N,/GND*%
X17500000Y-22000000D03*
%TD*%
D10*
%TO.P,J16,1*%
%TO.N,/SW16*%
X72000000Y-46000000D03*
D11*
%TO.P,J16,2*%
%TO.N,/GND*%
X74500000Y-46000000D03*
%TD*%
D10*
%TO.P,J7,1*%
%TO.N,/SW7*%
X34000000Y-34000000D03*
D11*
%TO.P,J7,2*%
%TO.N,/GND*%
X36500000Y-34000000D03*
%TD*%
D13*
%TO.P,U1,1*%
%TO.N,unconnected-(U1-GPIO0_A0_D0-Pad1)*%
X52620000Y-81070000D03*
%TO.P,U1,2*%
%TO.N,unconnected-(U1-GPIO1_A1_D1-Pad2)*%
X52620000Y-78529999D03*
%TO.P,U1,3*%
%TO.N,/PCF_INT*%
X52620000Y-75990000D03*
%TO.P,U1,4*%
%TO.N,unconnected-(U1-GPIO21_D3-Pad4)*%
X52620000Y-73450000D03*
%TO.P,U1,5*%
%TO.N,/SDA*%
X52620000Y-70910000D03*
%TO.P,U1,6*%
%TO.N,/SCL*%
X52620000Y-68370000D03*
%TO.P,U1,7*%
%TO.N,unconnected-(U1-GPIO16_D6_TX-Pad7)*%
X52620000Y-65829999D03*
%TO.P,U1,8*%
%TO.N,unconnected-(U1-GPIO17_D7_RX-Pad8)*%
X37380000Y-65829999D03*
%TO.P,U1,9*%
%TO.N,unconnected-(U1-GPIO19_D8_SCK-Pad9)*%
X37380000Y-68370000D03*
%TO.P,U1,10*%
%TO.N,unconnected-(U1-GPIO20_D9_MISO-Pad10)*%
X37380000Y-70910000D03*
%TO.P,U1,11*%
%TO.N,unconnected-(U1-GPIO18_D10_MOSI-Pad11)*%
X37380000Y-73450000D03*
%TO.P,U1,12*%
%TO.N,/+3V3*%
X37380000Y-75990000D03*
%TO.P,U1,13*%
%TO.N,/GND*%
X37380000Y-78529999D03*
%TO.P,U1,14*%
%TO.N,unconnected-(U1-VBUS-Pad14)*%
X37380000Y-81070000D03*
%TD*%
D12*
%TO.P,H3,*%
%TO.N,*%
X4500000Y-79500000D03*
%TD*%
D10*
%TO.P,J12,1*%
%TO.N,/SW12*%
X53000000Y-46000000D03*
D11*
%TO.P,J12,2*%
%TO.N,/GND*%
X55500000Y-46000000D03*
%TD*%
D10*
%TO.P,J14,1*%
%TO.N,/SW14*%
X72000000Y-22000000D03*
D11*
%TO.P,J14,2*%
%TO.N,/GND*%
X74500000Y-22000000D03*
%TD*%
D10*
%TO.P,J1,1*%
%TO.N,/SW1*%
X15000000Y-10000000D03*
D11*
%TO.P,J1,2*%
%TO.N,/GND*%
X17500000Y-10000000D03*
%TD*%
D12*
%TO.P,H4,*%
%TO.N,*%
X85500000Y-79500000D03*
%TD*%
D10*
%TO.P,J9,1*%
%TO.N,/SW9*%
X53000000Y-10000000D03*
D11*
%TO.P,J9,2*%
%TO.N,/GND*%
X55500000Y-10000000D03*
%TD*%
D10*
%TO.P,J4,1*%
%TO.N,/SW4*%
X15000000Y-46000000D03*
D11*
%TO.P,J4,2*%
%TO.N,/GND*%
X17500000Y-46000000D03*
%TD*%
D10*
%TO.P,J3,1*%
%TO.N,/SW3*%
X15000000Y-34000000D03*
D11*
%TO.P,J3,2*%
%TO.N,/GND*%
X17500000Y-34000000D03*
%TD*%
D10*
%TO.P,J6,1*%
%TO.N,/SW6*%
X34000000Y-22000000D03*
D11*
%TO.P,J6,2*%
%TO.N,/GND*%
X36500000Y-22000000D03*
%TD*%
D14*
%TO.N,/+3V3*%
X48500000Y-60500000D03*
X48500000Y-50000000D03*
D15*
%TO.N,/SW1*%
X27542200Y-50709700D03*
%TO.N,/SW13*%
X45297900Y-53613200D03*
%TO.N,/SCL*%
X46952400Y-55343600D03*
%TO.N,/SDA*%
X51835600Y-51014100D03*
%TO.N,/PCF_INT*%
X41494500Y-50341200D03*
%TO.N,/SW3*%
X33361600Y-51535600D03*
%TO.N,/SW4*%
X24632500Y-56516700D03*
%TO.N,/SW5*%
X42263600Y-47633300D03*
%TO.N,/SW6*%
X39874200Y-56093100D03*
%TO.N,/SW7*%
X38207000Y-56104400D03*
%TO.N,/SW8*%
X39056900Y-57274500D03*
%TO.N,/SW9*%
X44212500Y-50709700D03*
%TO.N,/SW10*%
X44880000Y-56949000D03*
%TO.N,/SW12*%
X52005900Y-55439100D03*
%TO.N,/SW16*%
X50743700Y-52731800D03*
%TD*%
%TO.N,/+3V3*%
D16*
X48500000Y-50000000D02*
X48500000Y-60500000D01*
%TO.N,/SW1*%
D17*
X13781400Y-36948900D02*
X13781400Y-11218600D01*
X27542200Y-50709700D02*
X13781400Y-36948900D01*
X13781400Y-11218600D02*
X15000000Y-10000000D01*
%TO.N,/SW13*%
X45297900Y-36702100D02*
X72000000Y-10000000D01*
X45297900Y-53613200D02*
X45297900Y-36702100D01*
%TO.N,/SCL*%
X46952400Y-62702400D02*
X46952400Y-55343600D01*
X52620000Y-68370000D02*
X46952400Y-62702400D01*
%TO.N,/SDA*%
X53712100Y-59198000D02*
X53712100Y-70679900D01*
X51835600Y-51014100D02*
X51385800Y-51463900D01*
X52620000Y-70910000D02*
X53482000Y-70910000D01*
X51385800Y-51463900D02*
X51385800Y-56871700D01*
X53482000Y-70910000D02*
X53712100Y-70679900D01*
X51385800Y-56871700D02*
X53712100Y-59198000D01*
%TO.N,/PCF_INT*%
X41494500Y-64864500D02*
X41494500Y-50341200D01*
X52620000Y-75990000D02*
X41494500Y-64864500D01*
%TO.N,/SW3*%
X32535600Y-51535600D02*
X15000000Y-34000000D01*
X33361600Y-51535600D02*
X32535600Y-51535600D01*
%TO.N,/SW4*%
X15000000Y-46884200D02*
X15000000Y-46000000D01*
X24632500Y-56516700D02*
X15000000Y-46884200D01*
%TO.N,/SW5*%
X42263600Y-18263600D02*
X34000000Y-10000000D01*
X42263600Y-47633300D02*
X42263600Y-18263600D01*
%TO.N,/SW6*%
X39874200Y-27874200D02*
X34000000Y-22000000D01*
X39874200Y-56093100D02*
X39874200Y-27874200D01*
%TO.N,/SW7*%
X38207000Y-38207000D02*
X34000000Y-34000000D01*
X38207000Y-56104400D02*
X38207000Y-38207000D01*
%TO.N,/SW8*%
X38513200Y-57274400D02*
X39056900Y-57274400D01*
X39056900Y-57274400D02*
X39056900Y-57274500D01*
X34000000Y-46000000D02*
X34000000Y-52761200D01*
X34000000Y-52761200D02*
X38513200Y-57274400D01*
%TO.N,/SW9*%
X44212500Y-18787500D02*
X53000000Y-10000000D01*
X44212500Y-50709700D02*
X44212500Y-18787500D01*
%TO.N,/SW10*%
X44880000Y-56949000D02*
X44692300Y-56761300D01*
X44814200Y-50958900D02*
X44814200Y-30185800D01*
X44692300Y-51080800D02*
X44814200Y-50958900D01*
X44692300Y-56761300D02*
X44692300Y-51080800D01*
X44814200Y-30185800D02*
X53000000Y-22000000D01*
%TO.N,/SW12*%
X53000000Y-54445000D02*
X52005900Y-55439100D01*
X53000000Y-46000000D02*
X53000000Y-54445000D01*
%TO.N,/SW16*%
X70632000Y-44632000D02*
X52234800Y-44632000D01*
X72000000Y-46000000D02*
X70632000Y-44632000D01*
X52234800Y-44632000D02*
X50743700Y-46123100D01*
X50743700Y-46123100D02*
X50743700Y-52731800D01*
%TD*%
%TA.AperFunction,Conductor*%
%TO.N,/GND*%
G36*
X87003234Y-1500212D02*
G01*
X87020362Y-1501334D01*
X87189317Y-1512407D01*
X87202143Y-1514096D01*
X87381877Y-1549847D01*
X87394366Y-1553194D01*
X87567883Y-1612095D01*
X87579840Y-1617047D01*
X87744185Y-1698093D01*
X87755385Y-1704559D01*
X87907755Y-1806370D01*
X87918018Y-1814245D01*
X88055781Y-1935060D01*
X88064938Y-1944217D01*
X88185753Y-2081980D01*
X88193630Y-2092245D01*
X88295433Y-2244603D01*
X88301907Y-2255817D01*
X88382947Y-2420150D01*
X88387903Y-2432115D01*
X88446801Y-2605623D01*
X88450153Y-2618131D01*
X88485901Y-2797848D01*
X88487591Y-2810687D01*
X88499788Y-2996764D01*
X88500000Y-3003239D01*
X88500000Y-80996759D01*
X88499788Y-81003234D01*
X88487591Y-81189311D01*
X88485901Y-81202150D01*
X88450153Y-81381867D01*
X88446801Y-81394375D01*
X88387903Y-81567883D01*
X88382947Y-81579848D01*
X88301907Y-81744181D01*
X88295433Y-81755395D01*
X88193637Y-81907744D01*
X88185753Y-81918018D01*
X88064938Y-82055781D01*
X88055781Y-82064938D01*
X87918018Y-82185753D01*
X87907744Y-82193637D01*
X87755395Y-82295433D01*
X87744181Y-82301907D01*
X87579848Y-82382947D01*
X87567883Y-82387903D01*
X87394375Y-82446801D01*
X87381867Y-82450153D01*
X87202150Y-82485901D01*
X87189311Y-82487591D01*
X87003234Y-82499788D01*
X86996759Y-82500000D01*
X3003241Y-82500000D01*
X2996766Y-82499788D01*
X2810687Y-82487591D01*
X2797848Y-82485901D01*
X2618131Y-82450153D01*
X2605623Y-82446801D01*
X2432119Y-82387905D01*
X2420154Y-82382949D01*
X2255821Y-82301908D01*
X2244607Y-82295434D01*
X2092249Y-82193633D01*
X2081975Y-82185749D01*
X1964241Y-82082499D01*
X1944216Y-82064937D01*
X1935060Y-82055781D01*
X1814245Y-81918018D01*
X1806370Y-81907755D01*
X1704559Y-81755385D01*
X1698091Y-81744181D01*
X1683913Y-81715430D01*
X1617047Y-81579840D01*
X1612095Y-81567883D01*
X1605888Y-81549597D01*
X1553194Y-81394366D01*
X1549847Y-81381877D01*
X1514096Y-81202143D01*
X1512407Y-81189311D01*
X1511123Y-81169725D01*
X1500212Y-81003233D01*
X1500000Y-80996759D01*
X1500000Y-79362326D01*
X2399500Y-79362326D01*
X2399500Y-79637674D01*
X2435440Y-79910666D01*
X2474253Y-80055521D01*
X2506704Y-80176631D01*
X2612074Y-80431016D01*
X2612077Y-80431021D01*
X2749751Y-80669479D01*
X2917372Y-80887928D01*
X3112072Y-81082628D01*
X3330521Y-81250249D01*
X3568979Y-81387923D01*
X3568980Y-81387923D01*
X3568983Y-81387925D01*
X3584555Y-81394375D01*
X3823368Y-81493295D01*
X4089334Y-81564560D01*
X4362326Y-81600500D01*
X4362327Y-81600500D01*
X4637673Y-81600500D01*
X4637674Y-81600500D01*
X4910666Y-81564560D01*
X5176632Y-81493295D01*
X5431021Y-81387923D01*
X5669479Y-81250249D01*
X5887928Y-81082628D01*
X6000282Y-80970274D01*
X36367500Y-80970274D01*
X36367500Y-81169725D01*
X36406410Y-81365334D01*
X36406410Y-81365336D01*
X36482732Y-81549596D01*
X36482732Y-81549597D01*
X36515188Y-81598170D01*
X36593540Y-81715431D01*
X36734569Y-81856460D01*
X36900401Y-81967266D01*
X37084665Y-82043590D01*
X37280277Y-82082500D01*
X37280278Y-82082500D01*
X37479722Y-82082500D01*
X37479723Y-82082500D01*
X37675335Y-82043590D01*
X37859599Y-81967266D01*
X38025431Y-81856460D01*
X38166460Y-81715431D01*
X38277266Y-81549599D01*
X38353590Y-81365335D01*
X38392500Y-81169723D01*
X38392500Y-80970277D01*
X38392499Y-80970274D01*
X51607500Y-80970274D01*
X51607500Y-81169725D01*
X51646410Y-81365334D01*
X51646410Y-81365336D01*
X51722732Y-81549596D01*
X51722732Y-81549597D01*
X51755188Y-81598170D01*
X51833540Y-81715431D01*
X51974569Y-81856460D01*
X52140401Y-81967266D01*
X52324665Y-82043590D01*
X52520277Y-82082500D01*
X52520278Y-82082500D01*
X52719722Y-82082500D01*
X52719723Y-82082500D01*
X52915335Y-82043590D01*
X53099599Y-81967266D01*
X53265431Y-81856460D01*
X53406460Y-81715431D01*
X53517266Y-81549599D01*
X53593590Y-81365335D01*
X53632500Y-81169723D01*
X53632500Y-80970277D01*
X53593590Y-80774665D01*
X53517267Y-80590403D01*
X53517267Y-80590402D01*
X53406460Y-80424569D01*
X53265430Y-80283539D01*
X53099596Y-80172732D01*
X52915335Y-80096410D01*
X52719725Y-80057500D01*
X52719723Y-80057500D01*
X52520277Y-80057500D01*
X52520274Y-80057500D01*
X52324665Y-80096410D01*
X52324663Y-80096410D01*
X52140403Y-80172732D01*
X52140402Y-80172732D01*
X51974569Y-80283539D01*
X51833539Y-80424569D01*
X51722732Y-80590402D01*
X51722732Y-80590403D01*
X51646410Y-80774663D01*
X51646410Y-80774665D01*
X51607500Y-80970274D01*
X38392499Y-80970274D01*
X38353590Y-80774665D01*
X38277267Y-80590403D01*
X38277267Y-80590402D01*
X38166460Y-80424569D01*
X38025430Y-80283539D01*
X37859596Y-80172732D01*
X37675335Y-80096410D01*
X37479725Y-80057500D01*
X37479723Y-80057500D01*
X37280277Y-80057500D01*
X37280274Y-80057500D01*
X37084665Y-80096410D01*
X37084663Y-80096410D01*
X36900403Y-80172732D01*
X36900402Y-80172732D01*
X36734569Y-80283539D01*
X36593539Y-80424569D01*
X36482732Y-80590402D01*
X36482732Y-80590403D01*
X36406410Y-80774663D01*
X36406410Y-80774665D01*
X36367500Y-80970274D01*
X6000282Y-80970274D01*
X6082628Y-80887928D01*
X6250249Y-80669479D01*
X6387923Y-80431021D01*
X6493295Y-80176632D01*
X6564560Y-79910666D01*
X6600500Y-79637674D01*
X6600500Y-79362326D01*
X6564560Y-79089334D01*
X6493295Y-78823368D01*
X6387923Y-78568979D01*
X6307841Y-78430273D01*
X51607500Y-78430273D01*
X51607500Y-78629724D01*
X51646410Y-78825333D01*
X51646410Y-78825335D01*
X51722732Y-79009595D01*
X51722732Y-79009596D01*
X51776012Y-79089334D01*
X51833540Y-79175430D01*
X51974569Y-79316459D01*
X52140401Y-79427265D01*
X52324665Y-79503589D01*
X52520277Y-79542499D01*
X52520278Y-79542499D01*
X52719722Y-79542499D01*
X52719723Y-79542499D01*
X52915335Y-79503589D01*
X53099599Y-79427265D01*
X53196787Y-79362326D01*
X83399500Y-79362326D01*
X83399500Y-79637674D01*
X83435440Y-79910666D01*
X83474253Y-80055521D01*
X83506704Y-80176631D01*
X83612074Y-80431016D01*
X83612077Y-80431021D01*
X83749751Y-80669479D01*
X83917372Y-80887928D01*
X84112072Y-81082628D01*
X84330521Y-81250249D01*
X84568979Y-81387923D01*
X84568980Y-81387923D01*
X84568983Y-81387925D01*
X84584555Y-81394375D01*
X84823368Y-81493295D01*
X85089334Y-81564560D01*
X85362326Y-81600500D01*
X85362327Y-81600500D01*
X85637673Y-81600500D01*
X85637674Y-81600500D01*
X85910666Y-81564560D01*
X86176632Y-81493295D01*
X86431021Y-81387923D01*
X86669479Y-81250249D01*
X86887928Y-81082628D01*
X87082628Y-80887928D01*
X87250249Y-80669479D01*
X87387923Y-80431021D01*
X87493295Y-80176632D01*
X87564560Y-79910666D01*
X87600500Y-79637674D01*
X87600500Y-79362326D01*
X87564560Y-79089334D01*
X87493295Y-78823368D01*
X87387923Y-78568979D01*
X87250249Y-78330521D01*
X87082628Y-78112072D01*
X86887928Y-77917372D01*
X86669479Y-77749751D01*
X86431021Y-77612077D01*
X86431016Y-77612074D01*
X86176631Y-77506704D01*
X86055521Y-77474253D01*
X85910666Y-77435440D01*
X85910659Y-77435439D01*
X85637675Y-77399500D01*
X85637674Y-77399500D01*
X85362326Y-77399500D01*
X85362324Y-77399500D01*
X85089340Y-77435439D01*
X85089338Y-77435439D01*
X85089334Y-77435440D01*
X84988805Y-77462376D01*
X84823368Y-77506704D01*
X84568983Y-77612074D01*
X84330517Y-77749753D01*
X84112075Y-77917369D01*
X83917369Y-78112075D01*
X83749753Y-78330517D01*
X83612074Y-78568983D01*
X83506704Y-78823368D01*
X83462376Y-78988805D01*
X83435440Y-79089334D01*
X83399500Y-79362326D01*
X53196787Y-79362326D01*
X53265431Y-79316459D01*
X53406460Y-79175430D01*
X53517266Y-79009598D01*
X53593590Y-78825334D01*
X53632500Y-78629722D01*
X53632500Y-78430276D01*
X53593590Y-78234664D01*
X53517267Y-78050402D01*
X53517267Y-78050401D01*
X53406460Y-77884568D01*
X53265430Y-77743538D01*
X53099596Y-77632731D01*
X52915335Y-77556409D01*
X52719725Y-77517499D01*
X52719723Y-77517499D01*
X52520277Y-77517499D01*
X52520274Y-77517499D01*
X52324665Y-77556409D01*
X52324663Y-77556409D01*
X52140403Y-77632731D01*
X52140402Y-77632731D01*
X51974569Y-77743538D01*
X51833539Y-77884568D01*
X51722732Y-78050401D01*
X51722732Y-78050402D01*
X51646410Y-78234662D01*
X51646410Y-78234664D01*
X51607500Y-78430273D01*
X6307841Y-78430273D01*
X6250249Y-78330521D01*
X6082628Y-78112072D01*
X5887928Y-77917372D01*
X5669479Y-77749751D01*
X5431021Y-77612077D01*
X5431016Y-77612074D01*
X5176631Y-77506704D01*
X5055521Y-77474253D01*
X4910666Y-77435440D01*
X4910659Y-77435439D01*
X4637675Y-77399500D01*
X4637674Y-77399500D01*
X4362326Y-77399500D01*
X4362324Y-77399500D01*
X4089340Y-77435439D01*
X4089338Y-77435439D01*
X4089334Y-77435440D01*
X3988805Y-77462376D01*
X3823368Y-77506704D01*
X3568983Y-77612074D01*
X3330517Y-77749753D01*
X3112075Y-77917369D01*
X2917369Y-78112075D01*
X2749753Y-78330517D01*
X2612074Y-78568983D01*
X2506704Y-78823368D01*
X2462376Y-78988805D01*
X2435440Y-79089334D01*
X2399500Y-79362326D01*
X1500000Y-79362326D01*
X1500000Y-75890274D01*
X36367500Y-75890274D01*
X36367500Y-76089725D01*
X36406410Y-76285334D01*
X36406410Y-76285336D01*
X36482732Y-76469596D01*
X36482732Y-76469597D01*
X36593539Y-76635430D01*
X36593540Y-76635431D01*
X36734569Y-76776460D01*
X36900401Y-76887266D01*
X37084665Y-76963590D01*
X37280277Y-77002500D01*
X37280278Y-77002500D01*
X37479722Y-77002500D01*
X37479723Y-77002500D01*
X37675335Y-76963590D01*
X37859599Y-76887266D01*
X38025431Y-76776460D01*
X38166460Y-76635431D01*
X38277266Y-76469599D01*
X38353590Y-76285335D01*
X38392500Y-76089723D01*
X38392500Y-75890277D01*
X38353590Y-75694665D01*
X38277267Y-75510403D01*
X38277267Y-75510402D01*
X38166460Y-75344569D01*
X38025430Y-75203539D01*
X37859596Y-75092732D01*
X37675335Y-75016410D01*
X37479725Y-74977500D01*
X37479723Y-74977500D01*
X37280277Y-74977500D01*
X37280274Y-74977500D01*
X37084665Y-75016410D01*
X37084663Y-75016410D01*
X36900403Y-75092732D01*
X36900402Y-75092732D01*
X36734569Y-75203539D01*
X36593539Y-75344569D01*
X36482732Y-75510402D01*
X36482732Y-75510403D01*
X36406410Y-75694663D01*
X36406410Y-75694665D01*
X36367500Y-75890274D01*
X1500000Y-75890274D01*
X1500000Y-73350274D01*
X36367500Y-73350274D01*
X36367500Y-73549725D01*
X36406410Y-73745334D01*
X36406410Y-73745336D01*
X36482732Y-73929596D01*
X36482732Y-73929597D01*
X36593539Y-74095430D01*
X36593540Y-74095431D01*
X36734569Y-74236460D01*
X36900401Y-74347266D01*
X37084665Y-74423590D01*
X37280277Y-74462500D01*
X37280278Y-74462500D01*
X37479722Y-74462500D01*
X37479723Y-74462500D01*
X37675335Y-74423590D01*
X37859599Y-74347266D01*
X38025431Y-74236460D01*
X38166460Y-74095431D01*
X38277266Y-73929599D01*
X38353590Y-73745335D01*
X38392500Y-73549723D01*
X38392500Y-73350277D01*
X38353590Y-73154665D01*
X38277267Y-72970403D01*
X38277267Y-72970402D01*
X38166460Y-72804569D01*
X38025430Y-72663539D01*
X37859596Y-72552732D01*
X37675335Y-72476410D01*
X37479725Y-72437500D01*
X37479723Y-72437500D01*
X37280277Y-72437500D01*
X37280274Y-72437500D01*
X37084665Y-72476410D01*
X37084663Y-72476410D01*
X36900403Y-72552732D01*
X36900402Y-72552732D01*
X36734569Y-72663539D01*
X36593539Y-72804569D01*
X36482732Y-72970402D01*
X36482732Y-72970403D01*
X36406410Y-73154663D01*
X36406410Y-73154665D01*
X36367500Y-73350274D01*
X1500000Y-73350274D01*
X1500000Y-70810274D01*
X36367500Y-70810274D01*
X36367500Y-71009725D01*
X36406410Y-71205334D01*
X36406410Y-71205336D01*
X36482732Y-71389596D01*
X36482732Y-71389597D01*
X36482739Y-71389607D01*
X36593540Y-71555431D01*
X36734569Y-71696460D01*
X36900401Y-71807266D01*
X37084665Y-71883590D01*
X37280277Y-71922500D01*
X37280278Y-71922500D01*
X37479722Y-71922500D01*
X37479723Y-71922500D01*
X37675335Y-71883590D01*
X37859599Y-71807266D01*
X38025431Y-71696460D01*
X38166460Y-71555431D01*
X38277266Y-71389599D01*
X38353590Y-71205335D01*
X38392500Y-71009723D01*
X38392500Y-70810277D01*
X38353590Y-70614665D01*
X38277267Y-70430403D01*
X38277267Y-70430402D01*
X38166460Y-70264569D01*
X38025430Y-70123539D01*
X37859596Y-70012732D01*
X37675335Y-69936410D01*
X37479725Y-69897500D01*
X37479723Y-69897500D01*
X37280277Y-69897500D01*
X37280274Y-69897500D01*
X37084665Y-69936410D01*
X37084663Y-69936410D01*
X36900403Y-70012732D01*
X36900402Y-70012732D01*
X36734569Y-70123539D01*
X36593539Y-70264569D01*
X36482732Y-70430402D01*
X36482732Y-70430403D01*
X36406410Y-70614663D01*
X36406410Y-70614665D01*
X36367500Y-70810274D01*
X1500000Y-70810274D01*
X1500000Y-68270274D01*
X36367500Y-68270274D01*
X36367500Y-68469725D01*
X36406410Y-68665334D01*
X36406410Y-68665336D01*
X36482732Y-68849596D01*
X36482732Y-68849597D01*
X36593539Y-69015430D01*
X36593540Y-69015431D01*
X36734569Y-69156460D01*
X36900401Y-69267266D01*
X37084665Y-69343590D01*
X37280277Y-69382500D01*
X37280278Y-69382500D01*
X37479722Y-69382500D01*
X37479723Y-69382500D01*
X37675335Y-69343590D01*
X37859599Y-69267266D01*
X38025431Y-69156460D01*
X38166460Y-69015431D01*
X38277266Y-68849599D01*
X38353590Y-68665335D01*
X38392500Y-68469723D01*
X38392500Y-68270277D01*
X38353590Y-68074665D01*
X38277267Y-67890403D01*
X38277267Y-67890402D01*
X38166460Y-67724569D01*
X38025430Y-67583539D01*
X37859596Y-67472732D01*
X37675335Y-67396410D01*
X37479725Y-67357500D01*
X37479723Y-67357500D01*
X37280277Y-67357500D01*
X37280274Y-67357500D01*
X37084665Y-67396410D01*
X37084663Y-67396410D01*
X36900403Y-67472732D01*
X36900402Y-67472732D01*
X36734569Y-67583539D01*
X36593539Y-67724569D01*
X36482732Y-67890402D01*
X36482732Y-67890403D01*
X36406410Y-68074663D01*
X36406410Y-68074665D01*
X36367500Y-68270274D01*
X1500000Y-68270274D01*
X1500000Y-65730273D01*
X36367500Y-65730273D01*
X36367500Y-65929724D01*
X36406410Y-66125333D01*
X36406410Y-66125335D01*
X36482732Y-66309595D01*
X36482732Y-66309596D01*
X36593539Y-66475429D01*
X36593540Y-66475430D01*
X36734569Y-66616459D01*
X36900401Y-66727265D01*
X37084665Y-66803589D01*
X37280277Y-66842499D01*
X37280278Y-66842499D01*
X37479722Y-66842499D01*
X37479723Y-66842499D01*
X37675335Y-66803589D01*
X37859599Y-66727265D01*
X38025431Y-66616459D01*
X38166460Y-66475430D01*
X38277266Y-66309598D01*
X38353590Y-66125334D01*
X38392500Y-65929722D01*
X38392500Y-65730276D01*
X38353590Y-65534664D01*
X38277267Y-65350402D01*
X38277267Y-65350401D01*
X38166460Y-65184568D01*
X38025430Y-65043538D01*
X37859597Y-64932731D01*
X37859596Y-64932731D01*
X37675335Y-64856409D01*
X37479725Y-64817499D01*
X37479723Y-64817499D01*
X37280277Y-64817499D01*
X37280274Y-64817499D01*
X37084665Y-64856409D01*
X37084663Y-64856409D01*
X36900403Y-64932731D01*
X36900402Y-64932731D01*
X36734569Y-65043538D01*
X36593539Y-65184568D01*
X36482732Y-65350401D01*
X36482732Y-65350402D01*
X36406410Y-65534662D01*
X36406410Y-65534664D01*
X36367500Y-65730273D01*
X1500000Y-65730273D01*
X1500000Y-45202129D01*
X13899500Y-45202129D01*
X13899500Y-46797866D01*
X13899501Y-46797870D01*
X13905908Y-46857480D01*
X13905909Y-46857485D01*
X13956202Y-46992329D01*
X14042450Y-47107541D01*
X14042454Y-47107546D01*
X14042457Y-47107548D01*
X14042458Y-47107549D01*
X14157670Y-47193797D01*
X14292511Y-47244089D01*
X14292512Y-47244089D01*
X14292517Y-47244091D01*
X14352127Y-47250500D01*
X14829609Y-47250499D01*
X14887800Y-47269406D01*
X14899613Y-47279495D01*
X24053004Y-56432886D01*
X24080781Y-56487403D01*
X24082000Y-56502890D01*
X24082000Y-56589175D01*
X24096583Y-56643600D01*
X24119517Y-56729189D01*
X24191987Y-56854710D01*
X24191989Y-56854712D01*
X24191991Y-56854715D01*
X24294485Y-56957209D01*
X24294487Y-56957210D01*
X24294489Y-56957212D01*
X24420011Y-57029682D01*
X24420012Y-57029682D01*
X24420015Y-57029684D01*
X24560025Y-57067200D01*
X24560026Y-57067200D01*
X24704974Y-57067200D01*
X24704975Y-57067200D01*
X24844985Y-57029684D01*
X24844987Y-57029682D01*
X24844989Y-57029682D01*
X24970510Y-56957212D01*
X24970510Y-56957211D01*
X24970515Y-56957209D01*
X25073009Y-56854715D01*
X25141255Y-56736510D01*
X25145482Y-56729189D01*
X25145482Y-56729187D01*
X25145484Y-56729185D01*
X25183000Y-56589175D01*
X25183000Y-56444225D01*
X25145484Y-56304215D01*
X25145482Y-56304212D01*
X25145482Y-56304210D01*
X25073012Y-56178689D01*
X25073010Y-56178687D01*
X25073009Y-56178685D01*
X24970515Y-56076191D01*
X24970512Y-56076189D01*
X24970510Y-56076187D01*
X24844988Y-56003717D01*
X24844989Y-56003717D01*
X24792300Y-55989599D01*
X24704975Y-55966200D01*
X24704974Y-55966200D01*
X24618690Y-55966200D01*
X24560499Y-55947293D01*
X24548686Y-55937204D01*
X15901928Y-47290446D01*
X15874151Y-47235929D01*
X15883722Y-47175497D01*
X15912600Y-47141192D01*
X15957546Y-47107546D01*
X16043796Y-46992331D01*
X16094091Y-46857483D01*
X16100500Y-46797873D01*
X16100499Y-45202128D01*
X16094091Y-45142517D01*
X16061437Y-45054966D01*
X16043797Y-45007670D01*
X15957549Y-44892458D01*
X15957548Y-44892457D01*
X15957546Y-44892454D01*
X15957541Y-44892450D01*
X15842329Y-44806202D01*
X15707488Y-44755910D01*
X15707483Y-44755909D01*
X15707481Y-44755908D01*
X15707477Y-44755908D01*
X15676249Y-44752550D01*
X15647873Y-44749500D01*
X15647870Y-44749500D01*
X14352133Y-44749500D01*
X14352129Y-44749500D01*
X14352128Y-44749501D01*
X14344949Y-44750272D01*
X14292519Y-44755908D01*
X14292514Y-44755909D01*
X14157670Y-44806202D01*
X14042458Y-44892450D01*
X14042450Y-44892458D01*
X13956202Y-45007670D01*
X13905910Y-45142511D01*
X13905908Y-45142522D01*
X13899500Y-45202129D01*
X1500000Y-45202129D01*
X1500000Y-11172456D01*
X13430900Y-11172456D01*
X13430900Y-36995044D01*
X13439922Y-37028714D01*
X13454786Y-37084188D01*
X13500930Y-37164112D01*
X26962705Y-50625887D01*
X26990481Y-50680402D01*
X26991700Y-50695889D01*
X26991700Y-50782175D01*
X26996908Y-50801610D01*
X27029217Y-50922189D01*
X27101687Y-51047710D01*
X27101689Y-51047712D01*
X27101691Y-51047715D01*
X27204185Y-51150209D01*
X27204187Y-51150210D01*
X27204189Y-51150212D01*
X27329711Y-51222682D01*
X27329712Y-51222682D01*
X27329715Y-51222684D01*
X27469725Y-51260200D01*
X27469726Y-51260200D01*
X27614674Y-51260200D01*
X27614675Y-51260200D01*
X27754685Y-51222684D01*
X27754687Y-51222682D01*
X27754689Y-51222682D01*
X27880210Y-51150212D01*
X27880210Y-51150211D01*
X27880215Y-51150209D01*
X27982709Y-51047715D01*
X27982712Y-51047710D01*
X28055182Y-50922189D01*
X28055182Y-50922187D01*
X28055184Y-50922185D01*
X28092700Y-50782175D01*
X28092700Y-50637225D01*
X28055184Y-50497215D01*
X28055182Y-50497212D01*
X28055182Y-50497210D01*
X27982712Y-50371689D01*
X27982710Y-50371687D01*
X27982709Y-50371685D01*
X27880215Y-50269191D01*
X27880212Y-50269189D01*
X27880210Y-50269187D01*
X27754688Y-50196717D01*
X27754689Y-50196717D01*
X27725096Y-50188787D01*
X27614675Y-50159200D01*
X27614674Y-50159200D01*
X27528390Y-50159200D01*
X27470199Y-50140293D01*
X27458386Y-50130204D01*
X14160896Y-36832714D01*
X14133119Y-36778197D01*
X14131900Y-36762710D01*
X14131900Y-35326770D01*
X14150807Y-35268579D01*
X14200307Y-35232615D01*
X14261493Y-35232615D01*
X14265459Y-35233999D01*
X14292517Y-35244091D01*
X14352127Y-35250500D01*
X15647872Y-35250499D01*
X15697344Y-35245180D01*
X15757219Y-35257759D01*
X15777927Y-35273609D01*
X32255131Y-51750812D01*
X32255130Y-51750812D01*
X32320387Y-51816068D01*
X32320389Y-51816070D01*
X32369302Y-51844310D01*
X32400312Y-51862214D01*
X32489456Y-51886100D01*
X32892568Y-51886100D01*
X32950759Y-51905007D01*
X32962571Y-51915096D01*
X33023584Y-51976108D01*
X33023589Y-51976112D01*
X33149111Y-52048582D01*
X33149112Y-52048582D01*
X33149115Y-52048584D01*
X33289125Y-52086100D01*
X33289126Y-52086100D01*
X33434074Y-52086100D01*
X33434075Y-52086100D01*
X33524878Y-52061769D01*
X33585978Y-52064971D01*
X33633528Y-52103476D01*
X33649500Y-52157396D01*
X33649500Y-52807344D01*
X33673386Y-52896488D01*
X33719530Y-52976412D01*
X38297988Y-57554870D01*
X38367461Y-57594980D01*
X38377912Y-57601014D01*
X38467056Y-57624900D01*
X38467057Y-57624900D01*
X38559344Y-57624900D01*
X38587768Y-57624900D01*
X38645959Y-57643807D01*
X38657771Y-57653896D01*
X38718884Y-57715008D01*
X38718889Y-57715012D01*
X38844411Y-57787482D01*
X38844412Y-57787482D01*
X38844415Y-57787484D01*
X38984425Y-57825000D01*
X38984426Y-57825000D01*
X39129374Y-57825000D01*
X39129375Y-57825000D01*
X39269385Y-57787484D01*
X39269387Y-57787482D01*
X39269389Y-57787482D01*
X39394910Y-57715012D01*
X39394910Y-57715011D01*
X39394915Y-57715009D01*
X39497409Y-57612515D01*
X39507533Y-57594980D01*
X39569882Y-57486989D01*
X39569882Y-57486987D01*
X39569884Y-57486985D01*
X39607400Y-57346975D01*
X39607400Y-57202025D01*
X39569884Y-57062015D01*
X39569882Y-57062012D01*
X39569882Y-57062010D01*
X39497412Y-56936489D01*
X39497410Y-56936487D01*
X39497409Y-56936485D01*
X39394915Y-56833991D01*
X39394912Y-56833989D01*
X39394910Y-56833987D01*
X39269388Y-56761517D01*
X39269389Y-56761517D01*
X39239796Y-56753587D01*
X39129375Y-56724000D01*
X38984425Y-56724000D01*
X38937738Y-56736510D01*
X38844410Y-56761517D01*
X38718889Y-56833987D01*
X38718882Y-56833993D01*
X38713679Y-56839196D01*
X38659161Y-56866971D01*
X38598729Y-56857396D01*
X38573675Y-56839193D01*
X38467846Y-56733364D01*
X38440069Y-56678847D01*
X38449640Y-56618415D01*
X38488348Y-56577625D01*
X38545015Y-56544909D01*
X38647509Y-56442415D01*
X38647512Y-56442410D01*
X38719982Y-56316889D01*
X38719982Y-56316887D01*
X38719984Y-56316885D01*
X38757500Y-56176875D01*
X38757500Y-56031925D01*
X38719984Y-55891915D01*
X38719982Y-55891912D01*
X38719982Y-55891910D01*
X38647512Y-55766389D01*
X38647508Y-55766384D01*
X38586496Y-55705371D01*
X38558719Y-55650854D01*
X38557500Y-55635368D01*
X38557500Y-38160857D01*
X38557500Y-38160856D01*
X38533614Y-38071712D01*
X38533612Y-38071709D01*
X38533612Y-38071707D01*
X38487472Y-37991791D01*
X38487471Y-37991790D01*
X38487470Y-37991789D01*
X38487469Y-37991787D01*
X35129495Y-34633813D01*
X35101718Y-34579296D01*
X35100499Y-34563809D01*
X35100499Y-33202133D01*
X35100499Y-33202128D01*
X35094091Y-33142517D01*
X35089226Y-33129472D01*
X35043797Y-33007670D01*
X34957549Y-32892458D01*
X34957548Y-32892457D01*
X34957546Y-32892454D01*
X34957541Y-32892450D01*
X34842329Y-32806202D01*
X34707488Y-32755910D01*
X34707483Y-32755909D01*
X34707481Y-32755908D01*
X34707477Y-32755908D01*
X34676249Y-32752550D01*
X34647873Y-32749500D01*
X34647870Y-32749500D01*
X33352133Y-32749500D01*
X33352129Y-32749500D01*
X33352128Y-32749501D01*
X33344949Y-32750272D01*
X33292519Y-32755908D01*
X33292514Y-32755909D01*
X33157670Y-32806202D01*
X33042458Y-32892450D01*
X33042450Y-32892458D01*
X32956202Y-33007670D01*
X32905910Y-33142511D01*
X32905908Y-33142522D01*
X32899500Y-33202129D01*
X32899500Y-34797866D01*
X32899501Y-34797870D01*
X32905908Y-34857480D01*
X32905909Y-34857485D01*
X32956202Y-34992329D01*
X33042450Y-35107541D01*
X33042454Y-35107546D01*
X33042457Y-35107548D01*
X33042458Y-35107549D01*
X33157670Y-35193797D01*
X33292511Y-35244089D01*
X33292512Y-35244089D01*
X33292517Y-35244091D01*
X33352127Y-35250500D01*
X34647872Y-35250499D01*
X34697344Y-35245180D01*
X34757219Y-35257759D01*
X34777927Y-35273609D01*
X37827504Y-38323186D01*
X37855281Y-38377703D01*
X37856500Y-38393190D01*
X37856500Y-55635368D01*
X37837593Y-55693559D01*
X37827504Y-55705371D01*
X37766491Y-55766384D01*
X37766487Y-55766389D01*
X37733775Y-55823049D01*
X37688306Y-55863990D01*
X37627455Y-55870386D01*
X37578035Y-55843553D01*
X34379496Y-52645014D01*
X34351719Y-52590497D01*
X34350500Y-52575010D01*
X34350500Y-47349499D01*
X34369407Y-47291308D01*
X34418907Y-47255344D01*
X34449500Y-47250499D01*
X34647867Y-47250499D01*
X34647872Y-47250499D01*
X34707483Y-47244091D01*
X34774907Y-47218943D01*
X34842329Y-47193797D01*
X34842329Y-47193796D01*
X34842331Y-47193796D01*
X34957546Y-47107546D01*
X35043796Y-46992331D01*
X35094091Y-46857483D01*
X35100500Y-46797873D01*
X35100499Y-45202128D01*
X35094091Y-45142517D01*
X35061437Y-45054966D01*
X35043797Y-45007670D01*
X34957549Y-44892458D01*
X34957548Y-44892457D01*
X34957546Y-44892454D01*
X34957541Y-44892450D01*
X34842329Y-44806202D01*
X34707488Y-44755910D01*
X34707483Y-44755909D01*
X34707481Y-44755908D01*
X34707477Y-44755908D01*
X34676249Y-44752550D01*
X34647873Y-44749500D01*
X34647870Y-44749500D01*
X33352133Y-44749500D01*
X33352129Y-44749500D01*
X33352128Y-44749501D01*
X33344949Y-44750272D01*
X33292519Y-44755908D01*
X33292514Y-44755909D01*
X33157670Y-44806202D01*
X33042458Y-44892450D01*
X33042450Y-44892458D01*
X32956202Y-45007670D01*
X32905910Y-45142511D01*
X32905908Y-45142522D01*
X32899500Y-45202129D01*
X32899500Y-46797866D01*
X32899501Y-46797870D01*
X32905908Y-46857480D01*
X32905909Y-46857485D01*
X32956202Y-46992329D01*
X33042450Y-47107541D01*
X33042454Y-47107546D01*
X33042457Y-47107548D01*
X33042458Y-47107549D01*
X33157670Y-47193797D01*
X33292511Y-47244089D01*
X33292512Y-47244089D01*
X33292517Y-47244091D01*
X33352127Y-47250500D01*
X33550501Y-47250499D01*
X33608690Y-47269406D01*
X33644654Y-47318906D01*
X33649500Y-47349499D01*
X33649500Y-50913803D01*
X33630593Y-50971994D01*
X33581093Y-51007958D01*
X33524877Y-51009430D01*
X33461985Y-50992578D01*
X33434075Y-50985100D01*
X33289125Y-50985100D01*
X33229947Y-51000957D01*
X33149110Y-51022617D01*
X33023589Y-51095087D01*
X33023584Y-51095091D01*
X32962571Y-51156104D01*
X32908054Y-51183881D01*
X32892568Y-51185100D01*
X32721789Y-51185100D01*
X32663598Y-51166193D01*
X32651785Y-51156104D01*
X16129495Y-34633813D01*
X16101718Y-34579296D01*
X16100499Y-34563809D01*
X16100499Y-33202133D01*
X16100499Y-33202128D01*
X16094091Y-33142517D01*
X16089226Y-33129472D01*
X16043797Y-33007670D01*
X15957549Y-32892458D01*
X15957548Y-32892457D01*
X15957546Y-32892454D01*
X15957541Y-32892450D01*
X15842329Y-32806202D01*
X15707488Y-32755910D01*
X15707483Y-32755909D01*
X15707481Y-32755908D01*
X15707477Y-32755908D01*
X15676249Y-32752550D01*
X15647873Y-32749500D01*
X15647870Y-32749500D01*
X14352133Y-32749500D01*
X14352129Y-32749500D01*
X14352128Y-32749501D01*
X14344949Y-32750272D01*
X14292519Y-32755908D01*
X14292514Y-32755909D01*
X14265496Y-32765987D01*
X14204367Y-32768607D01*
X14153372Y-32734796D01*
X14131991Y-32677468D01*
X14131900Y-32673229D01*
X14131900Y-23326770D01*
X14150807Y-23268579D01*
X14200307Y-23232615D01*
X14261493Y-23232615D01*
X14265459Y-23233999D01*
X14292517Y-23244091D01*
X14352127Y-23250500D01*
X15647872Y-23250499D01*
X15707483Y-23244091D01*
X15774907Y-23218943D01*
X15842329Y-23193797D01*
X15842329Y-23193796D01*
X15842331Y-23193796D01*
X15957546Y-23107546D01*
X16043796Y-22992331D01*
X16094091Y-22857483D01*
X16100500Y-22797873D01*
X16100499Y-21202129D01*
X32899500Y-21202129D01*
X32899500Y-22797866D01*
X32899501Y-22797870D01*
X32905908Y-22857480D01*
X32905909Y-22857485D01*
X32956202Y-22992329D01*
X33042450Y-23107541D01*
X33042454Y-23107546D01*
X33042457Y-23107548D01*
X33042458Y-23107549D01*
X33157670Y-23193797D01*
X33292511Y-23244089D01*
X33292512Y-23244089D01*
X33292517Y-23244091D01*
X33352127Y-23250500D01*
X34647872Y-23250499D01*
X34697344Y-23245180D01*
X34757219Y-23257759D01*
X34777927Y-23273609D01*
X39494704Y-27990385D01*
X39522481Y-28044902D01*
X39523700Y-28060389D01*
X39523700Y-55624068D01*
X39504793Y-55682259D01*
X39494704Y-55694071D01*
X39433691Y-55755084D01*
X39433687Y-55755089D01*
X39361217Y-55880610D01*
X39323700Y-56020625D01*
X39323700Y-56165574D01*
X39361217Y-56305589D01*
X39433687Y-56431110D01*
X39433689Y-56431112D01*
X39433691Y-56431115D01*
X39536185Y-56533609D01*
X39536187Y-56533610D01*
X39536189Y-56533612D01*
X39661711Y-56606082D01*
X39661712Y-56606082D01*
X39661715Y-56606084D01*
X39801725Y-56643600D01*
X39801726Y-56643600D01*
X39946674Y-56643600D01*
X39946675Y-56643600D01*
X40086685Y-56606084D01*
X40086687Y-56606082D01*
X40086689Y-56606082D01*
X40212210Y-56533612D01*
X40212210Y-56533611D01*
X40212215Y-56533609D01*
X40314709Y-56431115D01*
X40319566Y-56422702D01*
X40387182Y-56305589D01*
X40387182Y-56305587D01*
X40387184Y-56305585D01*
X40424700Y-56165575D01*
X40424700Y-56020625D01*
X40387184Y-55880615D01*
X40387182Y-55880612D01*
X40387182Y-55880610D01*
X40314712Y-55755089D01*
X40314708Y-55755084D01*
X40253696Y-55694071D01*
X40225919Y-55639554D01*
X40224700Y-55624068D01*
X40224700Y-50268725D01*
X40944000Y-50268725D01*
X40944000Y-50413675D01*
X40957378Y-50463600D01*
X40981517Y-50553689D01*
X41053987Y-50679210D01*
X41053989Y-50679212D01*
X41053991Y-50679215D01*
X41115005Y-50740229D01*
X41142781Y-50794744D01*
X41144000Y-50810231D01*
X41144000Y-64910646D01*
X41149918Y-64932731D01*
X41149918Y-64932732D01*
X41149919Y-64932732D01*
X41149919Y-64932733D01*
X41167886Y-64999788D01*
X41214030Y-65079712D01*
X46564719Y-70430401D01*
X51653109Y-75518791D01*
X51680886Y-75573308D01*
X51674570Y-75626679D01*
X51646409Y-75694666D01*
X51607500Y-75890274D01*
X51607500Y-76089725D01*
X51646410Y-76285334D01*
X51646410Y-76285336D01*
X51722732Y-76469596D01*
X51722732Y-76469597D01*
X51833539Y-76635430D01*
X51833540Y-76635431D01*
X51974569Y-76776460D01*
X52140401Y-76887266D01*
X52324665Y-76963590D01*
X52520277Y-77002500D01*
X52520278Y-77002500D01*
X52719722Y-77002500D01*
X52719723Y-77002500D01*
X52915335Y-76963590D01*
X53099599Y-76887266D01*
X53265431Y-76776460D01*
X53406460Y-76635431D01*
X53517266Y-76469599D01*
X53593590Y-76285335D01*
X53632500Y-76089723D01*
X53632500Y-75890277D01*
X53593590Y-75694665D01*
X53517267Y-75510403D01*
X53517267Y-75510402D01*
X53406460Y-75344569D01*
X53265430Y-75203539D01*
X53099596Y-75092732D01*
X52915335Y-75016410D01*
X52719725Y-74977500D01*
X52719723Y-74977500D01*
X52520277Y-74977500D01*
X52520274Y-74977500D01*
X52324666Y-75016409D01*
X52256679Y-75044570D01*
X52195682Y-75049369D01*
X52148791Y-75023109D01*
X50475956Y-73350274D01*
X51607500Y-73350274D01*
X51607500Y-73549725D01*
X51646410Y-73745334D01*
X51646410Y-73745336D01*
X51722732Y-73929596D01*
X51722732Y-73929597D01*
X51833539Y-74095430D01*
X51833540Y-74095431D01*
X51974569Y-74236460D01*
X52140401Y-74347266D01*
X52324665Y-74423590D01*
X52520277Y-74462500D01*
X52520278Y-74462500D01*
X52719722Y-74462500D01*
X52719723Y-74462500D01*
X52915335Y-74423590D01*
X53099599Y-74347266D01*
X53265431Y-74236460D01*
X53406460Y-74095431D01*
X53517266Y-73929599D01*
X53593590Y-73745335D01*
X53632500Y-73549723D01*
X53632500Y-73350277D01*
X53593590Y-73154665D01*
X53517267Y-72970403D01*
X53517267Y-72970402D01*
X53406460Y-72804569D01*
X53265430Y-72663539D01*
X53099596Y-72552732D01*
X52915335Y-72476410D01*
X52719725Y-72437500D01*
X52719723Y-72437500D01*
X52520277Y-72437500D01*
X52520274Y-72437500D01*
X52324665Y-72476410D01*
X52324663Y-72476410D01*
X52140403Y-72552732D01*
X52140402Y-72552732D01*
X51974569Y-72663539D01*
X51833539Y-72804569D01*
X51722732Y-72970402D01*
X51722732Y-72970403D01*
X51646410Y-73154663D01*
X51646410Y-73154665D01*
X51607500Y-73350274D01*
X50475956Y-73350274D01*
X41873996Y-64748314D01*
X41846219Y-64693797D01*
X41845000Y-64678310D01*
X41845000Y-50810231D01*
X41863907Y-50752040D01*
X41873990Y-50740233D01*
X41935009Y-50679215D01*
X41959252Y-50637225D01*
X43662000Y-50637225D01*
X43662000Y-50782175D01*
X43667208Y-50801610D01*
X43699517Y-50922189D01*
X43771987Y-51047710D01*
X43771989Y-51047712D01*
X43771991Y-51047715D01*
X43874485Y-51150209D01*
X43874487Y-51150210D01*
X43874489Y-51150212D01*
X44000011Y-51222682D01*
X44000012Y-51222682D01*
X44000015Y-51222684D01*
X44140025Y-51260200D01*
X44140026Y-51260200D01*
X44242800Y-51260200D01*
X44300991Y-51279107D01*
X44336955Y-51328607D01*
X44341800Y-51359200D01*
X44341800Y-56813933D01*
X44340591Y-56813933D01*
X44338749Y-56842003D01*
X44329500Y-56876522D01*
X44329500Y-56876525D01*
X44329500Y-57021475D01*
X44340363Y-57062015D01*
X44367017Y-57161489D01*
X44439487Y-57287010D01*
X44439489Y-57287012D01*
X44439491Y-57287015D01*
X44541985Y-57389509D01*
X44541987Y-57389510D01*
X44541989Y-57389512D01*
X44667511Y-57461982D01*
X44667512Y-57461982D01*
X44667515Y-57461984D01*
X44807525Y-57499500D01*
X44807526Y-57499500D01*
X44952474Y-57499500D01*
X44952475Y-57499500D01*
X45092485Y-57461984D01*
X45092487Y-57461982D01*
X45092489Y-57461982D01*
X45218010Y-57389512D01*
X45218010Y-57389511D01*
X45218015Y-57389509D01*
X45320509Y-57287015D01*
X45392984Y-57161485D01*
X45430500Y-57021475D01*
X45430500Y-56876525D01*
X45392984Y-56736515D01*
X45392982Y-56736512D01*
X45392982Y-56736510D01*
X45320512Y-56610989D01*
X45320510Y-56610987D01*
X45320509Y-56610985D01*
X45218015Y-56508491D01*
X45218012Y-56508489D01*
X45218010Y-56508487D01*
X45092300Y-56435908D01*
X45051359Y-56390439D01*
X45042800Y-56350172D01*
X45042800Y-55271125D01*
X46401900Y-55271125D01*
X46401900Y-55416074D01*
X46439417Y-55556089D01*
X46511887Y-55681610D01*
X46511889Y-55681612D01*
X46511891Y-55681615D01*
X46572905Y-55742629D01*
X46600681Y-55797144D01*
X46601900Y-55812631D01*
X46601900Y-62748544D01*
X46625786Y-62837688D01*
X46671930Y-62917612D01*
X49288980Y-65534662D01*
X51653109Y-67898791D01*
X51680886Y-67953308D01*
X51674570Y-68006679D01*
X51646409Y-68074666D01*
X51607500Y-68270274D01*
X51607500Y-68469725D01*
X51646410Y-68665334D01*
X51646410Y-68665336D01*
X51722732Y-68849596D01*
X51722732Y-68849597D01*
X51833539Y-69015430D01*
X51833540Y-69015431D01*
X51974569Y-69156460D01*
X52140401Y-69267266D01*
X52324665Y-69343590D01*
X52520277Y-69382500D01*
X52520278Y-69382500D01*
X52719722Y-69382500D01*
X52719723Y-69382500D01*
X52915335Y-69343590D01*
X53099599Y-69267266D01*
X53207598Y-69195103D01*
X53266487Y-69178494D01*
X53323890Y-69199672D01*
X53357883Y-69250545D01*
X53361600Y-69277418D01*
X53361600Y-70002581D01*
X53342693Y-70060772D01*
X53293193Y-70096736D01*
X53232007Y-70096736D01*
X53207599Y-70084897D01*
X53153159Y-70048521D01*
X53099599Y-70012734D01*
X53099596Y-70012732D01*
X53099595Y-70012732D01*
X52915335Y-69936410D01*
X52719725Y-69897500D01*
X52719723Y-69897500D01*
X52520277Y-69897500D01*
X52520274Y-69897500D01*
X52324665Y-69936410D01*
X52324663Y-69936410D01*
X52140403Y-70012732D01*
X52140402Y-70012732D01*
X51974569Y-70123539D01*
X51833539Y-70264569D01*
X51722732Y-70430402D01*
X51722732Y-70430403D01*
X51646410Y-70614663D01*
X51646410Y-70614665D01*
X51607500Y-70810274D01*
X51607500Y-71009725D01*
X51646410Y-71205334D01*
X51646410Y-71205336D01*
X51722732Y-71389596D01*
X51722732Y-71389597D01*
X51722739Y-71389607D01*
X51833540Y-71555431D01*
X51974569Y-71696460D01*
X52140401Y-71807266D01*
X52324665Y-71883590D01*
X52520277Y-71922500D01*
X52520278Y-71922500D01*
X52719722Y-71922500D01*
X52719723Y-71922500D01*
X52915335Y-71883590D01*
X53099599Y-71807266D01*
X53265431Y-71696460D01*
X53406460Y-71555431D01*
X53517266Y-71389599D01*
X53557375Y-71292764D01*
X53597108Y-71246242D01*
X53611668Y-71240011D01*
X53611290Y-71239098D01*
X53617275Y-71236617D01*
X53617288Y-71236614D01*
X53697212Y-71190470D01*
X53992570Y-70895112D01*
X54038714Y-70815188D01*
X54062600Y-70726043D01*
X54062600Y-70633756D01*
X54062600Y-59151856D01*
X54038714Y-59062712D01*
X53992570Y-58982788D01*
X51765296Y-56755514D01*
X51737519Y-56700997D01*
X51736300Y-56685510D01*
X51736300Y-56065799D01*
X51755207Y-56007608D01*
X51804707Y-55971644D01*
X51860923Y-55970173D01*
X51933422Y-55989599D01*
X51933424Y-55989600D01*
X51933425Y-55989600D01*
X52078374Y-55989600D01*
X52078375Y-55989600D01*
X52218385Y-55952084D01*
X52218387Y-55952082D01*
X52218389Y-55952082D01*
X52343910Y-55879612D01*
X52343910Y-55879611D01*
X52343915Y-55879609D01*
X52446409Y-55777115D01*
X52459129Y-55755084D01*
X52518882Y-55651589D01*
X52518882Y-55651587D01*
X52518884Y-55651585D01*
X52556400Y-55511575D01*
X52556400Y-55425289D01*
X52575307Y-55367098D01*
X52585390Y-55355291D01*
X53280470Y-54660212D01*
X53326614Y-54580288D01*
X53350500Y-54491143D01*
X53350500Y-54398856D01*
X53350500Y-47349499D01*
X53369407Y-47291308D01*
X53418907Y-47255344D01*
X53449500Y-47250499D01*
X53647867Y-47250499D01*
X53647872Y-47250499D01*
X53707483Y-47244091D01*
X53774907Y-47218943D01*
X53842329Y-47193797D01*
X53842329Y-47193796D01*
X53842331Y-47193796D01*
X53957546Y-47107546D01*
X54043796Y-46992331D01*
X54094091Y-46857483D01*
X54100500Y-46797873D01*
X54100499Y-45202128D01*
X54094091Y-45142517D01*
X54084235Y-45116094D01*
X54081617Y-45054966D01*
X54115429Y-45003972D01*
X54172757Y-44982591D01*
X54176995Y-44982500D01*
X70445810Y-44982500D01*
X70504001Y-45001407D01*
X70515814Y-45011496D01*
X70870504Y-45366186D01*
X70898281Y-45420703D01*
X70899500Y-45436190D01*
X70899500Y-46797866D01*
X70899501Y-46797870D01*
X70905908Y-46857480D01*
X70905909Y-46857485D01*
X70956202Y-46992329D01*
X71042450Y-47107541D01*
X71042454Y-47107546D01*
X71042457Y-47107548D01*
X71042458Y-47107549D01*
X71157670Y-47193797D01*
X71292511Y-47244089D01*
X71292512Y-47244089D01*
X71292517Y-47244091D01*
X71352127Y-47250500D01*
X72647872Y-47250499D01*
X72707483Y-47244091D01*
X72774907Y-47218943D01*
X72842329Y-47193797D01*
X72842329Y-47193796D01*
X72842331Y-47193796D01*
X72957546Y-47107546D01*
X73043796Y-46992331D01*
X73094091Y-46857483D01*
X73100500Y-46797873D01*
X73100499Y-45202128D01*
X73094091Y-45142517D01*
X73061437Y-45054966D01*
X73043797Y-45007670D01*
X72957549Y-44892458D01*
X72957548Y-44892457D01*
X72957546Y-44892454D01*
X72957541Y-44892450D01*
X72842329Y-44806202D01*
X72707488Y-44755910D01*
X72707483Y-44755909D01*
X72707481Y-44755908D01*
X72707477Y-44755908D01*
X72676249Y-44752550D01*
X72647873Y-44749500D01*
X72647870Y-44749500D01*
X71352133Y-44749500D01*
X71352129Y-44749500D01*
X71352128Y-44749501D01*
X71302657Y-44754819D01*
X71242778Y-44742239D01*
X71222073Y-44726390D01*
X70847214Y-44351532D01*
X70847212Y-44351530D01*
X70767288Y-44305386D01*
X70678144Y-44281500D01*
X52280944Y-44281500D01*
X52188656Y-44281500D01*
X52099512Y-44305386D01*
X52019588Y-44351530D01*
X50463230Y-45907888D01*
X50417086Y-45987812D01*
X50393200Y-46076957D01*
X50393200Y-52262768D01*
X50374293Y-52320959D01*
X50364204Y-52332771D01*
X50303191Y-52393784D01*
X50303187Y-52393789D01*
X50230717Y-52519310D01*
X50204804Y-52616018D01*
X50193200Y-52659325D01*
X50193200Y-52804275D01*
X50217908Y-52896487D01*
X50230717Y-52944289D01*
X50303187Y-53069810D01*
X50303189Y-53069812D01*
X50303191Y-53069815D01*
X50405685Y-53172309D01*
X50405687Y-53172310D01*
X50405689Y-53172312D01*
X50531211Y-53244782D01*
X50531212Y-53244782D01*
X50531215Y-53244784D01*
X50671225Y-53282300D01*
X50671226Y-53282300D01*
X50816176Y-53282300D01*
X50816176Y-53282299D01*
X50910676Y-53256978D01*
X50971778Y-53260179D01*
X51019328Y-53298684D01*
X51035300Y-53352604D01*
X51035300Y-56917844D01*
X51045849Y-56957212D01*
X51057776Y-57001726D01*
X51059186Y-57006989D01*
X51059187Y-57006990D01*
X51072289Y-57029684D01*
X51105330Y-57086912D01*
X53332605Y-59314187D01*
X53360381Y-59368702D01*
X53361600Y-59384189D01*
X53361600Y-64922580D01*
X53342693Y-64980771D01*
X53293193Y-65016735D01*
X53232007Y-65016735D01*
X53207599Y-65004896D01*
X53153159Y-64968520D01*
X53099599Y-64932733D01*
X53099596Y-64932731D01*
X53099595Y-64932731D01*
X52915335Y-64856409D01*
X52719725Y-64817499D01*
X52719723Y-64817499D01*
X52520277Y-64817499D01*
X52520274Y-64817499D01*
X52324665Y-64856409D01*
X52324663Y-64856409D01*
X52140403Y-64932731D01*
X52140402Y-64932731D01*
X51974569Y-65043538D01*
X51833539Y-65184568D01*
X51722732Y-65350401D01*
X51722732Y-65350402D01*
X51646410Y-65534662D01*
X51646410Y-65534664D01*
X51607500Y-65730273D01*
X51607500Y-65929724D01*
X51646410Y-66125333D01*
X51646410Y-66125335D01*
X51722732Y-66309595D01*
X51722732Y-66309596D01*
X51833539Y-66475429D01*
X51833540Y-66475430D01*
X51974569Y-66616459D01*
X52140401Y-66727265D01*
X52324665Y-66803589D01*
X52520277Y-66842499D01*
X52520278Y-66842499D01*
X52719722Y-66842499D01*
X52719723Y-66842499D01*
X52915335Y-66803589D01*
X53099599Y-66727265D01*
X53207598Y-66655102D01*
X53266487Y-66638493D01*
X53323890Y-66659671D01*
X53357883Y-66710544D01*
X53361600Y-66737417D01*
X53361600Y-67462581D01*
X53342693Y-67520772D01*
X53293193Y-67556736D01*
X53232007Y-67556736D01*
X53207599Y-67544897D01*
X53153159Y-67508521D01*
X53099599Y-67472734D01*
X53099596Y-67472732D01*
X53099595Y-67472732D01*
X52915335Y-67396410D01*
X52719725Y-67357500D01*
X52719723Y-67357500D01*
X52520277Y-67357500D01*
X52520274Y-67357500D01*
X52324666Y-67396409D01*
X52256679Y-67424570D01*
X52195682Y-67429369D01*
X52148791Y-67403109D01*
X47331896Y-62586214D01*
X47304119Y-62531697D01*
X47302900Y-62516210D01*
X47302900Y-55812631D01*
X47321807Y-55754440D01*
X47331890Y-55742633D01*
X47392909Y-55681615D01*
X47465384Y-55556085D01*
X47502900Y-55416075D01*
X47502900Y-55271125D01*
X47465384Y-55131115D01*
X47465382Y-55131112D01*
X47465382Y-55131110D01*
X47392912Y-55005589D01*
X47392910Y-55005587D01*
X47392909Y-55005585D01*
X47290415Y-54903091D01*
X47290412Y-54903089D01*
X47290410Y-54903087D01*
X47164888Y-54830617D01*
X47164889Y-54830617D01*
X47135296Y-54822687D01*
X47024875Y-54793100D01*
X46879925Y-54793100D01*
X46818190Y-54809641D01*
X46739910Y-54830617D01*
X46614389Y-54903087D01*
X46511887Y-55005589D01*
X46439417Y-55131110D01*
X46401900Y-55271125D01*
X45042800Y-55271125D01*
X45042800Y-54243784D01*
X45061707Y-54185593D01*
X45111207Y-54149629D01*
X45167422Y-54148158D01*
X45225425Y-54163700D01*
X45370374Y-54163700D01*
X45370375Y-54163700D01*
X45510385Y-54126184D01*
X45510387Y-54126182D01*
X45510389Y-54126182D01*
X45635910Y-54053712D01*
X45635910Y-54053711D01*
X45635915Y-54053709D01*
X45738409Y-53951215D01*
X45810884Y-53825685D01*
X45848400Y-53685675D01*
X45848400Y-53540725D01*
X45810884Y-53400715D01*
X45810882Y-53400712D01*
X45810882Y-53400710D01*
X45738412Y-53275189D01*
X45738408Y-53275184D01*
X45677396Y-53214171D01*
X45649619Y-53159654D01*
X45648400Y-53144168D01*
X45648400Y-49935931D01*
X47849500Y-49935931D01*
X47849500Y-50064069D01*
X47868423Y-50159200D01*
X47874499Y-50189742D01*
X47874500Y-50189747D01*
X47923534Y-50308125D01*
X47923538Y-50308133D01*
X47966002Y-50371684D01*
X47994724Y-50414669D01*
X47994727Y-50414672D01*
X48020504Y-50440449D01*
X48048281Y-50494966D01*
X48049500Y-50510453D01*
X48049500Y-59989547D01*
X48030593Y-60047738D01*
X48020504Y-60059551D01*
X47994727Y-60085327D01*
X47994724Y-60085331D01*
X47923538Y-60191866D01*
X47923534Y-60191874D01*
X47874500Y-60310252D01*
X47874499Y-60310257D01*
X47849500Y-60435930D01*
X47849500Y-60564069D01*
X47874499Y-60689742D01*
X47874500Y-60689747D01*
X47923534Y-60808125D01*
X47923538Y-60808133D01*
X47966365Y-60872226D01*
X47994724Y-60914669D01*
X48085331Y-61005276D01*
X48148848Y-61047717D01*
X48191866Y-61076461D01*
X48191870Y-61076463D01*
X48191873Y-61076465D01*
X48310256Y-61125501D01*
X48435931Y-61150500D01*
X48435932Y-61150500D01*
X48564068Y-61150500D01*
X48564069Y-61150500D01*
X48689744Y-61125501D01*
X48808127Y-61076465D01*
X48914669Y-61005276D01*
X49005276Y-60914669D01*
X49076465Y-60808127D01*
X49125501Y-60689744D01*
X49150500Y-60564069D01*
X49150500Y-60435931D01*
X49125501Y-60310256D01*
X49076465Y-60191873D01*
X49076463Y-60191870D01*
X49076461Y-60191866D01*
X49047717Y-60148848D01*
X49005276Y-60085331D01*
X48979496Y-60059551D01*
X48951719Y-60005034D01*
X48950500Y-59989547D01*
X48950500Y-50510453D01*
X48969407Y-50452262D01*
X48979496Y-50440449D01*
X49005276Y-50414669D01*
X49076465Y-50308127D01*
X49125501Y-50189744D01*
X49150500Y-50064069D01*
X49150500Y-49935931D01*
X49125501Y-49810256D01*
X49076465Y-49691873D01*
X49076463Y-49691870D01*
X49076461Y-49691866D01*
X49047717Y-49648848D01*
X49005276Y-49585331D01*
X48914669Y-49494724D01*
X48872226Y-49466365D01*
X48808133Y-49423538D01*
X48808125Y-49423534D01*
X48689747Y-49374500D01*
X48689745Y-49374499D01*
X48689744Y-49374499D01*
X48564069Y-49349500D01*
X48435931Y-49349500D01*
X48435930Y-49349500D01*
X48373093Y-49361999D01*
X48310256Y-49374499D01*
X48310255Y-49374499D01*
X48310252Y-49374500D01*
X48191874Y-49423534D01*
X48191866Y-49423538D01*
X48085331Y-49494724D01*
X48085327Y-49494727D01*
X47994727Y-49585327D01*
X47994724Y-49585331D01*
X47923538Y-49691866D01*
X47923534Y-49691874D01*
X47874500Y-49810252D01*
X47874499Y-49810255D01*
X47874499Y-49810256D01*
X47849500Y-49935931D01*
X45648400Y-49935931D01*
X45648400Y-36888289D01*
X45667307Y-36830098D01*
X45677390Y-36818291D01*
X49293552Y-33202129D01*
X51899500Y-33202129D01*
X51899500Y-34797866D01*
X51899501Y-34797870D01*
X51905908Y-34857480D01*
X51905909Y-34857485D01*
X51956202Y-34992329D01*
X52042450Y-35107541D01*
X52042454Y-35107546D01*
X52042457Y-35107548D01*
X52042458Y-35107549D01*
X52157670Y-35193797D01*
X52292511Y-35244089D01*
X52292512Y-35244089D01*
X52292517Y-35244091D01*
X52352127Y-35250500D01*
X53647872Y-35250499D01*
X53707483Y-35244091D01*
X53774907Y-35218943D01*
X53842329Y-35193797D01*
X53842329Y-35193796D01*
X53842331Y-35193796D01*
X53957546Y-35107546D01*
X54043796Y-34992331D01*
X54094091Y-34857483D01*
X54100500Y-34797873D01*
X54100499Y-33202129D01*
X70899500Y-33202129D01*
X70899500Y-34797866D01*
X70899501Y-34797870D01*
X70905908Y-34857480D01*
X70905909Y-34857485D01*
X70956202Y-34992329D01*
X71042450Y-35107541D01*
X71042454Y-35107546D01*
X71042457Y-35107548D01*
X71042458Y-35107549D01*
X71157670Y-35193797D01*
X71292511Y-35244089D01*
X71292512Y-35244089D01*
X71292517Y-35244091D01*
X71352127Y-35250500D01*
X72647872Y-35250499D01*
X72707483Y-35244091D01*
X72774907Y-35218943D01*
X72842329Y-35193797D01*
X72842329Y-35193796D01*
X72842331Y-35193796D01*
X72957546Y-35107546D01*
X73043796Y-34992331D01*
X73094091Y-34857483D01*
X73100500Y-34797873D01*
X73100499Y-33202128D01*
X73094091Y-33142517D01*
X73089226Y-33129472D01*
X73043797Y-33007670D01*
X72957549Y-32892458D01*
X72957548Y-32892457D01*
X72957546Y-32892454D01*
X72957541Y-32892450D01*
X72842329Y-32806202D01*
X72707488Y-32755910D01*
X72707483Y-32755909D01*
X72707481Y-32755908D01*
X72707477Y-32755908D01*
X72676249Y-32752550D01*
X72647873Y-32749500D01*
X72647870Y-32749500D01*
X71352133Y-32749500D01*
X71352129Y-32749500D01*
X71352128Y-32749501D01*
X71344949Y-32750272D01*
X71292519Y-32755908D01*
X71292514Y-32755909D01*
X71157670Y-32806202D01*
X71042458Y-32892450D01*
X71042450Y-32892458D01*
X70956202Y-33007670D01*
X70905910Y-33142511D01*
X70905908Y-33142522D01*
X70899500Y-33202129D01*
X54100499Y-33202129D01*
X54100499Y-33202128D01*
X54094091Y-33142517D01*
X54089226Y-33129472D01*
X54043797Y-33007670D01*
X53957549Y-32892458D01*
X53957548Y-32892457D01*
X53957546Y-32892454D01*
X53957541Y-32892450D01*
X53842329Y-32806202D01*
X53707488Y-32755910D01*
X53707483Y-32755909D01*
X53707481Y-32755908D01*
X53707477Y-32755908D01*
X53676249Y-32752550D01*
X53647873Y-32749500D01*
X53647870Y-32749500D01*
X52352133Y-32749500D01*
X52352129Y-32749500D01*
X52352128Y-32749501D01*
X52344949Y-32750272D01*
X52292519Y-32755908D01*
X52292514Y-32755909D01*
X52157670Y-32806202D01*
X52042458Y-32892450D01*
X52042450Y-32892458D01*
X51956202Y-33007670D01*
X51905910Y-33142511D01*
X51905908Y-33142522D01*
X51899500Y-33202129D01*
X49293552Y-33202129D01*
X61293551Y-21202129D01*
X70899500Y-21202129D01*
X70899500Y-22797866D01*
X70899501Y-22797870D01*
X70905908Y-22857480D01*
X70905909Y-22857485D01*
X70956202Y-22992329D01*
X71042450Y-23107541D01*
X71042454Y-23107546D01*
X71042457Y-23107548D01*
X71042458Y-23107549D01*
X71157670Y-23193797D01*
X71292511Y-23244089D01*
X71292512Y-23244089D01*
X71292517Y-23244091D01*
X71352127Y-23250500D01*
X72647872Y-23250499D01*
X72707483Y-23244091D01*
X72774907Y-23218943D01*
X72842329Y-23193797D01*
X72842329Y-23193796D01*
X72842331Y-23193796D01*
X72957546Y-23107546D01*
X73043796Y-22992331D01*
X73094091Y-22857483D01*
X73100500Y-22797873D01*
X73100499Y-21202128D01*
X73094091Y-21142517D01*
X73089226Y-21129472D01*
X73043797Y-21007670D01*
X72957549Y-20892458D01*
X72957548Y-20892457D01*
X72957546Y-20892454D01*
X72957541Y-20892450D01*
X72842329Y-20806202D01*
X72707488Y-20755910D01*
X72707483Y-20755909D01*
X72707481Y-20755908D01*
X72707477Y-20755908D01*
X72676249Y-20752550D01*
X72647873Y-20749500D01*
X72647870Y-20749500D01*
X71352133Y-20749500D01*
X71352129Y-20749500D01*
X71352128Y-20749501D01*
X71344949Y-20750272D01*
X71292519Y-20755908D01*
X71292514Y-20755909D01*
X71157670Y-20806202D01*
X71042458Y-20892450D01*
X71042450Y-20892458D01*
X70956202Y-21007670D01*
X70905910Y-21142511D01*
X70905908Y-21142522D01*
X70899500Y-21202129D01*
X61293551Y-21202129D01*
X71222072Y-11273608D01*
X71276587Y-11245833D01*
X71302655Y-11245181D01*
X71352127Y-11250500D01*
X72647872Y-11250499D01*
X72707483Y-11244091D01*
X72774907Y-11218943D01*
X72842329Y-11193797D01*
X72842329Y-11193796D01*
X72842331Y-11193796D01*
X72957546Y-11107546D01*
X73043796Y-10992331D01*
X73094091Y-10857483D01*
X73100500Y-10797873D01*
X73100499Y-9202128D01*
X73094091Y-9142517D01*
X73094089Y-9142511D01*
X73043797Y-9007670D01*
X72957549Y-8892458D01*
X72957548Y-8892457D01*
X72957546Y-8892454D01*
X72957541Y-8892450D01*
X72842329Y-8806202D01*
X72707488Y-8755910D01*
X72707483Y-8755909D01*
X72707481Y-8755908D01*
X72707477Y-8755908D01*
X72676249Y-8752550D01*
X72647873Y-8749500D01*
X72647870Y-8749500D01*
X71352133Y-8749500D01*
X71352129Y-8749500D01*
X71352128Y-8749501D01*
X71344949Y-8750272D01*
X71292519Y-8755908D01*
X71292514Y-8755909D01*
X71157670Y-8806202D01*
X71042458Y-8892450D01*
X71042450Y-8892458D01*
X70956202Y-9007670D01*
X70905910Y-9142511D01*
X70905908Y-9142522D01*
X70899500Y-9202129D01*
X70899500Y-10563809D01*
X70880593Y-10622000D01*
X70870504Y-10633813D01*
X45333704Y-36170613D01*
X45279187Y-36198390D01*
X45218755Y-36188819D01*
X45175490Y-36145554D01*
X45164700Y-36100609D01*
X45164700Y-30371989D01*
X45183607Y-30313798D01*
X45193696Y-30301985D01*
X47901951Y-27593730D01*
X52222072Y-23273608D01*
X52276587Y-23245833D01*
X52302655Y-23245181D01*
X52352127Y-23250500D01*
X53647872Y-23250499D01*
X53707483Y-23244091D01*
X53774907Y-23218943D01*
X53842329Y-23193797D01*
X53842329Y-23193796D01*
X53842331Y-23193796D01*
X53957546Y-23107546D01*
X54043796Y-22992331D01*
X54094091Y-22857483D01*
X54100500Y-22797873D01*
X54100499Y-21202128D01*
X54094091Y-21142517D01*
X54089226Y-21129472D01*
X54043797Y-21007670D01*
X53957549Y-20892458D01*
X53957548Y-20892457D01*
X53957546Y-20892454D01*
X53957541Y-20892450D01*
X53842329Y-20806202D01*
X53707488Y-20755910D01*
X53707483Y-20755909D01*
X53707481Y-20755908D01*
X53707477Y-20755908D01*
X53676249Y-20752550D01*
X53647873Y-20749500D01*
X53647870Y-20749500D01*
X52352133Y-20749500D01*
X52352129Y-20749500D01*
X52352128Y-20749501D01*
X52344949Y-20750272D01*
X52292519Y-20755908D01*
X52292514Y-20755909D01*
X52157670Y-20806202D01*
X52042458Y-20892450D01*
X52042450Y-20892458D01*
X51956202Y-21007670D01*
X51905910Y-21142511D01*
X51905908Y-21142522D01*
X51899500Y-21202129D01*
X51899500Y-22563810D01*
X51880593Y-22622001D01*
X51870504Y-22633814D01*
X44732004Y-29772314D01*
X44677487Y-29800091D01*
X44617055Y-29790520D01*
X44573790Y-29747255D01*
X44563000Y-29702310D01*
X44563000Y-18973689D01*
X44581907Y-18915498D01*
X44591990Y-18903691D01*
X52222072Y-11273608D01*
X52276587Y-11245833D01*
X52302655Y-11245181D01*
X52352127Y-11250500D01*
X53647872Y-11250499D01*
X53707483Y-11244091D01*
X53774907Y-11218943D01*
X53842329Y-11193797D01*
X53842329Y-11193796D01*
X53842331Y-11193796D01*
X53957546Y-11107546D01*
X54043796Y-10992331D01*
X54094091Y-10857483D01*
X54100500Y-10797873D01*
X54100499Y-9202128D01*
X54094091Y-9142517D01*
X54094089Y-9142511D01*
X54043797Y-9007670D01*
X53957549Y-8892458D01*
X53957548Y-8892457D01*
X53957546Y-8892454D01*
X53957541Y-8892450D01*
X53842329Y-8806202D01*
X53707488Y-8755910D01*
X53707483Y-8755909D01*
X53707481Y-8755908D01*
X53707477Y-8755908D01*
X53676249Y-8752550D01*
X53647873Y-8749500D01*
X53647870Y-8749500D01*
X52352133Y-8749500D01*
X52352129Y-8749500D01*
X52352128Y-8749501D01*
X52344949Y-8750272D01*
X52292519Y-8755908D01*
X52292514Y-8755909D01*
X52157670Y-8806202D01*
X52042458Y-8892450D01*
X52042450Y-8892458D01*
X51956202Y-9007670D01*
X51905910Y-9142511D01*
X51905908Y-9142522D01*
X51899500Y-9202129D01*
X51899500Y-10563809D01*
X51880593Y-10622000D01*
X51870504Y-10633813D01*
X43932030Y-18572288D01*
X43885886Y-18652212D01*
X43862000Y-18741357D01*
X43862000Y-50240668D01*
X43843093Y-50298859D01*
X43833004Y-50310671D01*
X43771991Y-50371684D01*
X43771987Y-50371689D01*
X43699517Y-50497210D01*
X43679052Y-50573587D01*
X43662000Y-50637225D01*
X41959252Y-50637225D01*
X41991578Y-50581236D01*
X41991578Y-50581235D01*
X41995991Y-50573591D01*
X42007484Y-50553685D01*
X42045000Y-50413675D01*
X42045000Y-50268725D01*
X42007484Y-50128715D01*
X42007482Y-50128712D01*
X42007482Y-50128710D01*
X41935012Y-50003189D01*
X41935010Y-50003187D01*
X41935009Y-50003185D01*
X41832515Y-49900691D01*
X41832512Y-49900689D01*
X41832510Y-49900687D01*
X41706988Y-49828217D01*
X41706989Y-49828217D01*
X41639943Y-49810252D01*
X41566975Y-49790700D01*
X41422025Y-49790700D01*
X41360290Y-49807241D01*
X41282010Y-49828217D01*
X41156489Y-49900687D01*
X41053987Y-50003189D01*
X40981517Y-50128710D01*
X40965163Y-50189744D01*
X40944000Y-50268725D01*
X40224700Y-50268725D01*
X40224700Y-27828057D01*
X40224700Y-27828056D01*
X40200814Y-27738912D01*
X40154669Y-27658988D01*
X40154668Y-27658987D01*
X40089412Y-27593730D01*
X40089412Y-27593731D01*
X35129495Y-22633814D01*
X35101718Y-22579297D01*
X35100499Y-22563810D01*
X35100499Y-21202133D01*
X35100499Y-21202128D01*
X35094091Y-21142517D01*
X35089226Y-21129472D01*
X35043797Y-21007670D01*
X34957549Y-20892458D01*
X34957548Y-20892457D01*
X34957546Y-20892454D01*
X34957541Y-20892450D01*
X34842329Y-20806202D01*
X34707488Y-20755910D01*
X34707483Y-20755909D01*
X34707481Y-20755908D01*
X34707477Y-20755908D01*
X34676249Y-20752550D01*
X34647873Y-20749500D01*
X34647870Y-20749500D01*
X33352133Y-20749500D01*
X33352129Y-20749500D01*
X33352128Y-20749501D01*
X33344949Y-20750272D01*
X33292519Y-20755908D01*
X33292514Y-20755909D01*
X33157670Y-20806202D01*
X33042458Y-20892450D01*
X33042450Y-20892458D01*
X32956202Y-21007670D01*
X32905910Y-21142511D01*
X32905908Y-21142522D01*
X32899500Y-21202129D01*
X16100499Y-21202129D01*
X16100499Y-21202128D01*
X16094091Y-21142517D01*
X16089226Y-21129472D01*
X16043797Y-21007670D01*
X15957549Y-20892458D01*
X15957548Y-20892457D01*
X15957546Y-20892454D01*
X15957541Y-20892450D01*
X15842329Y-20806202D01*
X15707488Y-20755910D01*
X15707483Y-20755909D01*
X15707481Y-20755908D01*
X15707477Y-20755908D01*
X15676249Y-20752550D01*
X15647873Y-20749500D01*
X15647870Y-20749500D01*
X14352133Y-20749500D01*
X14352129Y-20749500D01*
X14352128Y-20749501D01*
X14344949Y-20750272D01*
X14292519Y-20755908D01*
X14292514Y-20755909D01*
X14265496Y-20765987D01*
X14204367Y-20768607D01*
X14153372Y-20734796D01*
X14131991Y-20677468D01*
X14131900Y-20673229D01*
X14131900Y-11404788D01*
X14150807Y-11346597D01*
X14160885Y-11334796D01*
X14222072Y-11273608D01*
X14276587Y-11245833D01*
X14302655Y-11245181D01*
X14352127Y-11250500D01*
X15647872Y-11250499D01*
X15707483Y-11244091D01*
X15774907Y-11218943D01*
X15842329Y-11193797D01*
X15842329Y-11193796D01*
X15842331Y-11193796D01*
X15957546Y-11107546D01*
X16043796Y-10992331D01*
X16094091Y-10857483D01*
X16100500Y-10797873D01*
X16100499Y-9202129D01*
X32899500Y-9202129D01*
X32899500Y-10797866D01*
X32899501Y-10797870D01*
X32905908Y-10857480D01*
X32905909Y-10857485D01*
X32956202Y-10992329D01*
X32964479Y-11003385D01*
X33042454Y-11107546D01*
X33042457Y-11107548D01*
X33042458Y-11107549D01*
X33157670Y-11193797D01*
X33292511Y-11244089D01*
X33292512Y-11244089D01*
X33292517Y-11244091D01*
X33352127Y-11250500D01*
X34647872Y-11250499D01*
X34697344Y-11245180D01*
X34757219Y-11257759D01*
X34777927Y-11273609D01*
X41884104Y-18379786D01*
X41911881Y-18434303D01*
X41913100Y-18449790D01*
X41913100Y-47164268D01*
X41894193Y-47222459D01*
X41884104Y-47234271D01*
X41823091Y-47295284D01*
X41823087Y-47295289D01*
X41750617Y-47420810D01*
X41713100Y-47560825D01*
X41713100Y-47705774D01*
X41750617Y-47845789D01*
X41823087Y-47971310D01*
X41823089Y-47971312D01*
X41823091Y-47971315D01*
X41925585Y-48073809D01*
X41925587Y-48073810D01*
X41925589Y-48073812D01*
X42051111Y-48146282D01*
X42051112Y-48146282D01*
X42051115Y-48146284D01*
X42191125Y-48183800D01*
X42191126Y-48183800D01*
X42336074Y-48183800D01*
X42336075Y-48183800D01*
X42476085Y-48146284D01*
X42476087Y-48146282D01*
X42476089Y-48146282D01*
X42601610Y-48073812D01*
X42601610Y-48073811D01*
X42601615Y-48073809D01*
X42704109Y-47971315D01*
X42776584Y-47845785D01*
X42814100Y-47705775D01*
X42814100Y-47560825D01*
X42776584Y-47420815D01*
X42776582Y-47420812D01*
X42776582Y-47420810D01*
X42704112Y-47295289D01*
X42704108Y-47295284D01*
X42643096Y-47234271D01*
X42615319Y-47179754D01*
X42614100Y-47164268D01*
X42614100Y-18217457D01*
X42614100Y-18217456D01*
X42590214Y-18128312D01*
X42544070Y-18048388D01*
X35129495Y-10633813D01*
X35101718Y-10579296D01*
X35100499Y-10563809D01*
X35100499Y-9202133D01*
X35100499Y-9202128D01*
X35094091Y-9142517D01*
X35094089Y-9142511D01*
X35043797Y-9007670D01*
X34957549Y-8892458D01*
X34957548Y-8892457D01*
X34957546Y-8892454D01*
X34957541Y-8892450D01*
X34842329Y-8806202D01*
X34707488Y-8755910D01*
X34707483Y-8755909D01*
X34707481Y-8755908D01*
X34707477Y-8755908D01*
X34676249Y-8752550D01*
X34647873Y-8749500D01*
X34647870Y-8749500D01*
X33352133Y-8749500D01*
X33352129Y-8749500D01*
X33352128Y-8749501D01*
X33344949Y-8750272D01*
X33292519Y-8755908D01*
X33292514Y-8755909D01*
X33157670Y-8806202D01*
X33042458Y-8892450D01*
X33042450Y-8892458D01*
X32956202Y-9007670D01*
X32905910Y-9142511D01*
X32905908Y-9142522D01*
X32899500Y-9202129D01*
X16100499Y-9202129D01*
X16100499Y-9202128D01*
X16094091Y-9142517D01*
X16094089Y-9142511D01*
X16043797Y-9007670D01*
X15957549Y-8892458D01*
X15957548Y-8892457D01*
X15957546Y-8892454D01*
X15957541Y-8892450D01*
X15842329Y-8806202D01*
X15707488Y-8755910D01*
X15707483Y-8755909D01*
X15707481Y-8755908D01*
X15707477Y-8755908D01*
X15676249Y-8752550D01*
X15647873Y-8749500D01*
X15647870Y-8749500D01*
X14352133Y-8749500D01*
X14352129Y-8749500D01*
X14352128Y-8749501D01*
X14344949Y-8750272D01*
X14292519Y-8755908D01*
X14292514Y-8755909D01*
X14157670Y-8806202D01*
X14042458Y-8892450D01*
X14042450Y-8892458D01*
X13956202Y-9007670D01*
X13905910Y-9142511D01*
X13905908Y-9142522D01*
X13899500Y-9202129D01*
X13899500Y-10563810D01*
X13880593Y-10622001D01*
X13870504Y-10633813D01*
X13500932Y-11003385D01*
X13500930Y-11003387D01*
X13500930Y-11003388D01*
X13454786Y-11083312D01*
X13430900Y-11172456D01*
X1500000Y-11172456D01*
X1500000Y-4362326D01*
X2399500Y-4362326D01*
X2399500Y-4637674D01*
X2435440Y-4910666D01*
X2474253Y-5055521D01*
X2506704Y-5176631D01*
X2612074Y-5431016D01*
X2612077Y-5431021D01*
X2749751Y-5669479D01*
X2917372Y-5887928D01*
X3112072Y-6082628D01*
X3330521Y-6250249D01*
X3568979Y-6387923D01*
X3568980Y-6387923D01*
X3568983Y-6387925D01*
X3823368Y-6493295D01*
X4089334Y-6564560D01*
X4362326Y-6600500D01*
X4362327Y-6600500D01*
X4637673Y-6600500D01*
X4637674Y-6600500D01*
X4910666Y-6564560D01*
X5176632Y-6493295D01*
X5431021Y-6387923D01*
X5669479Y-6250249D01*
X5887928Y-6082628D01*
X6082628Y-5887928D01*
X6250249Y-5669479D01*
X6387923Y-5431021D01*
X6493295Y-5176632D01*
X6564560Y-4910666D01*
X6600500Y-4637674D01*
X6600500Y-4362326D01*
X83399500Y-4362326D01*
X83399500Y-4637674D01*
X83435440Y-4910666D01*
X83474253Y-5055521D01*
X83506704Y-5176631D01*
X83612074Y-5431016D01*
X83612077Y-5431021D01*
X83749751Y-5669479D01*
X83917372Y-5887928D01*
X84112072Y-6082628D01*
X84330521Y-6250249D01*
X84568979Y-6387923D01*
X84568980Y-6387923D01*
X84568983Y-6387925D01*
X84823368Y-6493295D01*
X85089334Y-6564560D01*
X85362326Y-6600500D01*
X85362327Y-6600500D01*
X85637673Y-6600500D01*
X85637674Y-6600500D01*
X85910666Y-6564560D01*
X86176632Y-6493295D01*
X86431021Y-6387923D01*
X86669479Y-6250249D01*
X86887928Y-6082628D01*
X87082628Y-5887928D01*
X87250249Y-5669479D01*
X87387923Y-5431021D01*
X87493295Y-5176632D01*
X87564560Y-4910666D01*
X87600500Y-4637674D01*
X87600500Y-4362326D01*
X87564560Y-4089334D01*
X87493295Y-3823368D01*
X87387923Y-3568979D01*
X87250249Y-3330521D01*
X87232442Y-3307315D01*
X87218961Y-3289746D01*
X87082628Y-3112072D01*
X86887928Y-2917372D01*
X86748893Y-2810687D01*
X86669482Y-2749753D01*
X86431016Y-2612074D01*
X86176631Y-2506704D01*
X86055521Y-2474253D01*
X85910666Y-2435440D01*
X85910659Y-2435439D01*
X85637675Y-2399500D01*
X85637674Y-2399500D01*
X85362326Y-2399500D01*
X85362324Y-2399500D01*
X85089340Y-2435439D01*
X85089338Y-2435439D01*
X85089334Y-2435440D01*
X84988805Y-2462376D01*
X84823368Y-2506704D01*
X84568983Y-2612074D01*
X84330517Y-2749753D01*
X84112075Y-2917369D01*
X83917369Y-3112075D01*
X83749753Y-3330517D01*
X83612074Y-3568983D01*
X83506704Y-3823368D01*
X83462376Y-3988805D01*
X83435440Y-4089334D01*
X83399500Y-4362326D01*
X6600500Y-4362326D01*
X6564560Y-4089334D01*
X6493295Y-3823368D01*
X6387923Y-3568979D01*
X6250249Y-3330521D01*
X6232442Y-3307315D01*
X6218961Y-3289746D01*
X6082628Y-3112072D01*
X5887928Y-2917372D01*
X5748893Y-2810687D01*
X5669482Y-2749753D01*
X5431016Y-2612074D01*
X5176631Y-2506704D01*
X5055521Y-2474253D01*
X4910666Y-2435440D01*
X4910659Y-2435439D01*
X4637675Y-2399500D01*
X4637674Y-2399500D01*
X4362326Y-2399500D01*
X4362324Y-2399500D01*
X4089340Y-2435439D01*
X4089338Y-2435439D01*
X4089334Y-2435440D01*
X3988805Y-2462376D01*
X3823368Y-2506704D01*
X3568983Y-2612074D01*
X3330517Y-2749753D01*
X3112075Y-2917369D01*
X2917369Y-3112075D01*
X2749753Y-3330517D01*
X2612074Y-3568983D01*
X2506704Y-3823368D01*
X2462376Y-3988805D01*
X2435440Y-4089334D01*
X2399500Y-4362326D01*
X1500000Y-4362326D01*
X1500000Y-3003240D01*
X1500212Y-2996766D01*
X1501217Y-2981430D01*
X1512407Y-2810679D01*
X1514097Y-2797848D01*
X1549848Y-2618117D01*
X1553193Y-2605636D01*
X1612098Y-2432104D01*
X1617043Y-2420168D01*
X1698092Y-2255816D01*
X1704564Y-2244607D01*
X1704567Y-2244603D01*
X1806374Y-2092236D01*
X1814239Y-2081987D01*
X1935068Y-1944208D01*
X1944208Y-1935068D01*
X2081989Y-1814237D01*
X2092235Y-1806375D01*
X2244619Y-1704555D01*
X2255806Y-1698097D01*
X2420163Y-1617045D01*
X2432109Y-1612097D01*
X2605636Y-1553193D01*
X2618117Y-1549848D01*
X2797857Y-1514095D01*
X2810679Y-1512407D01*
X2981709Y-1501198D01*
X2996765Y-1500212D01*
X3003239Y-1500000D01*
X86996760Y-1500000D01*
X87003234Y-1500212D01*
G37*
%TD.AperFunction*%
%TD*%
M02*
